<?xml version="1.0" encoding="UTF-8" standalone="no"?>
<!-- Created with Inkscape (http://www.inkscape.org/) -->

<svg
   xmlns:dc="http://purl.org/dc/elements/1.1/"
   xmlns:cc="http://creativecommons.org/ns#"
   xmlns:rdf="http://www.w3.org/1999/02/22-rdf-syntax-ns#"
   xmlns:svg="http://www.w3.org/2000/svg"
   xmlns="http://www.w3.org/2000/svg"
   xmlns:sodipodi="http://sodipodi.sourceforge.net/DTD/sodipodi-0.dtd"
   xmlns:inkscape="http://www.inkscape.org/namespaces/inkscape"
   width="32"
   height="32"
   viewBox="0 0 8.4666665 8.4666669"
   version="1.1"
   id="svg8"
   inkscape:version="0.92.4 (5da689c313, 2019-01-14)"
   sodipodi:docname="assorted_narcotics.svg">
  <defs
     id="defs2" />
  <sodipodi:namedview
     id="base"
     pagecolor="#ffffff"
     bordercolor="#666666"
     borderopacity="1.0"
     inkscape:pageopacity="0.0"
     inkscape:pageshadow="2"
     inkscape:zoom="22.627417"
     inkscape:cx="20.864094"
     inkscape:cy="19.509834"
     inkscape:document-units="px"
     inkscape:current-layer="layer1"
     showgrid="false"
     units="px"
     inkscape:snap-page="true"
     inkscape:snap-bbox="false"
     inkscape:bbox-paths="true"
     inkscape:bbox-nodes="true"
     inkscape:snap-bbox-edge-midpoints="true"
     inkscape:snap-bbox-midpoints="true"
     inkscape:snap-intersection-paths="true"
     inkscape:object-paths="true"
     inkscape:snap-smooth-nodes="true"
     inkscape:snap-midpoints="true"
     inkscape:snap-nodes="false"
     inkscape:snap-object-midpoints="true"
     inkscape:window-width="1920"
     inkscape:window-height="1001"
     inkscape:window-x="-9"
     inkscape:window-y="-9"
     inkscape:window-maximized="1"
     inkscape:snap-others="false" />
  <metadata
     id="metadata5">
    <rdf:RDF>
      <cc:Work
         rdf:about="">
        <dc:format>image/svg+xml</dc:format>
        <dc:type
           rdf:resource="http://purl.org/dc/dcmitype/StillImage" />
        <dc:title></dc:title>
      </cc:Work>
    </rdf:RDF>
  </metadata>
  <g
     inkscape:label="Layer 1"
     inkscape:groupmode="layer"
     id="layer1"
     transform="translate(0,-288.53332)">
    <g
       id="g897">
      <g
         transform="translate(0.44648445)"
         id="g881">
        <rect
           rx="0.49609375"
           style="opacity:1;fill:#ff6600;fill-opacity:1;stroke:none;stroke-width:1.56500006;stroke-linecap:round;stroke-linejoin:round;stroke-miterlimit:4;stroke-dasharray:none;stroke-opacity:1;paint-order:markers fill stroke"
           id="rect820"
           width="5.0270834"
           height="7.3752604"
           x="1.3063802"
           y="289.62473"
           ry="0.49609375" />
        <path
           style="opacity:1;fill:#ffcc00;fill-opacity:1;stroke:none;stroke-width:0.37942839;stroke-linecap:round;stroke-linejoin:round;stroke-miterlimit:4;stroke-dasharray:none;stroke-opacity:1;paint-order:markers fill stroke"
           d="m 1.4552083,291.22877 v 0.97875 H 1.767607 v -0.97875 z m 0.431742,0 v 0.97875 h 0.3123986 v -0.97875 z m -0.431742,1.17098 v 0.97876 H 1.767607 v -0.97876 z m 0.431742,0 v 0.97876 h 0.3123986 v -0.97876 z"
           id="rect824"
           inkscape:connector-curvature="0" />
        <path
           inkscape:connector-curvature="0"
           style="opacity:1;fill:#d1d1ff;fill-opacity:1;stroke:none;stroke-width:1.44032216;stroke-linecap:round;stroke-linejoin:round;stroke-miterlimit:4;stroke-dasharray:none;stroke-opacity:1;paint-order:markers fill stroke"
           d="m 11.875,8.3125 c -0.831,0 -1.5,0.669 -1.5,1.5 V 28.375 c 0,0.831 0.669,1.5 1.5,1.5 H 23.9375 V 8.3125 Z"
           transform="matrix(0.26458333,0,0,0.26458333,0,288.53332)"
           id="rect837" />
        <path
           style="font-style:normal;font-weight:normal;font-size:10.58333302px;line-height:1.25;font-family:sans-serif;letter-spacing:0px;word-spacing:0px;fill:#1a1a1a;fill-opacity:1;stroke:none;stroke-width:0.29910216;stroke-miterlimit:4;stroke-dasharray:none;stroke-opacity:1"
           d="m 3.8798448,291.12368 -0.5433254,1.2e-4 v 0.16308 1.88767 h 0.4671547 v -0.68567 h 0.067989 L 4.3394992,293.19713 3.8515,294.016 h 0.5487799 l 0.2402008,-0.39623 0.2386423,0.39623 h 0.5696248 l -0.501636,-0.82536 0.5450787,-0.81029 H 4.9329883 l -0.2829618,0.40144 -0.2612404,-0.40654 -0.050456,-0.0721 c 0.044067,-0.0394 0.083893,-0.0844 0.1167883,-0.13654 l 1.941e-4,-4.5e-4 1.943e-4,-2.3e-4 c 0.071881,-0.11501 0.105976,-0.25834 0.105976,-0.41001 0,-0.11258 -0.018353,-0.21878 -0.063898,-0.30982 -0.040526,-0.083 -0.098528,-0.15273 -0.1677314,-0.20454 l -1.943e-4,-2.2e-4 -1.941e-4,-1.2e-4 c -0.061772,-0.0459 -0.131115,-0.077 -0.2044532,-0.0936 -0.07118,-0.0169 -0.1517411,-0.0239 -0.2451686,-0.0239 z m -0.07617,0.52318 h 0.089808 c 0.045088,0 0.081565,0.004 0.1080215,0.0107 l 0.00118,2.3e-4 0.00107,2.2e-4 c 0.022866,0.005 0.037348,0.0128 0.047827,0.0212 l 7.776e-4,6.8e-4 7.774e-4,6.7e-4 c 0.015408,0.0119 0.018766,0.0188 0.021624,0.0265 l 6.837e-4,0.002 6.81e-4,0.002 c 0.00518,0.0131 0.00944,0.0317 0.00944,0.0616 0,0.0506 -0.00624,0.0846 -0.011584,0.10037 l -2.921e-4,6.8e-4 -1.943e-4,8.1e-4 c -0.00591,0.0181 -0.014492,0.0335 -0.029709,0.0505 -0.013897,0.015 -0.029485,0.0254 -0.054255,0.0327 -0.032368,0.009 -0.075324,0.0143 -0.1281849,0.0143 h -0.057665 z"
           id="path843"
           inkscape:connector-curvature="0" />
        <rect
           style="opacity:1;fill:#b9b9ee;fill-opacity:1;stroke:none;stroke-width:1.4552083;stroke-linecap:round;stroke-linejoin:round;stroke-miterlimit:4;stroke-dasharray:none;stroke-opacity:1;paint-order:markers fill stroke"
           id="rect872"
           width="0.6686514"
           height="5.7050781"
           x="5.6648111"
           y="290.73267" />
      </g>
      <path
         id="rect874"
         d="m 1.2443685,288.53333 h 5.9779297 c 0.1122246,0 0.2025716,0.0903 0.2025716,0.20257 v 1.34772 c 0,0.11222 -0.090347,0.20257 -0.2025716,0.20257 H 1.2443685 c -0.1122246,0 -0.2025716,-0.0904 -0.2025716,-0.20257 v -1.34772 c 0,-0.11223 0.090347,-0.20257 0.2025716,-0.20257 z"
         style="opacity:1;fill:#ffffff;fill-opacity:1;stroke:none;stroke-width:1.4552083;stroke-linecap:round;stroke-linejoin:round;stroke-miterlimit:4;stroke-dasharray:none;stroke-opacity:1;paint-order:markers fill stroke"
         inkscape:connector-curvature="0" />
      <path
         id="path884"
         transform="matrix(0.26458333,0,0,0.26458333,0,288.53332)"
         d="M 22.271484,0 C 22.640703,0 22.9375,0.30551538 22.9375,0.68554688 V 5.2519531 C 22.9375,5.632098 22.640698,5.9375 22.271484,5.9375 H 3.953125 c 0.040667,0.3851721 0.3535525,0.6875 0.75,0.6875 h 22.59375 c 0.424156,0 0.765625,-0.3414864 0.765625,-0.765625 V 0.765625 C 28.0625,0.34129744 27.721031,0 27.296875,0 Z"
         style="opacity:1;fill:#ececec;fill-opacity:1;stroke:none;stroke-width:5.5;stroke-linecap:round;stroke-linejoin:round;stroke-miterlimit:4;stroke-dasharray:none;stroke-opacity:1;paint-order:markers fill stroke"
         inkscape:connector-curvature="0" />
    </g>
  </g>
</svg>
