<?xml version="1.0" encoding="UTF-8" standalone="no"?>
<!-- Created with Inkscape (http://www.inkscape.org/) -->

<svg
   xmlns:dc="http://purl.org/dc/elements/1.1/"
   xmlns:cc="http://creativecommons.org/ns#"
   xmlns:rdf="http://www.w3.org/1999/02/22-rdf-syntax-ns#"
   xmlns:svg="http://www.w3.org/2000/svg"
   xmlns="http://www.w3.org/2000/svg"
   xmlns:sodipodi="http://sodipodi.sourceforge.net/DTD/sodipodi-0.dtd"
   xmlns:inkscape="http://www.inkscape.org/namespaces/inkscape"
   width="32"
   height="32"
   viewBox="0 0 8.4666665 8.4666669"
   version="1.1"
   id="svg8"
   inkscape:version="0.92.4 (5da689c313, 2019-01-14)"
   sodipodi:docname="compost.svg">
  <defs
     id="defs2" />
  <sodipodi:namedview
     id="base"
     pagecolor="#ffffff"
     bordercolor="#666666"
     borderopacity="1.0"
     inkscape:pageopacity="0.0"
     inkscape:pageshadow="2"
     inkscape:zoom="11.313709"
     inkscape:cx="5.0279313"
     inkscape:cy="-0.78160377"
     inkscape:document-units="px"
     inkscape:current-layer="layer1"
     showgrid="false"
     units="px"
     inkscape:snap-page="true"
     inkscape:snap-bbox="false"
     inkscape:bbox-paths="true"
     inkscape:bbox-nodes="true"
     inkscape:snap-bbox-edge-midpoints="true"
     inkscape:snap-bbox-midpoints="true"
     inkscape:snap-intersection-paths="true"
     inkscape:object-paths="true"
     inkscape:snap-smooth-nodes="true"
     inkscape:snap-midpoints="true"
     inkscape:snap-nodes="false"
     inkscape:snap-object-midpoints="true"
     inkscape:window-width="1920"
     inkscape:window-height="1001"
     inkscape:window-x="-9"
     inkscape:window-y="-9"
     inkscape:window-maximized="1"
     inkscape:snap-others="false" />
  <metadata
     id="metadata5">
    <rdf:RDF>
      <cc:Work
         rdf:about="">
        <dc:format>image/svg+xml</dc:format>
        <dc:type
           rdf:resource="http://purl.org/dc/dcmitype/StillImage" />
        <dc:title></dc:title>
      </cc:Work>
    </rdf:RDF>
  </metadata>
  <g
     inkscape:label="Layer 1"
     inkscape:groupmode="layer"
     id="layer1"
     transform="translate(0,-288.53332)">
    <g
       id="g2388"
       transform="translate(0.48864029,0.07081168)">
      <path
         sodipodi:nodetypes="cccccc"
         inkscape:connector-curvature="0"
         id="path1651"
         d="m 0.11360114,292.66682 5.73848726,-3.4154 c -0.6999932,1.81705 -0.7235553,3.87117 1.47037,5.20588 -0.1221067,0.80662 -2.7853928,2.09405 -3.631056,2.03279 0.081764,-2.01649 -2.3614736,-3.60237 -3.57777781,-3.82324 z"
         style="fill:#f1eba2;fill-opacity:1;stroke:none;stroke-width:0.25874174px;stroke-linecap:butt;stroke-linejoin:miter;stroke-opacity:1" />
      <path
         inkscape:connector-curvature="0"
         id="path2370"
         d="m 5.8521639,289.25173 -2.7639202,1.64477 c -0.024006,0.0337 -0.050073,0.0631 -0.073586,0.0979 -0.035759,1e-5 -0.069662,0.006 -0.1051234,0.008 l -2.79626557,1.66418 c 0.41133285,0.0746 0.96286337,0.30906 1.50972487,0.65984 0.5500722,-0.56381 1.6038922,-1.1504 2.4331878,-1.07548 0.3886735,-0.65384 0.8746239,-1.0052 1.3835774,-1.19921 0.033284,-0.60342 0.1865844,-1.21385 0.4124045,-1.80003 z"
         style="fill:#e0da8c;fill-opacity:1;stroke:none;stroke-width:0.25874174px;stroke-linecap:butt;stroke-linejoin:miter;stroke-opacity:1" />
      <path
         sodipodi:nodetypes="cccccscsc"
         inkscape:connector-curvature="0"
         id="path1583"
         d="m 5.8520728,289.25139 c -0.2834526,0.30622 -0.4537709,0.68376 -0.4644307,1.22125 -0.7623157,0.14661 -1.0945284,0.50509 -1.5841486,1.32872 -0.9511382,-0.0859 -1.9967012,0.41535 -2.4735647,1.08636 -0.42020896,-0.3742 -0.77428173,-0.43958 -1.21633176,-0.22094 -0.15985027,-0.26842 0.0164996,-0.70299 0.43097744,-1.18803 0.41445308,-0.48508 1.27844372,-0.93386 2.21813482,-0.93422 0.5424739,-0.80193 1.2155754,-1.34785 1.8395783,-1.48086 0.6240095,-0.13301 1.0900429,-0.0791 1.2497996,0.1879 z"
         style="opacity:1;fill:#ed0000;fill-opacity:1;stroke:none;stroke-width:0.09779217;stroke-linecap:round;stroke-linejoin:round;stroke-miterlimit:4;stroke-dasharray:none;stroke-opacity:1;paint-order:markers fill stroke" />
      <path
         inkscape:connector-curvature="0"
         id="path1588"
         d="m 3.2486902,289.93436 c -0.08474,0.091 -0.1679434,0.18713 -0.2491397,0.28875 -0.081225,0.10167 -0.1604309,0.20845 -0.2367925,0.32126 -0.2202664,-0.003 -0.4350817,0.0269 -0.6419822,0.0712 l -0.213858,0.14569 0.4678605,0.0141 -0.1059812,0.26968 0.4076297,-0.26263 0.211315,0.14051 0.072402,-0.20549 0.341715,-0.12737 -0.1562429,-0.10657 0.3151871,-0.20763 -0.3939975,0.007 z"
         style="fill:#800000;fill-opacity:1;stroke:none;stroke-width:0.25874174px;stroke-linecap:butt;stroke-linejoin:miter;stroke-opacity:1" />
      <path
         sodipodi:nodetypes="sccccs"
         inkscape:connector-curvature="0"
         id="path1586"
         d="m 2.3416943,288.54759 c -0.085584,0.0503 -0.1660642,0.12159 -0.2254051,0.21126 -0.2484327,0.37572 0.051634,1.26967 0.4540294,1.88631 0.088992,0.0876 0.3327549,-0.0313 0.3059096,-0.15195 -0.1451265,-0.62261 -0.2055719,-1.25622 -0.063724,-1.74926 0.088423,-0.30702 -0.2139509,-0.34679 -0.4707749,-0.19611 z"
         style="fill:#784421;stroke:none;stroke-width:0.25874174px;stroke-linecap:butt;stroke-linejoin:miter;stroke-opacity:1" />
      <path
         sodipodi:nodetypes="ccccscscc"
         inkscape:connector-curvature="0"
         id="path1583-4"
         d="m 7.3225218,294.45731 c -0.2535976,0.0576 -1.1422501,0.12769 -1.4356318,-0.034 -0.5809351,0.92552 -0.7377157,0.97176 -1.7362457,1.09187 0.071011,0.34336 -0.2035183,0.80443 -0.4592497,0.97487 0.095054,0.16989 0.5527146,0.50144 0.9436204,0.42888 0.390939,-0.0724 0.7341048,-0.69028 1.0270997,-1.19728 0.6017894,-0.0429 1.3445691,-0.0301 1.6107696,-0.3254 0.2661792,-0.29535 0.1438888,-0.76957 0.049574,-0.93898 z"
         style="opacity:1;fill:#d40000;fill-opacity:1;stroke:none;stroke-width:0.06093968;stroke-linecap:round;stroke-linejoin:round;stroke-miterlimit:4;stroke-dasharray:none;stroke-opacity:1;paint-order:markers fill stroke" />
      <path
         inkscape:connector-curvature="0"
         id="path1672"
         d="m 2.3419836,288.54759 c -0.085584,0.0503 -0.1659951,0.12159 -0.225336,0.21133 -0.088338,0.30672 0.2141129,0.34617 0.4707784,0.196 0.085332,-0.0503 0.1654504,-0.12143 0.2246353,-0.21093 0.088423,-0.30701 -0.2132542,-0.34709 -0.4700777,-0.1964 z"
         style="fill:#543017;fill-opacity:1;stroke:none;stroke-width:0.25874174px;stroke-linecap:butt;stroke-linejoin:miter;stroke-opacity:1" />
      <path
         sodipodi:nodetypes="cscsc"
         inkscape:connector-curvature="0"
         id="path873"
         d="m 4.8903444,293.65739 c -0.091858,0.0967 -0.2395423,0.0898 -0.3524773,-0.0417 -0.1599839,-0.18645 -0.318421,-0.53633 -0.226894,-0.63347 0.091856,-0.0967 0.4030805,0.0903 0.5583335,0.28164 0.1124722,0.13864 0.1125551,0.29639 0.021037,0.39354 z"
         style="opacity:1;fill:#000000;fill-opacity:1;stroke:none;stroke-width:0.06300385;stroke-linecap:round;stroke-linejoin:round;stroke-miterlimit:4;stroke-dasharray:none;stroke-opacity:1;paint-order:markers fill stroke" />
      <path
         style="opacity:1;fill:#000000;fill-opacity:1;stroke:none;stroke-width:0.06300385;stroke-linecap:round;stroke-linejoin:round;stroke-miterlimit:4;stroke-dasharray:none;stroke-opacity:1;paint-order:markers fill stroke"
         d="m 4.2442263,294.03043 c 0.1297256,-0.0311 0.1976055,-0.16251 0.1401019,-0.32611 -0.081465,-0.23177 -0.3052488,-0.54392 -0.4351447,-0.51322 -0.1297241,0.0311 -0.1233241,0.39423 -0.035266,0.62434 0.063803,0.16672 0.2004072,0.24567 0.3303088,0.21499 z"
         id="path2319"
         inkscape:connector-curvature="0"
         sodipodi:nodetypes="cscsc" />
      <ellipse
         transform="rotate(38.941532)"
         ry="0.1643787"
         rx="0.33850116"
         cy="224.88727"
         cx="188.97707"
         id="path2333"
         style="opacity:1;fill:#e0da8c;fill-opacity:1;stroke:none;stroke-width:0.31412804;stroke-linecap:round;stroke-linejoin:round;stroke-miterlimit:4;stroke-dasharray:none;stroke-opacity:1;paint-order:markers fill stroke" />
      <path
         inkscape:connector-curvature="0"
         id="path2340"
         d="m 6.524141,291.15445 c -0.2725987,0.012 -0.5393638,0.1961 -0.638014,0.48519 -0.1022838,0.29966 0.033258,0.55185 0.1277642,0.75446 0.094507,0.20258 0.1563476,0.37489 0.1495982,0.431 -0.01302,0.10813 -0.033482,0.14779 -0.045284,0.16496 -0.011798,0.0172 -0.025993,0.0327 -0.085715,0.0679 -0.092,0.0543 -0.2994481,0.21272 -0.4989288,0.39542 -0.058152,0.05 -0.1059565,0.0913 -0.169005,0.14555 4.967e-4,0.002 0.00104,0.004 0.00162,0.005 0.00252,0.007 0.00549,0.0154 0.00889,0.0234 0.00389,0.008 0.00821,0.0161 0.012939,0.0243 0.00443,0.008 0.00928,0.0167 0.014556,0.025 0.0053,0.008 0.010965,0.0162 0.016981,0.0243 0.00611,0.008 0.012584,0.0167 0.019407,0.025 0.0067,0.008 0.013712,0.0163 0.021024,0.0243 0.00728,0.008 0.014829,0.0158 0.022641,0.0235 0.00783,0.008 0.015926,0.0158 0.024259,0.0234 0.00843,0.007 0.017066,0.0147 0.025876,0.0219 0.00639,0.005 0.01287,0.009 0.019407,0.0145 0.00877,0.006 0.017676,0.0131 0.026685,0.0195 0.00937,0.006 0.018809,0.0122 0.028303,0.0178 0.0094,0.005 0.01885,0.0111 0.028302,0.0162 0.00944,0.005 0.018887,0.0105 0.028302,0.0145 0.00922,0.004 0.018394,0.008 0.027493,0.0121 0.00928,0.003 0.018456,0.007 0.027494,0.009 0.00906,0.003 0.017966,0.005 0.026685,0.007 0.00548,0.001 0.010864,0.002 0.016173,0.003 0.047307,-0.0397 0.1151536,-0.0945 0.153641,-0.12614 0.1364091,-0.12522 0.2641113,-0.23138 0.3832937,-0.30163 0.080345,-0.0474 0.1788058,-0.11177 0.2531037,-0.21995 0.074296,-0.10828 0.1128546,-0.23945 0.1318076,-0.39704 0.035778,-0.29745 -0.1061536,-0.5237 -0.19569,-0.71564 -0.089536,-0.19192 -0.119495,-0.32895 -0.1067402,-0.36631 0.043035,-0.12613 0.098111,-0.14109 0.1859865,-0.12858 0.087876,0.0125 0.2174192,0.0867 0.293535,0.3089 a 0.26148275,0.26148275 0 1 0 0.4948859,-0.16819 c -0.1272551,-0.37146 -0.4050663,-0.61581 -0.7148351,-0.65985 -0.038722,-0.005 -0.077501,-0.007 -0.1164437,-0.005 z"
         style="color:#000000;font-style:normal;font-variant:normal;font-weight:normal;font-stretch:normal;font-size:medium;line-height:normal;font-family:sans-serif;font-variant-ligatures:normal;font-variant-position:normal;font-variant-caps:normal;font-variant-numeric:normal;font-variant-alternates:normal;font-feature-settings:normal;text-indent:0;text-align:start;text-decoration:none;text-decoration-line:none;text-decoration-style:solid;text-decoration-color:#000000;letter-spacing:normal;word-spacing:normal;text-transform:none;writing-mode:lr-tb;direction:ltr;text-orientation:mixed;dominant-baseline:auto;baseline-shift:baseline;text-anchor:start;white-space:normal;shape-padding:0;clip-rule:nonzero;display:inline;overflow:visible;visibility:visible;opacity:1;isolation:auto;mix-blend-mode:normal;color-interpolation:sRGB;color-interpolation-filters:linearRGB;solid-color:#000000;solid-opacity:1;vector-effect:none;fill:#29d629;fill-opacity:1;fill-rule:nonzero;stroke:none;stroke-width:0.52291316;stroke-linecap:round;stroke-linejoin:miter;stroke-miterlimit:4;stroke-dasharray:none;stroke-dashoffset:0;stroke-opacity:1;color-rendering:auto;image-rendering:auto;shape-rendering:auto;text-rendering:auto;enable-background:accumulate" />
      <path
         inkscape:connector-curvature="0"
         id="path2355"
         d="m 6.9219905,291.26847 c 0.1187101,0.10622 0.2165691,0.24665 0.278171,0.41726 0.091356,0.23019 -0.1503321,0.37806 -0.3323499,0.32264 a 0.26148274,0.26148274 0 0 0 0.4876082,-0.1884 c -0.086485,-0.25246 -0.2450939,-0.43944 -0.4334293,-0.5515 z m -0.5102498,0.28384 c -0.087876,-0.0119 -0.142951,0.002 -0.1859865,0.1221 -0.012755,0.0354 0.017203,0.16561 0.1067402,0.34772 0.089536,0.18212 0.2314677,0.39702 0.19569,0.67925 -0.018954,0.14953 -0.057512,0.27402 -0.1318076,0.37683 -0.074298,0.10271 -0.1727586,0.16355 -0.2531036,0.20862 -0.1191825,0.0667 -0.2468847,0.16749 -0.3832938,0.28626 -0.029966,0.0233 -0.1739426,0.13758 -0.26685,0.21105 0.00464,0.004 0.00895,0.009 0.013747,0.0138 0.00843,0.007 0.017066,0.0147 0.025876,0.0219 0.00639,0.005 0.01287,0.009 0.019407,0.0145 0.00877,0.006 0.017676,0.0131 0.026685,0.0195 0.00937,0.006 0.018809,0.0122 0.028303,0.0178 0.0094,0.005 0.01885,0.0111 0.028302,0.0162 0.00944,0.005 0.018887,0.0105 0.028302,0.0145 0.00922,0.004 0.018394,0.008 0.027493,0.0121 0.00928,0.003 0.018456,0.007 0.027494,0.009 0.00906,0.003 0.017966,0.005 0.026685,0.007 0.00548,0.001 0.010864,0.002 0.016173,0.003 0.047307,-0.0397 0.1151536,-0.0945 0.153641,-0.12614 0.1364091,-0.12522 0.2641114,-0.23137 0.3832937,-0.30162 0.080345,-0.0474 0.1788058,-0.11178 0.2531037,-0.21995 0.074296,-0.10829 0.1128546,-0.23945 0.1318076,-0.39705 0.035778,-0.29745 -0.1061536,-0.5237 -0.1956899,-0.71564 -0.089536,-0.19192 -0.1194951,-0.32895 -0.1067403,-0.36631 0.043035,-0.12613 0.098111,-0.14109 0.1859866,-0.12858 0.018471,0.003 0.039377,0.009 0.060648,0.0186 -0.07032,-0.0964 -0.153576,-0.13667 -0.2159058,-0.14555 z"
         style="color:#000000;font-style:normal;font-variant:normal;font-weight:normal;font-stretch:normal;font-size:medium;line-height:normal;font-family:sans-serif;font-variant-ligatures:normal;font-variant-position:normal;font-variant-caps:normal;font-variant-numeric:normal;font-variant-alternates:normal;font-feature-settings:normal;text-indent:0;text-align:start;text-decoration:none;text-decoration-line:none;text-decoration-style:solid;text-decoration-color:#000000;letter-spacing:normal;word-spacing:normal;text-transform:none;writing-mode:lr-tb;direction:ltr;text-orientation:mixed;dominant-baseline:auto;baseline-shift:baseline;text-anchor:start;white-space:normal;shape-padding:0;clip-rule:nonzero;display:inline;overflow:visible;visibility:visible;opacity:1;isolation:auto;mix-blend-mode:normal;color-interpolation:sRGB;color-interpolation-filters:linearRGB;solid-color:#000000;solid-opacity:1;vector-effect:none;fill:#1d981d;fill-opacity:1;fill-rule:nonzero;stroke:none;stroke-width:0.52291316;stroke-linecap:round;stroke-linejoin:miter;stroke-miterlimit:4;stroke-dasharray:none;stroke-dashoffset:0;stroke-opacity:1;color-rendering:auto;image-rendering:auto;shape-rendering:auto;text-rendering:auto;enable-background:accumulate" />
      <path
         inkscape:connector-curvature="0"
         id="path2362"
         d="m 5.0386757,288.99944 c -0.00395,2.7e-4 -0.00896,0.001 -0.012939,0.002 -0.1080358,0.22407 -0.1748411,0.48159 -0.1811346,0.79893 -0.762316,0.14663 -1.0944995,0.50495 -1.5841194,1.32859 -0.9511385,-0.0859 -1.9967562,0.41499 -2.47361971,1.086 -0.18920198,-0.16848 -0.36533281,-0.27064 -0.5417866,-0.31617 -0.18260858,0.30986 -0.243368,0.58088 -0.13180787,0.7682 0.44205003,-0.21864 0.79678923,-0.15344 1.21699808,0.22076 0.4768635,-0.67101 1.5224814,-1.17191 2.47362,-1.086 0.4896199,-0.82364 0.8218034,-1.18197 1.5841193,-1.32859 0.010659,-0.53749 0.1807049,-0.91483 0.4641572,-1.22105 -0.1198176,-0.20019 -0.4116741,-0.2807 -0.8134882,-0.25229 z"
         style="opacity:1;fill:#d40000;fill-opacity:1;stroke:none;stroke-width:0.09779217;stroke-linecap:round;stroke-linejoin:round;stroke-miterlimit:4;stroke-dasharray:none;stroke-opacity:1;paint-order:markers fill stroke" />
    </g>
  </g>
</svg>
