<?xml version="1.0" encoding="UTF-8" standalone="no"?>
<!-- Created with Inkscape (http://www.inkscape.org/) -->

<svg
   xmlns:dc="http://purl.org/dc/elements/1.1/"
   xmlns:cc="http://creativecommons.org/ns#"
   xmlns:rdf="http://www.w3.org/1999/02/22-rdf-syntax-ns#"
   xmlns:svg="http://www.w3.org/2000/svg"
   xmlns="http://www.w3.org/2000/svg"
   xmlns:sodipodi="http://sodipodi.sourceforge.net/DTD/sodipodi-0.dtd"
   xmlns:inkscape="http://www.inkscape.org/namespaces/inkscape"
   width="32"
   height="32"
   viewBox="0 0 8.4666665 8.4666669"
   version="1.1"
   id="svg8"
   inkscape:version="0.92.4 (5da689c313, 2019-01-14)"
   sodipodi:docname="dog_food.svg">
  <defs
     id="defs2" />
  <sodipodi:namedview
     id="base"
     pagecolor="#ffffff"
     bordercolor="#666666"
     borderopacity="1.0"
     inkscape:pageopacity="0.0"
     inkscape:pageshadow="2"
     inkscape:zoom="16"
     inkscape:cx="25.483434"
     inkscape:cy="18.523456"
     inkscape:document-units="px"
     inkscape:current-layer="layer1"
     showgrid="false"
     units="px"
     inkscape:snap-page="true"
     inkscape:snap-bbox="false"
     inkscape:bbox-paths="true"
     inkscape:bbox-nodes="true"
     inkscape:snap-bbox-edge-midpoints="true"
     inkscape:snap-bbox-midpoints="true"
     inkscape:snap-intersection-paths="true"
     inkscape:object-paths="true"
     inkscape:snap-smooth-nodes="true"
     inkscape:snap-midpoints="true"
     inkscape:snap-nodes="false"
     inkscape:snap-object-midpoints="true"
     inkscape:window-width="1920"
     inkscape:window-height="1001"
     inkscape:window-x="-9"
     inkscape:window-y="-9"
     inkscape:window-maximized="1"
     inkscape:snap-others="true"
     inkscape:snap-center="true" />
  <metadata
     id="metadata5">
    <rdf:RDF>
      <cc:Work
         rdf:about="">
        <dc:format>image/svg+xml</dc:format>
        <dc:type
           rdf:resource="http://purl.org/dc/dcmitype/StillImage" />
        <dc:title></dc:title>
      </cc:Work>
    </rdf:RDF>
  </metadata>
  <g
     inkscape:label="Layer 1"
     inkscape:groupmode="layer"
     id="layer1"
     transform="translate(0,-288.53332)">
    <g
       id="g1063">
      <path
         id="path899"
         transform="matrix(0.26458333,0,0,0.26458333,0,288.53332)"
         d="M 3.6113281 0.19140625 L 3.6113281 0.44726562 C 4.4798842 1.3241459 6.1468769 3.4318383 5.3496094 6.0878906 C 4.1379605 10.124426 1.5625 14.191451 1.5625 23.09375 C 1.5625 31.200874 6.7988281 32 6.7988281 32 C 26.377131 31.251217 20.711271 6.6183333 3.6113281 0.19140625 z "
         style="fill:#a30000;fill-opacity:1;stroke:none;stroke-width:0.99490374px;stroke-linecap:butt;stroke-linejoin:miter;stroke-opacity:1" />
      <path
         id="path937"
         transform="matrix(0.26458333,0,0,0.26458333,0,288.53332)"
         d="M 3.6113281 0.18945312 L 3.6113281 0.44726562 L 3.5957031 0.44726562 C 4.0441299 0.8963714 4.7045752 1.6557935 5.1425781 2.703125 C 5.2102291 2.498467 5.2884096 2.2917741 5.3496094 2.0878906 C 5.3511894 2.0841106 5.3519356 2.0760456 5.3535156 2.0722656 C 5.4878842 1.7633484 5.5924185 1.428062 5.6640625 1.0761719 C 4.9989985 0.75229589 4.3139342 0.45745423 3.6113281 0.18945312 z M 6.9453125 1.7460938 C 8.3715518 5.1949692 11.001953 11.033312 11.001953 19.160156 C 11.001953 27.267281 6.7539062 28.773437 6.7539062 28.773438 C 6.7539062 28.773438 2.260924 27.299393 1.6367188 20.65625 C 1.5921332 21.430771 1.5625 22.233234 1.5625 23.09375 C 1.5625 31.200874 6.7988281 32 6.7988281 32 C 25.041401 31.302303 21.364192 9.8681448 6.9453125 1.7460938 z "
         style="fill:#870000;fill-opacity:1;stroke:none;stroke-width:0.99490374px;stroke-linecap:butt;stroke-linejoin:miter;stroke-opacity:1" />
      <ellipse
         ry="1.0417968"
         rx="0.57417595"
         cy="289.5751"
         cx="0.95544636"
         id="path901"
         style="opacity:1;fill:#870000;fill-opacity:1;stroke:none;stroke-width:1.0803293;stroke-linecap:round;stroke-linejoin:round;stroke-miterlimit:4;stroke-dasharray:none;stroke-opacity:1;paint-order:markers fill stroke" />
      <path
         inkscape:connector-curvature="0"
         id="path913"
         d="m 1.0998348,288.71884 c -0.27438274,-0.011 -0.5342935,0.35233 -0.53702348,0.85163 -0.001056,0.19279 0.0415072,0.3802 0.11399082,0.51934 0.0724812,0.13913 0.175168,0.22886 0.29384301,0.22738 0.17922705,-0.002 0.34902325,-0.24487 0.34366125,-0.57826 -0.00395,-0.24535 -0.1174727,-0.47856 -0.2731558,-0.46405 -0.11125354,0.0104 -0.21792845,0.16843 -0.20687226,0.38447 a 0.07442573,0.12856038 0 1 0 0.14818808,-0.0222 c -0.002674,-0.0523 0.0315989,-0.10211 0.067128,-0.10542 0.062505,-0.006 0.1138569,0.10114 0.1156795,0.21446 0.00281,0.17464 -0.093685,0.31292 -0.1958953,0.31419 -0.14648897,0.002 -0.25891388,-0.2366 -0.25753482,-0.48834 0.001882,-0.34382 0.18768264,-0.60369 0.38419132,-0.59583 0.2132815,0.009 0.3888716,0.30148 0.4318985,0.65887 a 0.57417592,1.0417968 0 0 0 0.00169,-0.0599 0.57417592,1.0417968 0 0 0 -0.1604316,-0.72192 c -0.080375,-0.0793 -0.1708208,-0.13042 -0.269356,-0.13436 z"
         style="color:#000000;font-style:normal;font-variant:normal;font-weight:normal;font-stretch:normal;font-size:medium;line-height:normal;font-family:sans-serif;font-variant-ligatures:normal;font-variant-position:normal;font-variant-caps:normal;font-variant-numeric:normal;font-variant-alternates:normal;font-feature-settings:normal;text-indent:0;text-align:start;text-decoration:none;text-decoration-line:none;text-decoration-style:solid;text-decoration-color:#000000;letter-spacing:normal;word-spacing:normal;text-transform:none;writing-mode:lr-tb;direction:ltr;text-orientation:mixed;dominant-baseline:auto;baseline-shift:baseline;text-anchor:start;white-space:normal;shape-padding:0;clip-rule:nonzero;display:inline;overflow:visible;visibility:visible;opacity:1;isolation:auto;mix-blend-mode:normal;color-interpolation:sRGB;color-interpolation-filters:linearRGB;solid-color:#000000;solid-opacity:1;vector-effect:none;fill:#a30000;fill-opacity:1;fill-rule:evenodd;stroke:none;stroke-width:0.19561478;stroke-linecap:round;stroke-linejoin:miter;stroke-miterlimit:4;stroke-dasharray:none;stroke-dashoffset:0;stroke-opacity:1;color-rendering:auto;image-rendering:auto;shape-rendering:auto;text-rendering:auto;enable-background:accumulate" />
      <path
         sodipodi:nodetypes="cccscsssc"
         inkscape:connector-curvature="0"
         transform="matrix(0.26458333,0,0,0.26458333,0,288.53332)"
         id="path903"
         d="M 3.6113281,0 V 0.1171875 C 4.2815926,0.35470176 5.4869671,1.1152473 6.15625,3.625 6.9043999,6.4304677 11.001953,13.060918 11.001953,23.160156 11.001953,31.267281 6.7988281,32 6.7988281,32 H 26.333984 C 28.346074,32 32,30.174819 32,22.234183 32,10.605181 25.171875,0 22.357422,0 Z"
         style="fill:#ff0000;fill-opacity:1;stroke:none;stroke-width:0.99490374px;stroke-linecap:butt;stroke-linejoin:miter;stroke-opacity:1" />
      <g
         transform="matrix(0.882647,0,0,1.0670589,1.319716,-18.493865)"
         id="g1003">
        <path
           style="opacity:1;fill:#ffffff;fill-opacity:1;stroke:none;stroke-width:0.08932243;stroke-linecap:round;stroke-linejoin:round;stroke-miterlimit:4;stroke-dasharray:none;stroke-opacity:1;paint-order:markers fill stroke"
           d="m 5.8039804,290.94675 a 0.43066176,0.43066176 0 0 0 -0.6090465,0 0.43066176,0.43066176 0 0 0 -0.021672,0.5856 l -1.0171095,1.01711 a 0.43066176,0.43066176 0 0 0 -0.5853436,0.0214 0.43066176,0.43066176 0 0 0 1.3e-6,0.60905 0.43066176,0.43066176 0 0 0 0.3536899,0.12283 0.43066176,0.43066176 0 0 0 0.1200142,0.37343 0.43066176,0.43066176 0 0 0 0.6090465,0 0.43066176,0.43066176 0 0 0 0.016301,-0.59151 l 1.0164872,-1.01649 a 0.43066176,0.43066176 0 0 0 0.5913366,-0.0161 0.43066176,0.43066176 0 0 0 -1.3e-6,-0.60905 0.43066176,0.43066176 0 0 0 -0.3536899,-0.12283 0.43066176,0.43066176 0 0 0 -0.1200142,-0.37343 z"
           id="path958"
           inkscape:connector-curvature="0" />
        <path
           inkscape:connector-curvature="0"
           style="opacity:1;fill:#cccccc;fill-opacity:1;stroke:none;stroke-width:0.3375966;stroke-linecap:round;stroke-linejoin:round;stroke-miterlimit:4;stroke-dasharray:none;stroke-opacity:1;paint-order:markers fill stroke"
           d="m 20.761719,8.6445312 a 1.627698,1.627698 0 0 0 -0.560547,0.1113282 1.3912029,1.3912029 0 0 1 0.439453,0.296875 1.3912029,1.3912029 0 0 1 0.388672,1.2050776 1.3912029,1.3912029 0 0 1 1.142578,0.398438 1.3912029,1.3912029 0 0 1 0,1.966797 1.3912029,1.3912029 0 0 1 -1.912109,0.05273 l -3.283204,3.283203 a 1.3912029,1.3912029 0 0 1 -0.05273,1.910157 1.3912029,1.3912029 0 0 1 -1.966797,0 1.3912029,1.3912029 0 0 1 -0.388672,-1.205079 1.3912029,1.3912029 0 0 1 -1.142578,-0.398437 1.3912029,1.3912029 0 0 1 -0.296875,-0.441406 1.627698,1.627698 0 0 0 0.367188,1.738281 1.627698,1.627698 0 0 0 1.335937,0.462891 1.627698,1.627698 0 0 0 0.455078,1.412109 1.627698,1.627698 0 0 0 2.300782,0 1.627698,1.627698 0 0 0 0.0625,-2.236328 l 3.841797,-3.841797 a 1.627698,1.627698 0 0 0 2.234374,-0.06055 1.627698,1.627698 0 0 0 0,-2.300781 1.627698,1.627698 0 0 0 -1.335937,-0.464844 1.627698,1.627698 0 0 0 -0.455078,-1.4121092 1.627698,1.627698 0 0 0 -1.173828,-0.4765626 z"
           transform="matrix(0.26458333,0,0,0.26458333,0,288.53332)"
           id="path996" />
      </g>
      <path
         id="path1049"
         transform="matrix(0.26458333,0,0,0.26458333,0,288.53332)"
         d="M 17.671875 0 C 20.486328 0 27.314453 9.6318854 27.314453 20.193359 C 27.314453 27.405076 23.660528 29.0625 21.648438 29.0625 L 9.8984375 29.0625 C 8.653095 31.662094 6.7988281 32 6.7988281 32 L 26.333984 32 C 28.346074 32 32 30.175011 32 22.234375 C 32 10.605373 25.171875 4.7369516e-15 22.357422 0 L 17.671875 0 z "
         style="fill:#e00000;fill-opacity:1;stroke:none;stroke-width:0.99490374px;stroke-linecap:butt;stroke-linejoin:miter;stroke-opacity:1" />
    </g>
  </g>
</svg>
