<?xml version="1.0" encoding="UTF-8" standalone="no"?>
<!-- Created with Inkscape (http://www.inkscape.org/) -->

<svg
   xmlns:dc="http://purl.org/dc/elements/1.1/"
   xmlns:cc="http://creativecommons.org/ns#"
   xmlns:rdf="http://www.w3.org/1999/02/22-rdf-syntax-ns#"
   xmlns:svg="http://www.w3.org/2000/svg"
   xmlns="http://www.w3.org/2000/svg"
   xmlns:sodipodi="http://sodipodi.sourceforge.net/DTD/sodipodi-0.dtd"
   xmlns:inkscape="http://www.inkscape.org/namespaces/inkscape"
   width="32"
   height="32"
   viewBox="0 0 8.4666659 8.4666659"
   version="1.1"
   id="svg8"
   inkscape:version="0.92.4 (5da689c313, 2019-01-14)"
   sodipodi:docname="generic_garbage.svg">
  <defs
     id="defs2" />
  <sodipodi:namedview
     id="base"
     pagecolor="#ffffff"
     bordercolor="#666666"
     borderopacity="1.0"
     inkscape:pageopacity="0.0"
     inkscape:pageshadow="2"
     inkscape:zoom="15.839192"
     inkscape:cx="4.4869438"
     inkscape:cy="18.731968"
     inkscape:document-units="mm"
     inkscape:current-layer="layer1"
     showgrid="false"
     inkscape:snap-bbox="false"
     inkscape:bbox-paths="true"
     inkscape:bbox-nodes="true"
     inkscape:snap-bbox-edge-midpoints="true"
     inkscape:snap-bbox-midpoints="true"
     inkscape:object-paths="true"
     inkscape:object-nodes="true"
     inkscape:snap-intersection-paths="true"
     inkscape:snap-smooth-nodes="true"
     inkscape:snap-midpoints="true"
     inkscape:snap-nodes="false"
     units="px"
     inkscape:snap-object-midpoints="true"
     inkscape:snap-center="true"
     inkscape:window-width="1920"
     inkscape:window-height="1001"
     inkscape:window-x="-9"
     inkscape:window-y="-9"
     inkscape:window-maximized="1" />
  <metadata
     id="metadata5">
    <rdf:RDF>
      <cc:Work
         rdf:about="">
        <dc:format>image/svg+xml</dc:format>
        <dc:type
           rdf:resource="http://purl.org/dc/dcmitype/StillImage" />
        <dc:title />
      </cc:Work>
    </rdf:RDF>
  </metadata>
  <g
     inkscape:label="Layer 1"
     inkscape:groupmode="layer"
     id="layer1"
     transform="translate(0,-288.53334)">
    <path
       style="opacity:1;fill:#225500;fill-opacity:1;stroke:none;stroke-width:1.22806513;stroke-linecap:round;stroke-linejoin:round;stroke-miterlimit:4;stroke-dasharray:none;stroke-opacity:1;paint-order:markers fill stroke"
       d="m 8.4666191,293.84723 c 0,3.31101 -1.8919072,3.15154 -4.2256937,3.15154 -2.3337865,0 -4.4413569,-0.0178 -4.22569395,-3.15154 0.09186307,-1.33484 1.39003525,-2.16904 2.11070125,-2.48122 0.7126812,-0.30871 1.7779075,-1.2075 2.1149927,-2.29384 2.222775,0.64908 4.2256937,2.58619 4.2256937,4.77506 z"
       id="path842"
       inkscape:connector-curvature="0"
       sodipodi:nodetypes="sssscs" />
    <path
       style="fill:#225500;stroke:none;stroke-width:0.06181536px;stroke-linecap:butt;stroke-linejoin:miter;stroke-opacity:1"
       d="m 4.2409254,289.07217 c -0.9553565,-0.33416 -2.091879,-0.56042 -2.9906474,-0.5372 0.3657503,0.0199 0.6192238,0.43374 0.4542108,0.88339 0.3453366,0.0557 0.5681892,0.5173 0.4542111,0.88339 0.5613843,-0.68443 1.3371159,-1.08235 2.0822255,-1.22958 z"
       id="path845"
       inkscape:connector-curvature="0"
       sodipodi:nodetypes="ccccc" />
    <path
       inkscape:connector-curvature="0"
       style="fill:#112b00;fill-opacity:1;stroke:none;stroke-width:0.06181536px;stroke-linecap:butt;stroke-linejoin:miter;stroke-opacity:1"
       d="m 3.5518756,288.85909 c -0.5239933,0.13956 -1.0503792,0.40347 -1.4956266,0.80443 0.1202474,0.17903 0.1689841,0.42463 0.102484,0.63822 0.5613845,-0.68443 1.3370684,-1.08233 2.0821783,-1.22956 -0.221602,-0.0775 -0.4531673,-0.14896 -0.6890357,-0.21309 z"
       id="path870" />
    <ellipse
       style="opacity:1;fill:#225500;fill-opacity:1;stroke:none;stroke-width:1.21065009;stroke-linecap:round;stroke-linejoin:round;stroke-miterlimit:4;stroke-dasharray:none;stroke-opacity:1;paint-order:markers fill stroke"
       id="path847"
       cx="4.0223541"
       cy="289.11853"
       rx="0.36457255"
       ry="0.36451629" />
    <path
       inkscape:connector-curvature="0"
       style="opacity:1;fill:#112b00;fill-opacity:1;stroke:none;stroke-width:1.21065009;stroke-linecap:round;stroke-linejoin:round;stroke-miterlimit:4;stroke-dasharray:none;stroke-opacity:1;paint-order:markers fill stroke"
       d="m 4.2118165,288.80765 a 0.36457255,0.36451632 0 0 1 0.053207,0.18911 0.36457255,0.36451632 0 0 1 -0.3645894,0.36454 0.36457255,0.36451632 0 0 1 -0.1893776,-0.0535 0.36457255,0.36451632 0 0 0 0.3112646,0.17542 0.36457255,0.36451632 0 0 0 0.3645895,-0.36453 0.36457255,0.36451632 0 0 0 -0.1750937,-0.31098 z"
       id="circle849" />
    <path
       style="fill:#112b00;fill-opacity:1;stroke:none;stroke-width:0.06181536px;stroke-linecap:butt;stroke-linejoin:miter;stroke-opacity:1"
       d="m 3.2217458,296.82818 c -1.1806328,-0.69115 -1.412316,-2.15104 -1.3068683,-3.39131 -0.4116406,0.92631 -0.4861501,2.53782 0.2453921,3.30895 z"
       id="path859"
       inkscape:connector-curvature="0"
       sodipodi:nodetypes="cccc" />
    <path
       style="fill:#112b00;fill-opacity:1;stroke:none;stroke-width:0.06181536px;stroke-linecap:butt;stroke-linejoin:miter;stroke-opacity:1"
       d="m 4.6398418,296.8113 c 1.0804557,-0.26737 1.6811829,-1.00235 2.0930549,-2.54925 0.2101368,1.06633 0.1102597,2.082 -0.5485247,2.44795 z"
       id="path861"
       inkscape:connector-curvature="0"
       sodipodi:nodetypes="cccc" />
    <path
       style="fill:#112b00;fill-opacity:1;stroke:none;stroke-width:0.06181536px;stroke-linecap:butt;stroke-linejoin:miter;stroke-opacity:1"
       d="m 3.6438362,296.79442 c 0.3343955,-0.19457 0.8205704,-0.60895 0.9099979,-1.28102 0.1473658,0.46845 0.3402134,0.94883 0.028266,1.2979 z"
       id="path863"
       inkscape:connector-curvature="0"
       sodipodi:nodetypes="cccc" />
    <path
       inkscape:connector-curvature="0"
       style="opacity:1;fill:#112b00;fill-opacity:1;stroke:none;stroke-width:1.22806513;stroke-linecap:round;stroke-linejoin:round;stroke-miterlimit:4;stroke-dasharray:none;stroke-opacity:1;paint-order:markers fill stroke"
       d="m 5.2447687,289.4597 c 1.3379457,0.93017 2.3073539,2.33024 2.3073539,3.85268 0,3.31101 -1.891971,3.15152 -4.2257575,3.15152 -0.9910926,0 -1.9406014,-0.004 -2.68949416,-0.24782 0.76891156,0.77562 2.14204616,0.78263 3.60404036,0.78263 2.3337866,0 4.2257575,0.15949 4.2257575,-3.15153 0,-1.85207 -1.4341119,-3.52364 -3.2219001,-4.38748 z"
       id="path865" />
  </g>
</svg>
