<?xml version="1.0" encoding="UTF-8" standalone="no"?>
<!-- Created with Inkscape (http://www.inkscape.org/) -->

<svg
   xmlns:dc="http://purl.org/dc/elements/1.1/"
   xmlns:cc="http://creativecommons.org/ns#"
   xmlns:rdf="http://www.w3.org/1999/02/22-rdf-syntax-ns#"
   xmlns:svg="http://www.w3.org/2000/svg"
   xmlns="http://www.w3.org/2000/svg"
   xmlns:sodipodi="http://sodipodi.sourceforge.net/DTD/sodipodi-0.dtd"
   xmlns:inkscape="http://www.inkscape.org/namespaces/inkscape"
   width="32"
   height="32"
   viewBox="0 0 8.4666665 8.4666669"
   version="1.1"
   id="svg8"
   inkscape:version="0.92.4 (5da689c313, 2019-01-14)"
   sodipodi:docname="gravel.svg">
  <defs
     id="defs2" />
  <sodipodi:namedview
     id="base"
     pagecolor="#ffffff"
     bordercolor="#666666"
     borderopacity="1.0"
     inkscape:pageopacity="0.0"
     inkscape:pageshadow="2"
     inkscape:zoom="16"
     inkscape:cx="28.051422"
     inkscape:cy="7.7543353"
     inkscape:document-units="px"
     inkscape:current-layer="layer1"
     showgrid="false"
     units="px"
     inkscape:snap-page="true"
     inkscape:snap-bbox="false"
     inkscape:bbox-paths="true"
     inkscape:bbox-nodes="true"
     inkscape:snap-bbox-edge-midpoints="true"
     inkscape:snap-bbox-midpoints="true"
     inkscape:snap-intersection-paths="true"
     inkscape:object-paths="true"
     inkscape:snap-smooth-nodes="true"
     inkscape:snap-midpoints="true"
     inkscape:snap-nodes="false"
     inkscape:snap-object-midpoints="true"
     inkscape:window-width="1920"
     inkscape:window-height="1001"
     inkscape:window-x="-9"
     inkscape:window-y="-9"
     inkscape:window-maximized="1"
     inkscape:snap-others="false" />
  <metadata
     id="metadata5">
    <rdf:RDF>
      <cc:Work
         rdf:about="">
        <dc:format>image/svg+xml</dc:format>
        <dc:type
           rdf:resource="http://purl.org/dc/dcmitype/StillImage" />
        <dc:title></dc:title>
      </cc:Work>
    </rdf:RDF>
  </metadata>
  <g
     inkscape:label="Layer 1"
     inkscape:groupmode="layer"
     id="layer1"
     transform="translate(0,-288.53332)">
    <g
       id="g3287"
       transform="matrix(1,0,0,1.1299434,0,-38.593194)">
      <path
         sodipodi:nodetypes="cccccccccccccccccccc"
         inkscape:connector-curvature="0"
         id="path3191"
         d="M 0.72760412,296.99999 H 7.904427 l 0.5622397,-0.69483 -0.4134115,-1.04224 -0.6449219,-0.469 L 7.0776042,294.06435 6.35,293.57797 l -0.1488281,-0.7122 -0.9095053,-0.50375 -0.3803385,-0.83379 -0.6779948,-0.38215 -0.5291667,0.64054 -0.6945312,0.102 -0.7110677,1.42223 -0.4630208,0.22364 -0.2480469,0.8143 -0.6779948,0.46684 -0.38033854,0.81426 L 0,296.35728 Z"
         style="fill:#a5855b;fill-opacity:1;stroke:none;stroke-width:0.27117467px;stroke-linecap:butt;stroke-linejoin:miter;stroke-opacity:1" />
      <path
         inkscape:connector-curvature="0"
         id="path3262"
         d="m 4.2333333,291.14608 -0.1338419,0.16176 0.1105874,0.3257 0.7637777,0.56781 0.1250569,0.80339 0.6108155,0.5488 0.2780191,0.82294 0.541569,0.52926 0.3472657,1.17523 -0.4723226,0.78385 H 0.57464192 l 0.15296224,0.13517 H 7.904427 l 0.5622396,-0.69483 -0.4134115,-1.04224 -0.6449219,-0.469 -0.3307291,-0.72957 -0.7276042,-0.48638 -0.1488281,-0.7122 -0.9095052,-0.50375 -0.3803385,-0.83378 z"
         style="fill:#806a4c;fill-opacity:1;stroke:none;stroke-width:0.27117467px;stroke-linecap:butt;stroke-linejoin:miter;stroke-opacity:1" />
      <path
         sodipodi:nodetypes="ccccc"
         inkscape:connector-curvature="0"
         id="path3277"
         d="m 3.9734008,291.76475 -0.153479,0.89133 0.2480477,0.22583 0.1581298,-0.91793 z"
         style="opacity:1;fill:#806a4c;fill-opacity:1;stroke:none;stroke-width:0.25337201;stroke-linecap:round;stroke-linejoin:round;stroke-miterlimit:4;stroke-dasharray:none;stroke-opacity:1;paint-order:markers fill stroke" />
      <path
         inkscape:connector-curvature="0"
         id="path3275"
         d="m 3.5036622,293.47158 -0.5436362,0.56128 -0.4940267,-0.17804 -0.098185,0.1015 0.8402588,0.30236 0.6418212,-0.6628 z"
         style="opacity:1;fill:#806a4c;fill-opacity:1;stroke:none;stroke-width:0.25337201;stroke-linecap:round;stroke-linejoin:round;stroke-miterlimit:4;stroke-dasharray:none;stroke-opacity:1;paint-order:markers fill stroke" />
      <path
         inkscape:connector-curvature="0"
         id="path3273"
         d="m 5.8249674,293.51259 -0.076998,0.0233 0.3178101,0.46305 -0.6681761,0.2003 0.1710489,0.24916 0.7451741,-0.22365 z"
         style="opacity:1;fill:#806a4c;fill-opacity:1;stroke:none;stroke-width:0.25337201;stroke-linecap:round;stroke-linejoin:round;stroke-miterlimit:4;stroke-dasharray:none;stroke-opacity:1;paint-order:markers fill stroke" />
      <path
         inkscape:connector-curvature="0"
         id="path3271"
         d="m 4.9617275,295.06939 -0.6128824,0.63294 -0.5849773,-0.21061 -0.098185,0.10151 0.9312093,0.33492 0.7110677,-0.73445 z"
         style="opacity:1;fill:#806a4c;fill-opacity:1;stroke:none;stroke-width:0.25337201;stroke-linecap:round;stroke-linejoin:round;stroke-miterlimit:4;stroke-dasharray:none;stroke-opacity:1;paint-order:markers fill stroke" />
      <path
         inkscape:connector-curvature="0"
         id="path3269"
         d="m 2.080534,295.21902 0.2149739,0.68994 -0.7027994,-0.1102 0.060978,0.19651 0.8898681,0.13951 -0.2759521,-0.88645 z"
         style="opacity:1;fill:#806a4c;fill-opacity:1;stroke:none;stroke-width:0.25337201;stroke-linecap:round;stroke-linejoin:round;stroke-miterlimit:4;stroke-dasharray:none;stroke-opacity:1;paint-order:markers fill stroke" />
      <path
         inkscape:connector-curvature="0"
         id="path3258"
         d="m 6.6814892,295.31423 -0.4051432,0.41853 -0.3126425,-0.11237 -0.098185,0.10096 0.6588744,0.23722 0.5033285,-0.51949 z"
         style="opacity:1;fill:#806a4c;fill-opacity:1;stroke:none;stroke-width:0.25337201;stroke-linecap:round;stroke-linejoin:round;stroke-miterlimit:4;stroke-dasharray:none;stroke-opacity:1;paint-order:markers fill stroke" />
    </g>
  </g>
</svg>
