<?xml version="1.0" encoding="UTF-8" standalone="no"?>
<!-- Created with Inkscape (http://www.inkscape.org/) -->

<svg
   xmlns:dc="http://purl.org/dc/elements/1.1/"
   xmlns:cc="http://creativecommons.org/ns#"
   xmlns:rdf="http://www.w3.org/1999/02/22-rdf-syntax-ns#"
   xmlns:svg="http://www.w3.org/2000/svg"
   xmlns="http://www.w3.org/2000/svg"
   xmlns:sodipodi="http://sodipodi.sourceforge.net/DTD/sodipodi-0.dtd"
   xmlns:inkscape="http://www.inkscape.org/namespaces/inkscape"
   width="32"
   height="32"
   viewBox="0 0 8.4666665 8.4666669"
   version="1.1"
   id="svg8"
   inkscape:version="0.92.4 (5da689c313, 2019-01-14)"
   sodipodi:docname="growth_hormones.svg">
  <defs
     id="defs2" />
  <sodipodi:namedview
     id="base"
     pagecolor="#ffffff"
     bordercolor="#666666"
     borderopacity="1.0"
     inkscape:pageopacity="0.0"
     inkscape:pageshadow="2"
     inkscape:zoom="22.627417"
     inkscape:cx="10.680955"
     inkscape:cy="22.120835"
     inkscape:document-units="px"
     inkscape:current-layer="layer1"
     showgrid="false"
     units="px"
     inkscape:snap-page="true"
     inkscape:snap-bbox="false"
     inkscape:bbox-paths="true"
     inkscape:bbox-nodes="true"
     inkscape:snap-bbox-edge-midpoints="true"
     inkscape:snap-bbox-midpoints="true"
     inkscape:snap-intersection-paths="true"
     inkscape:object-paths="true"
     inkscape:snap-smooth-nodes="true"
     inkscape:snap-midpoints="true"
     inkscape:snap-nodes="false"
     inkscape:snap-object-midpoints="true"
     inkscape:window-width="1920"
     inkscape:window-height="1001"
     inkscape:window-x="-9"
     inkscape:window-y="-9"
     inkscape:window-maximized="1"
     inkscape:snap-others="false" />
  <metadata
     id="metadata5">
    <rdf:RDF>
      <cc:Work
         rdf:about="">
        <dc:format>image/svg+xml</dc:format>
        <dc:type
           rdf:resource="http://purl.org/dc/dcmitype/StillImage" />
        <dc:title></dc:title>
      </cc:Work>
    </rdf:RDF>
  </metadata>
  <g
     inkscape:label="Layer 1"
     inkscape:groupmode="layer"
     id="layer1"
     transform="translate(0,-288.53332)">
    <path
       style="opacity:1;fill:#666666;fill-opacity:1;stroke:none;stroke-width:2.46774006;stroke-linecap:round;stroke-linejoin:round;stroke-miterlimit:4;stroke-dasharray:none;stroke-opacity:1;paint-order:markers fill stroke"
       d="m 6.4039907,290.96754 -0.2434205,-0.24343 2.1907885,-2.19079 -0.1439539,0.6308 z"
       id="rect908"
       inkscape:connector-curvature="0"
       sodipodi:nodetypes="ccccc" />
    <path
       style="opacity:1;fill:#333333;fill-opacity:1;stroke:none;stroke-width:9.3268919;stroke-linecap:round;stroke-linejoin:round;stroke-miterlimit:4;stroke-dasharray:none;stroke-opacity:1;paint-order:markers fill stroke"
       d="M 31.265625 1.3125 L 23.791016 8.7871094 L 24.203125 9.2011719 L 31.019531 2.3847656 L 31.265625 1.3125 z "
       transform="matrix(0.26458333,0,0,0.26458333,0,288.53332)"
       id="path931" />
    <rect
       style="opacity:1;fill:#c6c6c6;fill-opacity:1;stroke:none;stroke-width:0.99076062;stroke-linecap:round;stroke-linejoin:round;stroke-miterlimit:4;stroke-dasharray:none;stroke-opacity:1;paint-order:markers fill stroke"
       id="rect824-3"
       width="1.1405327"
       height="0.97578913"
       x="-210.66251"
       y="-202.07478"
       ry="0.19843751"
       rx="0.19843751"
       transform="rotate(-135)" />
    <rect
       style="opacity:1;fill:#00a2bf;fill-opacity:1;stroke:none;stroke-width:1.85752475;stroke-linecap:round;stroke-linejoin:round;stroke-miterlimit:4;stroke-dasharray:none;stroke-opacity:1;paint-order:markers fill stroke"
       id="rect820"
       width="1.8628701"
       height="4.5241132"
       x="-211.02368"
       y="-206.02228"
       ry="0.36380205"
       rx="0.36380205"
       transform="rotate(-135)" />
    <path
       style="opacity:1;fill:#b4b4b4;fill-opacity:1;stroke:none;stroke-width:7.71325493;stroke-linecap:round;stroke-linejoin:round;stroke-miterlimit:4;stroke-dasharray:none;stroke-opacity:1;paint-order:markers fill stroke"
       d="M 10.695312 20.017578 C 10.503598 20.017578 10.310964 20.09138 10.164062 20.238281 L 5.1367188 25.265625 A 3.479543 3.479543 0 0 0 1.4550781 26.060547 A 3.479543 3.479543 0 0 0 1.4550781 30.980469 A 3.479543 3.479543 0 0 0 6.375 30.980469 A 3.479543 3.479543 0 0 0 7.1699219 27.298828 L 12.197266 22.271484 C 12.491069 21.977681 12.491069 21.50474 12.197266 21.210938 L 11.224609 20.238281 C 11.077708 20.09138 10.887027 20.017578 10.695312 20.017578 z M 3.9453125 26.478516 A 2.0413317 2.0413317 0 0 1 5.359375 27.076172 A 2.0413317 2.0413317 0 0 1 5.359375 29.964844 A 2.0413317 2.0413317 0 0 1 2.4726562 29.964844 A 2.0413317 2.0413317 0 0 1 2.4726562 27.076172 A 2.0413317 2.0413317 0 0 1 3.9453125 26.478516 z "
       id="rect891"
       transform="matrix(0.26458333,0,0,0.26458333,0,288.53332)" />
    <path
       style="opacity:1;fill:#9f9f9f;fill-opacity:1;stroke:none;stroke-width:7.71325493;stroke-linecap:round;stroke-linejoin:round;stroke-miterlimit:4;stroke-dasharray:none;stroke-opacity:1;paint-order:markers fill stroke"
       d="M 10.695312 20.017578 C 10.538044 20.017578 10.38666 20.080747 10.253906 20.179688 L 11.148438 21.074219 C 11.423848 21.349671 11.423848 21.79321 11.148438 22.068359 L 6.4355469 26.78125 A 3.261728 3.261728 0 0 1 5.6914062 30.232422 A 3.261728 3.261728 0 0 1 1.078125 30.232422 A 3.261728 3.261728 0 0 1 0.63476562 29.671875 A 3.4795429 3.4795429 0 0 0 1.4550781 30.980469 A 3.4795429 3.4795429 0 0 0 6.375 30.980469 A 3.4795429 3.4795429 0 0 0 7.1699219 27.298828 L 12.197266 22.271484 C 12.491069 21.977681 12.491069 21.504739 12.197266 21.210938 L 11.224609 20.238281 C 11.077708 20.09138 10.887027 20.017578 10.695312 20.017578 z M 3.4140625 26.011719 A 1.9135469 1.9135469 0 0 0 2.0332031 26.572266 A 1.9135469 1.9135469 0 0 0 2.0117188 29.255859 A 2.0413317 2.0413317 0 0 1 2.4726562 27.076172 A 2.0413317 2.0413317 0 0 1 3.9453125 26.478516 A 2.0413317 2.0413317 0 0 1 4.8710938 26.716797 A 1.9135469 1.9135469 0 0 0 4.7382812 26.572266 A 1.9135469 1.9135469 0 0 0 3.4140625 26.011719 z "
       transform="matrix(0.26458333,0,0,0.26458333,0,288.53332)"
       id="path918" />
    <rect
       rx="0.13229166"
       ry="0.13229166"
       y="-204.65364"
       x="-210.76389"
       height="0.20276138"
       width="0.83639061"
       id="rect830"
       style="opacity:1;fill:#ffffff;fill-opacity:1;stroke:none;stroke-width:1.70279014;stroke-linecap:round;stroke-linejoin:round;stroke-miterlimit:4;stroke-dasharray:none;stroke-opacity:1;paint-order:markers fill stroke"
       transform="rotate(-135)" />
    <path
       style="opacity:1;fill:#03d9ff;fill-opacity:1;stroke:none;stroke-width:1.70279014;stroke-linecap:round;stroke-linejoin:round;stroke-miterlimit:4;stroke-dasharray:none;stroke-opacity:1;paint-order:markers fill stroke"
       d="m 3.1018844,293.2607 a 0.13939845,0.13939845 0 0 0 0.1971332,0 0.13939845,0.13939845 0 0 0 1.7e-6,-0.19714 0.13939845,0.13939845 0 0 0 -0.1971409,0 0.13939845,0.13939845 0 0 0 6e-6,0.19714 z m 0.7258079,0.58247 a 0.17741621,0.17741621 0 0 0 0.2508995,0 0.17741621,0.17741621 0 0 0 2.9e-6,-0.2509 0.17741621,0.17741621 0 0 0 -0.2509072,1e-5 0.17741621,0.17741621 0 0 0 4.8e-6,0.25089 z m 0.842318,-0.39427 a 0.11405328,0.11405328 0 0 0 0.1612914,0 0.11405328,0.11405328 0 0 0 3.5e-6,-0.16129 0.11405328,0.11405328 0 0 0 -0.1612992,0 0.11405328,0.11405328 0 0 0 4.3e-6,0.16129 z m -0.7840764,-1.01706 a 0.22177026,0.22177026 0 0 0 0.3136322,0 0.22177026,0.22177026 0 0 0 1.7e-6,-0.31363 0.22177026,0.22177026 0 0 0 -0.3136322,0 0.22177026,0.22177026 0 0 0 -1.7e-6,0.31363 z m 0.9940959,0.20554 a 0.07603551,0.07603551 0 0 0 0.1036122,-0.004 0.07603551,0.07603551 0 0 0 2.3e-6,-0.10748 0.07603551,0.07603551 0 0 0 -0.1075325,0 0.07603551,0.07603551 0 0 0 -2.3e-6,0.10748 0.07603551,0.07603551 0 0 0 0.00392,0.004 z m -0.1383391,-0.71182 a 0.08870811,0.08870811 0 0 0 0.1254032,4e-5 0.08870811,0.08870811 0 0 0 -4.88e-5,-0.12539 0.08870811,0.08870811 0 0 0 -0.1254032,-6e-5 0.08870811,0.08870811 0 0 0 4.88e-5,0.12541 z m 0.7885078,0.66315 a 0.11405328,0.11405328 0 0 0 0.1612992,0 0.11405328,0.11405328 0 0 0 -1.2e-5,-0.16128 0.11405328,0.11405328 0 0 0 -0.1612837,-1e-5 0.11405328,0.11405328 0 0 0 -3.5e-6,0.16129 z m -0.6407067,-1.26795 a 0.13306215,0.13306215 0 0 0 0.1881823,-2e-5 0.13306215,0.13306215 0 0 0 -3.6e-6,-0.18816 0.13306215,0.13306215 0 0 0 -0.1881747,-2e-5 0.13306215,0.13306215 0 0 0 -4e-6,0.1882 z m 0.609288,0.59147 a 0.14573474,0.14573474 0 0 0 0.2060993,0 0.14573474,0.14573474 0 0 0 7.1e-6,-0.20612 0.14573474,0.14573474 0 0 0 -0.2061071,10e-6 0.14573474,0.14573474 0 0 0 7e-7,0.20611 z m 0.6317483,-0.15684 a 0.10138068,0.10138068 0 0 0 0.143351,4e-5 0.10138068,0.10138068 0 0 0 -2.24e-5,-0.14336 0.10138068,0.10138068 0 0 0 -0.1433511,-2e-5 0.10138068,0.10138068 0 0 0 2.25e-5,0.14334 z m -0.4390828,-0.67205 a 0.08870811,0.08870811 0 0 0 0.1254032,4e-5 0.08870811,0.08870811 0 0 0 -4.88e-5,-0.1254 0.08870811,0.08870811 0 0 0 -0.1254031,-5e-5 0.08870811,0.08870811 0 0 0 4.87e-5,0.12541 z"
       id="path844"
       inkscape:connector-curvature="0" />
    <path
       style="opacity:0.597;fill:#0c788a;fill-opacity:1;stroke:none;stroke-width:7.02056599;stroke-linecap:round;stroke-linejoin:round;stroke-miterlimit:4;stroke-dasharray:none;stroke-opacity:1;paint-order:markers fill stroke"
       d="M 20.478516 7.546875 C 20.324329 7.546875 20.170689 7.5770774 20.023438 7.6289062 L 22.451172 10.056641 C 22.98981 10.595279 22.98981 11.463315 22.451172 12.001953 L 12.306641 22.148438 C 12.155493 22.299585 11.975488 22.40243 11.787109 22.46875 L 12.394531 23.076172 C 12.93317 23.61481 13.799252 23.61481 14.337891 23.076172 L 24.484375 12.929688 C 25.023014 12.391049 25.023014 11.523014 24.484375 10.984375 L 21.451172 7.9511719 C 21.181853 7.6818526 20.829992 7.546875 20.478516 7.546875 z "
       transform="matrix(0.26458333,0,0,0.26458333,0,288.53332)"
       id="rect924" />
    <rect
       rx="0.13229166"
       ry="0.13229166"
       y="-203.84261"
       x="-210.76389"
       height="0.20276138"
       width="0.83639061"
       id="rect834"
       style="opacity:1;fill:#ffffff;fill-opacity:1;stroke:none;stroke-width:1.70279014;stroke-linecap:round;stroke-linejoin:round;stroke-miterlimit:4;stroke-dasharray:none;stroke-opacity:1;paint-order:markers fill stroke"
       transform="rotate(-135)" />
    <rect
       rx="0.13229166"
       ry="0.13229166"
       y="-203.03152"
       x="-210.76389"
       height="0.20276138"
       width="0.83639061"
       id="rect838"
       style="opacity:1;fill:#ffffff;fill-opacity:1;stroke:none;stroke-width:1.70279014;stroke-linecap:round;stroke-linejoin:round;stroke-miterlimit:4;stroke-dasharray:none;stroke-opacity:1;paint-order:markers fill stroke"
       transform="rotate(-135)" />
    <rect
       rx="0.13229166"
       ry="0.13229166"
       y="-202.22047"
       x="-210.76389"
       height="0.20276138"
       width="0.83639061"
       id="rect842"
       style="opacity:1;fill:#ffffff;fill-opacity:1;stroke:none;stroke-width:1.70279014;stroke-linecap:round;stroke-linejoin:round;stroke-miterlimit:4;stroke-dasharray:none;stroke-opacity:1;paint-order:markers fill stroke"
       transform="rotate(-135)" />
    <path
       style="opacity:1;fill:#c6c6c6;fill-opacity:1;stroke:none;stroke-width:5.32760286;stroke-linecap:round;stroke-linejoin:round;stroke-miterlimit:4;stroke-dasharray:none;stroke-opacity:1;paint-order:markers fill stroke"
       d="M 6.9257812 12.238281 A 3.479543 3.479543 0 0 0 4.515625 13.255859 A 3.479543 3.479543 0 0 0 4.515625 18.177734 A 3.479543 3.479543 0 0 0 7.984375 19.044922 C 7.9946726 19.056499 7.9986625 19.070928 8.0097656 19.082031 L 13.353516 24.425781 C 13.370237 24.442503 13.392381 24.447996 13.410156 24.462891 A 3.479543 3.479543 0 0 0 14.291016 27.886719 A 3.479543 3.479543 0 0 0 19.212891 27.886719 A 3.479543 3.479543 0 0 0 19.212891 22.966797 A 3.479543 3.479543 0 0 0 15.927734 22.050781 C 15.900496 22.010902 15.883106 21.96709 15.847656 21.931641 L 10.503906 16.587891 C 10.462169 16.546154 10.411016 16.524495 10.363281 16.494141 A 3.479543 3.479543 0 0 0 9.4355469 13.255859 A 3.479543 3.479543 0 0 0 6.9257812 12.238281 z M 7.0058594 13.675781 A 2.0413318 2.0413318 0 0 1 8.4199219 14.273438 A 2.0413318 2.0413318 0 0 1 8.4199219 17.160156 A 2.0413318 2.0413318 0 0 1 5.5332031 17.160156 A 2.0413318 2.0413318 0 0 1 5.5332031 14.273438 A 2.0413318 2.0413318 0 0 1 7.0058594 13.675781 z M 16.78125 23.386719 A 2.0413318 2.0413318 0 0 1 18.195312 23.984375 A 2.0413318 2.0413318 0 0 1 18.195312 26.871094 A 2.0413318 2.0413318 0 0 1 15.308594 26.871094 A 2.0413318 2.0413318 0 0 1 15.308594 23.984375 A 2.0413318 2.0413318 0 0 1 16.78125 23.386719 z "
       transform="matrix(0.26458333,0,0,0.26458333,0,288.53332)"
       id="rect824" />
    <path
       style="opacity:1;fill:#ababab;fill-opacity:1;stroke:none;stroke-width:5.32760286;stroke-linecap:round;stroke-linejoin:round;stroke-miterlimit:4;stroke-dasharray:none;stroke-opacity:1;paint-order:markers fill stroke"
       d="M 9.2480469 13.085938 A 3.4264671 3.4264671 0 0 1 9.8203125 15.873047 C 9.8673223 15.903661 9.917882 15.923647 9.9589844 15.964844 L 10.382812 16.388672 A 3.4795429 3.4795429 0 0 0 9.4355469 13.255859 A 3.4795429 3.4795429 0 0 0 9.2480469 13.085938 z M 6.515625 13.095703 A 2.0101939 2.0101939 0 0 0 5.0644531 13.683594 A 2.0101939 2.0101939 0 0 0 5.0644531 16.527344 A 2.0101939 2.0101939 0 0 0 5.1367188 16.59375 A 2.0413318 2.0413318 0 0 1 5.5332031 14.273438 A 2.0413318 2.0413318 0 0 1 7.0058594 13.675781 A 2.0413318 2.0413318 0 0 1 8.2285156 14.107422 A 2.0101939 2.0101939 0 0 0 7.9082031 13.683594 A 2.0101939 2.0101939 0 0 0 6.515625 13.095703 z M 3.9160156 17.371094 A 3.4795429 3.4795429 0 0 0 4.515625 18.177734 A 3.4795429 3.4795429 0 0 0 7.984375 19.044922 C 7.9946726 19.056499 7.9986625 19.070928 8.0097656 19.082031 L 12.789062 23.861328 A 3.4264671 3.4264671 0 0 1 12.822266 23.720703 C 12.804759 23.709365 12.782104 23.702491 12.765625 23.683594 L 7.5039062 18.419922 C 7.4929456 18.412363 7.4886826 18.394151 7.4785156 18.382812 A 3.4264671 3.4264671 0 0 1 4.0625 17.529297 A 3.4264671 3.4264671 0 0 1 3.9160156 17.371094 z M 16.140625 22.658203 A 2.0101939 2.0101939 0 0 0 14.691406 23.246094 A 2.0101939 2.0101939 0 0 0 14.691406 26.089844 A 2.0101939 2.0101939 0 0 0 14.892578 26.261719 A 2.0413318 2.0413318 0 0 1 15.308594 23.984375 A 2.0413318 2.0413318 0 0 1 16.78125 23.386719 A 2.0413318 2.0413318 0 0 1 17.894531 23.738281 A 2.0101939 2.0101939 0 0 0 17.533203 23.246094 A 2.0101939 2.0101939 0 0 0 16.140625 22.658203 z M 18.923828 22.710938 A 3.4264671 3.4264671 0 0 1 18.535156 27.091797 A 3.4264671 3.4264671 0 0 1 13.710938 27.111328 A 3.4795429 3.4795429 0 0 0 14.291016 27.886719 A 3.4795429 3.4795429 0 0 0 19.212891 27.886719 A 3.4795429 3.4795429 0 0 0 19.212891 22.966797 A 3.4795429 3.4795429 0 0 0 18.923828 22.710938 z "
       transform="matrix(0.26458333,0,0,0.26458333,0,288.53332)"
       id="path913" />
  </g>
</svg>
