<?xml version="1.0" encoding="UTF-8" standalone="no"?>
<!-- Created with Inkscape (http://www.inkscape.org/) -->

<svg
   xmlns:dc="http://purl.org/dc/elements/1.1/"
   xmlns:cc="http://creativecommons.org/ns#"
   xmlns:rdf="http://www.w3.org/1999/02/22-rdf-syntax-ns#"
   xmlns:svg="http://www.w3.org/2000/svg"
   xmlns="http://www.w3.org/2000/svg"
   xmlns:sodipodi="http://sodipodi.sourceforge.net/DTD/sodipodi-0.dtd"
   xmlns:inkscape="http://www.inkscape.org/namespaces/inkscape"
   width="32"
   height="32"
   viewBox="0 0 8.4666665 8.4666669"
   version="1.1"
   id="svg8"
   inkscape:version="0.92.4 (5da689c313, 2019-01-14)"
   sodipodi:docname="mixed_recycling.svg">
  <defs
     id="defs2" />
  <sodipodi:namedview
     id="base"
     pagecolor="#ffffff"
     bordercolor="#666666"
     borderopacity="1.0"
     inkscape:pageopacity="0.0"
     inkscape:pageshadow="2"
     inkscape:zoom="32"
     inkscape:cx="15.064165"
     inkscape:cy="25.582873"
     inkscape:document-units="px"
     inkscape:current-layer="layer1"
     showgrid="false"
     units="px"
     inkscape:snap-page="true"
     inkscape:snap-bbox="false"
     inkscape:bbox-paths="true"
     inkscape:bbox-nodes="true"
     inkscape:snap-bbox-edge-midpoints="true"
     inkscape:snap-bbox-midpoints="true"
     inkscape:snap-intersection-paths="true"
     inkscape:object-paths="true"
     inkscape:snap-smooth-nodes="true"
     inkscape:snap-midpoints="true"
     inkscape:snap-nodes="false"
     inkscape:snap-object-midpoints="true"
     inkscape:window-width="1920"
     inkscape:window-height="1001"
     inkscape:window-x="-9"
     inkscape:window-y="-9"
     inkscape:window-maximized="1"
     inkscape:snap-others="false" />
  <metadata
     id="metadata5">
    <rdf:RDF>
      <cc:Work
         rdf:about="">
        <dc:format>image/svg+xml</dc:format>
        <dc:type
           rdf:resource="http://purl.org/dc/dcmitype/StillImage" />
        <dc:title></dc:title>
      </cc:Work>
    </rdf:RDF>
  </metadata>
  <g
     inkscape:label="Layer 1"
     inkscape:groupmode="layer"
     id="layer1"
     transform="translate(0,-288.53332)">
    <path
       style="opacity:1;fill:#3adc7f;fill-opacity:1;stroke:none;stroke-width:0.79113001;stroke-linecap:round;stroke-linejoin:round;stroke-miterlimit:4;stroke-dasharray:none;stroke-opacity:1;paint-order:markers fill stroke"
       d="m 7.2927024,291.58482 c 0,1.90135 -1.3672615,1.80977 -3.0538648,1.80977 -1.6866033,0 -3.2097232,-0.0102 -3.0538653,-1.80977 0.066388,-0.76654 1.004564,-1.24558 1.5253819,-1.42484 0.5150474,-0.17727 1.2848753,-0.6934 1.5284834,-1.31723 1.6063765,0.37272 3.0538648,1.48512 3.0538648,2.74207 z"
       id="path842"
       inkscape:connector-curvature="0"
       sodipodi:nodetypes="sssscs" />
    <path
       style="fill:#3adc7f;fill-opacity:1;stroke:none;stroke-width:0.03982197px;stroke-linecap:butt;stroke-linejoin:miter;stroke-opacity:1"
       d="m 4.2388376,288.84275 c -0.6904262,-0.19191 -1.5117793,-0.32184 -2.1613099,-0.30849 0.264324,0.0114 0.4475065,0.24906 0.3282534,0.50728 0.2495712,0.032 0.4106244,0.29706 0.3282537,0.50729 0.4057066,-0.39304 0.9663198,-0.62155 1.5048028,-0.70608 z"
       id="path845"
       inkscape:connector-curvature="0"
       sodipodi:nodetypes="ccccc" />
    <path
       inkscape:connector-curvature="0"
       style="fill:#22a058;fill-opacity:1;stroke:none;stroke-width:0.03982197px;stroke-linecap:butt;stroke-linejoin:miter;stroke-opacity:1"
       d="m 3.7408684,288.72037 c -0.3786846,0.0802 -0.7590982,0.2317 -1.0808738,0.46195 0.086901,0.10281 0.1221232,0.24385 0.074065,0.3665 0.4057068,-0.39303 0.9662855,-0.62153 1.5047685,-0.70607 -0.1601494,-0.0446 -0.3274991,-0.0855 -0.4979597,-0.12238 z"
       id="path870" />
    <ellipse
       style="opacity:1;fill:#3adc7f;fill-opacity:1;stroke:none;stroke-width:0.76526505;stroke-linecap:round;stroke-linejoin:round;stroke-miterlimit:4;stroke-dasharray:none;stroke-opacity:1;paint-order:markers fill stroke"
       id="path847"
       cx="4.1057348"
       cy="288.87311"
       rx="0.23045209"
       ry="0.2304129" />
    <path
       inkscape:connector-curvature="0"
       style="opacity:1;fill:#22a058;fill-opacity:1;stroke:none;stroke-width:0.76526505;stroke-linecap:round;stroke-linejoin:round;stroke-miterlimit:4;stroke-dasharray:none;stroke-opacity:1;paint-order:markers fill stroke"
       d="m 4.2254973,288.67655 a 0.23045208,0.23041293 0 0 1 0.033633,0.11954 0.23045208,0.23041293 0 0 1 -0.2304628,0.23043 0.23045208,0.23041293 0 0 1 -0.1197088,-0.0337 0.23045208,0.23041293 0 0 0 0.1967555,0.11087 0.23045208,0.23041293 0 0 0 0.2304628,-0.23041 0.23045208,0.23041293 0 0 0 -0.1106795,-0.19658 z"
       id="circle849" />
    <path
       inkscape:connector-curvature="0"
       style="opacity:1;fill:#22a058;fill-opacity:1;stroke:none;stroke-width:0.79113001;stroke-linecap:round;stroke-linejoin:round;stroke-miterlimit:4;stroke-dasharray:none;stroke-opacity:1;paint-order:markers fill stroke"
       d="m 4.9643046,289.06528 c 0.9669194,0.53414 1.6675007,1.33814 1.6675007,2.2124 0,1.90135 -1.3673077,1.80977 -3.053911,1.80977 -0.7162523,0 -1.4024531,-0.002 -1.9436697,-0.14232 0.555685,0.4454 1.5480349,0.44943 2.6046027,0.44943 1.6866034,0 3.0539111,0.0916 3.0539111,-1.80977 0,-1.06355 -1.0364178,-2.02345 -2.3284338,-2.51951 z"
       id="path865" />
    <path
       style="fill:#0000ff;stroke:none;stroke-width:0.27488169px;stroke-linecap:butt;stroke-linejoin:miter;stroke-opacity:1"
       d="m 0.79097163,291.11903 c -0.0187274,-1e-4 -0.0374527,4.9e-4 -0.0561407,0.002 -0.0262658,0.002 -0.0524228,0.005 -0.0783746,0.009 -0.0260356,0.004 -0.051822,0.01 -0.0772628,0.0166 -0.0254054,0.006 -0.0504495,0.014 -0.0750395,0.0228 -0.0244212,0.009 -0.0483514,0.019 -0.0717043,0.0301 -0.023622,0.0112 -0.0466252,0.0235 -0.0689251,0.0368 -0.0220612,0.0133 -0.0433951,0.0277 -0.0639225,0.043 -0.0206854,0.0153 -0.040535,0.0316 -0.0594757,0.0488 -0.0189258,0.0172 -0.0369201,0.0351 -0.0539172,0.0539 -0.0169702,0.0188 -0.0329237,0.0383 -0.0478029,0.0586 -0.0148212,0.0203 -0.0285478,0.0413 -0.04113277,0.0627 -0.01266661,0.0216 -0.02416878,0.0437 -0.03446257,0.0663 -0.01031566,0.0227 -0.01940916,0.046 -0.02723664,0.0695 -0.0077443,0.0234 -0.01423578,0.0471 -0.01945465,0.0711 -0.0053884,0.0242 -0.00946578,0.0486 -0.01222862,0.0731 -0.00261389,0.0245 -0.0039125461,0.0491 -0.003890780922,0.0736 7.5732467e-5,0.0175 8.14214712e-4,0.0349 0.002223160922,0.0524 0.00183967,0.0245 0.00499666,0.0489 0.00944919,0.0732 8.9084e-4,0.004 0.0018221,0.008 0.0027797,0.0119 l 0.05169386,0.15557 1.42908439,4.29053 0.029461,0.0897 5.558e-4,10e-4 c 0.00939,0.0226 0.01996,0.0447 0.031684,0.0663 0.012008,0.0219 0.025179,0.0431 0.039464,0.0638 0.014109,0.0208 0.029322,0.0407 0.045579,0.0601 0.016412,0.0193 0.033851,0.0378 0.05225,0.0555 0.018358,0.0177 0.037652,0.0344 0.057807,0.0503 0.020129,0.0159 0.041092,0.0307 0.06281,0.0446 0.021722,0.0138 0.044169,0.0266 0.067258,0.0383 0.023127,0.0118 0.046873,0.0226 0.071148,0.0321 0.024368,0.009 0.049227,0.0178 0.074483,0.0249 0.025219,0.007 0.05082,0.0136 0.076708,0.0187 0.025731,0.005 0.051702,0.008 0.077819,0.0109 0.026229,0.002 0.052572,0.004 0.078931,0.004 h 1.5319159 0.8810186 1.5313604 c 0.026359,0 0.052702,-0.002 0.078931,-0.004 0.026117,-0.003 0.052088,-0.006 0.077819,-0.0109 0.025887,-0.005 0.051488,-0.0116 0.076707,-0.0187 0.025257,-0.007 0.050117,-0.0159 0.074485,-0.0249 0.024276,-0.01 0.048021,-0.0203 0.071148,-0.0321 0.023089,-0.0117 0.045536,-0.0245 0.067258,-0.0383 0.02172,-0.0138 0.042682,-0.0287 0.06281,-0.0446 0.020157,-0.0159 0.039449,-0.0326 0.057807,-0.0503 0.018399,-0.0177 0.035838,-0.0362 0.05225,-0.0555 0.016259,-0.0194 0.03147,-0.0393 0.045579,-0.0601 0.014285,-0.0207 0.027456,-0.042 0.039464,-0.0638 0.011724,-0.0216 0.022294,-0.0437 0.031684,-0.0663 l 5.558e-4,-10e-4 0.029461,-0.0897 1.4290844,-4.29053 0.051693,-0.15557 c 9.573e-4,-0.004 0.0019,-0.008 0.00278,-0.0119 0.00446,-0.0243 0.00761,-0.0487 0.00944,-0.0732 0.00141,-0.0175 0.00216,-0.0349 0.00223,-0.0524 2.17e-5,-0.0246 -0.00127,-0.0492 -0.0039,-0.0736 -0.00277,-0.0246 -0.00684,-0.049 -0.012229,-0.0731 -0.00521,-0.024 -0.011711,-0.0477 -0.019455,-0.0711 -0.00784,-0.0235 -0.016921,-0.0468 -0.027236,-0.0695 -0.010292,-0.0226 -0.021795,-0.0447 -0.034463,-0.0663 -0.012584,-0.0215 -0.026312,-0.0424 -0.041133,-0.0627 -0.014879,-0.0203 -0.030833,-0.0398 -0.047804,-0.0586 -0.016998,-0.0188 -0.034991,-0.0367 -0.053917,-0.0539 -0.018941,-0.0172 -0.038791,-0.0335 -0.059476,-0.0488 -0.020528,-0.0154 -0.041862,-0.0297 -0.063922,-0.043 -0.0223,-0.0134 -0.045304,-0.0256 -0.068925,-0.0368 -0.023353,-0.0111 -0.047283,-0.0211 -0.071705,-0.0301 -0.024589,-0.009 -0.049634,-0.0168 -0.075039,-0.0228 -0.02544,-0.006 -0.051227,-0.0125 -0.077262,-0.0166 -0.025951,-0.004 -0.052109,-0.007 -0.078374,-0.009 -0.018688,-0.002 -0.037412,-0.002 -0.056141,-0.002 l -3.4423648,10e-4 z"
       id="path874"
       inkscape:connector-curvature="0" />
    <path
       style="opacity:1;fill:#ffffff;fill-opacity:1;stroke:none;stroke-width:0.12765239;stroke-linecap:round;stroke-linejoin:round;stroke-miterlimit:4;stroke-dasharray:none;stroke-opacity:1;paint-order:markers fill stroke"
       d="m 3.9343646,292.58087 a 0.06372218,0.06394316 0 0 0 -0.048731,0.0324 l -0.2653839,0.46123 a 0.06372218,0.06394316 0 0 0 0.023707,0.0872 l 0.3496746,0.20287 a 0.06372218,0.06394316 0 0 0 0.086925,-0.0238 l 0.1527769,-0.26498 0.2482624,0.43216 -0.1508015,0.0872 a 0.06372218,0.06394316 0 0 0 0.00593,0.11365 l 0.3154317,0.14539 0.375357,0.17312 a 0.06372218,0.06394316 0 0 0 0.089559,-0.0522 l 0.038194,-0.413 0.032267,-0.34758 a 0.06372218,0.06394316 0 0 0 -0.094827,-0.0614 l -0.1508015,0.0872 -0.3608694,-0.62709 a 0.06372218,0.06394316 0 0 0 -0.055316,-0.0324 H 3.9409497 a 0.06372218,0.06394316 0 0 0 -0.00659,0 z M 3.54452,293.67252 a 0.06372218,0.06394316 0 0 0 -0.025682,0.007 l -0.3746985,0.17379 -0.3154317,0.14538 a 0.06372218,0.06394316 0 0 0 -0.00593,0.11366 l 0.1508015,0.0872 -0.3595525,0.62512 a 0.06372218,0.06394316 0 0 0 0,0.0634 l 0.2917248,0.50552 a 0.06372218,0.06394316 0 0 0 0.055316,0.0324 h 0.5287927 a 0.06372218,0.06394316 0 0 0 0.063877,-0.0641 v -0.40508 a 0.06372218,0.06394316 0 0 0 -0.063877,-0.0641 H 3.1889188 l 0.2449697,-0.42622 0.1508015,0.0872 a 0.06372218,0.06394316 0 0 0 0.094827,-0.0614 L 3.647249,294.14537 3.609055,293.7317 A 0.06372218,0.06394316 0 0 0 3.54452,293.6735 Z m 1.9854414,0.6608 a 0.06372218,0.06394316 0 0 0 -0.028316,0.009 l -0.349675,0.20286 a 0.06372218,0.06394316 0 0 0 -0.023707,0.0872 l 0.1494842,0.2597 h -0.491915 v -0.17445 a 0.06372218,0.06394316 0 0 0 -0.1007537,-0.0522 l -0.2831642,0.20088 -0.3384798,0.23988 a 0.06372218,0.06394316 0 0 0 0,0.1044 l 0.3384798,0.24054 0.2831642,0.20089 a 0.06372218,0.06394316 0 0 0 0.1007537,-0.0522 v -0.17512 h 0.7197638 a 0.06372218,0.06394316 0 0 0 0.055316,-0.0324 l 0.2917247,-0.50552 a 0.06372218,0.06394316 0 0 0 0,-0.0634 l -0.2640673,-0.45774 a 0.06372218,0.06394316 0 0 0 -0.058608,-0.0324 z"
       id="path888"
       inkscape:connector-curvature="0" />
    <path
       style="fill:#000080;stroke:none;stroke-width:1.03892291px;stroke-linecap:butt;stroke-linejoin:miter;stroke-opacity:1"
       d="M 26.052734 9.7734375 C 26.110521 9.7735187 26.168896 9.7745211 26.226562 9.78125 C 26.317604 9.7850295 26.40809 9.7954288 26.498047 9.8105469 C 26.588294 9.8249091 26.677441 9.8464635 26.765625 9.8691406 C 26.853688 9.890306 26.940158 9.9189825 27.025391 9.9492188 C 27.110044 9.9809668 27.194441 10.017334 27.275391 10.056641 C 27.35727 10.096326 27.436373 10.138303 27.513672 10.185547 C 27.590139 10.232791 27.663218 10.283465 27.734375 10.337891 C 27.80608 10.391938 27.875752 10.448915 27.941406 10.509766 C 28.007011 10.570616 28.069987 10.634652 28.128906 10.701172 C 28.187731 10.767692 28.243346 10.836392 28.294922 10.908203 C 28.346297 10.980014 28.39388 11.052938 28.4375 11.128906 C 28.481414 11.205253 28.521 11.283533 28.556641 11.363281 C 28.592395 11.443407 28.623216 11.526225 28.650391 11.609375 C 28.677237 11.691769 28.700722 11.774714 28.71875 11.859375 C 28.73744 11.944414 28.750166 12.030258 28.759766 12.117188 C 28.768912 12.203361 28.773513 12.291977 28.773438 12.378906 C 28.773173 12.440891 28.770538 12.500894 28.765625 12.5625 C 28.759275 12.649051 28.74788 12.73647 28.732422 12.822266 C 28.72936 12.837762 28.727928 12.848163 28.724609 12.863281 L 28.544922 13.412109 L 23.591797 28.564453 L 23.488281 28.882812 L 23.486328 28.884766 C 23.453775 28.964892 23.417591 29.042794 23.376953 29.119141 C 23.335329 29.196243 23.28975 29.272758 23.240234 29.345703 C 23.191327 29.419404 23.138392 29.488231 23.082031 29.556641 C 23.025142 29.62505 22.964166 29.691544 22.900391 29.753906 C 22.836755 29.816268 22.771044 29.875326 22.701172 29.931641 C 22.631398 29.987956 22.55771 30.041088 22.482422 30.089844 C 22.407122 30.1386 22.330035 30.183413 22.25 30.224609 C 22.169836 30.266184 22.088057 30.303875 22.003906 30.337891 C 21.919438 30.369639 21.831693 30.399325 21.744141 30.425781 C 21.65672 30.451104 21.568249 30.47329 21.478516 30.492188 C 21.389323 30.508062 21.299515 30.519911 21.208984 30.53125 C 21.118068 30.538809 21.026913 30.544922 20.935547 30.544922 L 15.626953 30.544922 L 12.574219 30.544922 L 7.2636719 30.544922 C 7.1723056 30.544922 7.0811547 30.538809 6.9902344 30.53125 C 6.8997034 30.519156 6.8098962 30.511085 6.7207031 30.492188 C 6.6309658 30.474046 6.5424948 30.452238 6.4550781 30.425781 C 6.3675329 30.400458 6.2797774 30.368127 6.1953125 30.337891 C 6.1111689 30.304253 6.0293825 30.266184 5.9492188 30.224609 C 5.8691873 30.183413 5.7920926 30.1386 5.7167969 30.089844 L 5.7617188 30.224609 L 5.765625 30.228516 C 5.8011148 30.313933 5.8404544 30.396878 5.8847656 30.478516 C 5.9301502 30.561287 5.9792126 30.642467 6.0332031 30.720703 C 6.0865285 30.799317 6.1436343 30.873943 6.2050781 30.947266 C 6.2671077 31.020211 6.3347573 31.089352 6.4042969 31.15625 C 6.4736814 31.223148 6.5449174 31.287562 6.6210938 31.347656 C 6.6971719 31.407751 6.7772912 31.46309 6.859375 31.515625 C 6.9414739 31.567782 7.0260157 31.615936 7.1132812 31.660156 C 7.2006904 31.704755 7.2910645 31.745344 7.3828125 31.78125 C 7.474912 31.815266 7.5686068 31.848165 7.6640625 31.875 C 7.7593784 31.901457 7.8552806 31.92799 7.953125 31.947266 C 8.050376 31.966163 8.149337 31.977321 8.2480469 31.988281 C 8.3471801 31.99584 8.4472504 32.001953 8.546875 32.001953 L 14.335938 32.001953 L 17.666016 32.001953 L 23.453125 32.001953 C 23.55275 32.001953 23.65282 31.99584 23.751953 31.988281 C 23.850663 31.976943 23.949624 31.965785 24.046875 31.947266 C 24.144716 31.928368 24.240622 31.901835 24.335938 31.875 C 24.431397 31.848543 24.525088 31.815266 24.617188 31.78125 C 24.708939 31.743455 24.79931 31.704755 24.886719 31.660156 C 24.973984 31.615936 25.058526 31.567782 25.140625 31.515625 C 25.222716 31.463468 25.302832 31.407751 25.378906 31.347656 C 25.45509 31.287562 25.526319 31.223148 25.595703 31.15625 C 25.665243 31.089352 25.732892 31.020211 25.794922 30.947266 C 25.856373 30.873943 25.913472 30.799317 25.966797 30.720703 C 26.020787 30.642467 26.06985 30.560909 26.115234 30.478516 C 26.159546 30.396878 26.198885 30.313933 26.234375 30.228516 L 26.238281 30.224609 L 26.349609 29.884766 L 31.75 13.669922 L 31.945312 13.082031 C 31.948931 13.066913 31.951752 13.05185 31.955078 13.037109 C 31.971935 12.945267 31.985271 12.852364 31.992188 12.759766 C 31.997517 12.693624 31.999735 12.628642 32 12.5625 C 32.000082 12.469524 31.994315 12.375424 31.984375 12.283203 C 31.973906 12.190227 31.959821 12.098899 31.939453 12.007812 C 31.919762 11.917104 31.894503 11.826722 31.865234 11.738281 C 31.835603 11.649462 31.800705 11.562358 31.761719 11.476562 C 31.72282 11.391145 31.680692 11.306247 31.632812 11.224609 C 31.585251 11.14335 31.532579 11.065006 31.476562 10.988281 C 31.420327 10.911557 31.361017 10.838633 31.296875 10.767578 C 31.232631 10.696523 31.163328 10.627508 31.091797 10.5625 C 31.020209 10.497492 30.945367 10.436733 30.867188 10.378906 C 30.789601 10.320702 30.71033 10.267065 30.626953 10.216797 C 30.54267 10.166151 30.454511 10.118503 30.365234 10.076172 C 30.276971 10.034219 30.186054 9.9969064 30.09375 9.9628906 C 30.000815 9.9288749 29.906566 9.8996303 29.810547 9.8769531 C 29.714396 9.854276 29.617931 9.8299492 29.519531 9.8144531 C 29.421449 9.799335 29.321926 9.7888091 29.222656 9.78125 C 29.152024 9.7736909 29.080552 9.7734375 29.009766 9.7734375 L 26.052734 9.7734375 z "
       transform="matrix(0.26458333,0,0,0.26458333,0,288.53332)"
       id="path1578" />
  </g>
</svg>
