<?xml version="1.0" encoding="UTF-8" standalone="no"?>
<!-- Created with Inkscape (http://www.inkscape.org/) -->

<svg
   xmlns:dc="http://purl.org/dc/elements/1.1/"
   xmlns:cc="http://creativecommons.org/ns#"
   xmlns:rdf="http://www.w3.org/1999/02/22-rdf-syntax-ns#"
   xmlns:svg="http://www.w3.org/2000/svg"
   xmlns="http://www.w3.org/2000/svg"
   xmlns:sodipodi="http://sodipodi.sourceforge.net/DTD/sodipodi-0.dtd"
   xmlns:inkscape="http://www.inkscape.org/namespaces/inkscape"
   width="32"
   height="32"
   viewBox="0 0 8.4666665 8.4666669"
   version="1.1"
   id="svg8"
   inkscape:version="0.92.4 (5da689c313, 2019-01-14)"
   sodipodi:docname="radioactive_waste.svg">
  <defs
     id="defs2" />
  <sodipodi:namedview
     id="base"
     pagecolor="#ffffff"
     bordercolor="#666666"
     borderopacity="1.0"
     inkscape:pageopacity="0.0"
     inkscape:pageshadow="2"
     inkscape:zoom="16"
     inkscape:cx="11.488908"
     inkscape:cy="14.279434"
     inkscape:document-units="px"
     inkscape:current-layer="layer1"
     showgrid="false"
     units="px"
     inkscape:snap-page="true"
     inkscape:snap-bbox="false"
     inkscape:bbox-paths="true"
     inkscape:bbox-nodes="true"
     inkscape:snap-bbox-edge-midpoints="true"
     inkscape:snap-bbox-midpoints="true"
     inkscape:snap-intersection-paths="true"
     inkscape:object-paths="true"
     inkscape:snap-smooth-nodes="true"
     inkscape:snap-midpoints="true"
     inkscape:snap-nodes="false"
     inkscape:snap-object-midpoints="true"
     inkscape:window-width="1920"
     inkscape:window-height="1001"
     inkscape:window-x="-9"
     inkscape:window-y="-9"
     inkscape:window-maximized="1"
     inkscape:snap-others="false" />
  <metadata
     id="metadata5">
    <rdf:RDF>
      <cc:Work
         rdf:about="">
        <dc:format>image/svg+xml</dc:format>
        <dc:type
           rdf:resource="http://purl.org/dc/dcmitype/StillImage" />
        <dc:title></dc:title>
      </cc:Work>
    </rdf:RDF>
  </metadata>
  <g
     inkscape:label="Layer 1"
     inkscape:groupmode="layer"
     id="layer1"
     transform="translate(0,-288.53332)">
    <g
       id="g1055"
       transform="matrix(0.97273736,0,0,0.97273736,-0.19147173,8.0970039)">
      <path
         id="rect934"
         transform="matrix(0.26458333,0,0,0.26458333,0,288.53332)"
         d="M 6.1875,0 V 0.05078125 A 2.0771261,2.0771261 0 0 0 4.5527344,2.078125 2.0771261,2.0771261 0 0 0 6.1875,4.1054688 V 9.3320312 A 2.0771261,2.0771261 0 0 0 4.5527344,11.359375 2.0771261,2.0771261 0 0 0 6.1875,13.386719 v 5.226562 A 2.0771261,2.0771261 0 0 0 4.5527344,20.640625 2.0771261,2.0771261 0 0 0 6.1875,22.667969 v 5.226562 A 2.0771261,2.0771261 0 0 0 4.5527344,29.923828 2.0771261,2.0771261 0 0 0 6.1875,31.951172 V 32 h 0.4414062 21.1249998 0.441406 v -0.04883 a 2.0771261,2.0771261 0 0 0 1.636719,-2.027344 2.0771261,2.0771261 0 0 0 -1.636719,-2.029297 v -5.226562 a 2.0771261,2.0771261 0 0 0 1.636719,-2.027344 2.0771261,2.0771261 0 0 0 -1.636719,-2.027344 v -5.22656 A 2.0771261,2.0771261 0 0 0 29.832031,11.359375 2.0771261,2.0771261 0 0 0 28.195312,9.3320312 V 4.1054688 A 2.0771261,2.0771261 0 0 0 29.832031,2.078125 2.0771261,2.0771261 0 0 0 28.195312,0.04882812 V 0 H 27.753906 6.6289062 Z"
         style="opacity:1;fill:#7386a3;fill-opacity:1;stroke:none;stroke-width:8.39799976;stroke-linecap:round;stroke-linejoin:round;stroke-miterlimit:4;stroke-dasharray:none;stroke-opacity:1;paint-order:markers fill stroke"
         inkscape:connector-curvature="0" />
      <path
         sodipodi:nodetypes="cssssc"
         inkscape:connector-curvature="0"
         id="path972"
         d="m 5.0777261,288.53332 c 0,0 -0.2736323,-0.16818 -0.7834,-0.20957 -1.7391857,-0.14122 -2.1616987,0.25896 -2.245064,1.15761 -0.042639,0.45963 0.2524278,1.17788 0.9822156,1.22777 0.9558438,0.0653 0.9984063,-1.05709 1.2160762,-1.54348 0.2429295,-0.54283 0.8301722,-0.63233 0.8301722,-0.63233 z"
         style="fill:#00ff00;fill-opacity:1;stroke:none;stroke-width:0.26458332px;stroke-linecap:butt;stroke-linejoin:miter;stroke-opacity:1" />
      <path
         inkscape:connector-curvature="0"
         id="path974"
         d="m 4.5903529,291.13107 a 1.7535868,1.7535868 0 0 0 -0.9183298,0.23452 l 0.4730944,0.81956 a 0.80802527,0.80802527 0 0 1 0.4037003,-0.1094 0.80802527,0.80802527 0 0 1 0.4037004,0.1094 l 0.4730944,-0.81956 a 1.7535868,1.7535868 0 0 0 -0.8352597,-0.23452 z m -0.041535,1.18578 a 0.56733695,0.56733695 0 0 0 -0.5673078,0.5673 0.56733695,0.56733695 0 0 0 0.5673078,0.56732 0.56733695,0.56733695 0 0 0 0.567308,-0.56732 0.56733695,0.56733695 0 0 0 -0.567308,-0.5673 z m -1.7535894,0.5673 a 1.7535868,1.7535868 0 0 0 0.8767947,1.51857 l 0.4730944,-0.81956 a 0.80802527,0.80802527 0 0 1 -0.404207,-0.69901 z m 2.5620033,0 a 0.80802527,0.80802527 0 0 1 -0.4047135,0.6985 l 0.4730944,0.82007 a 1.7535868,1.7535868 0 0 0 0.8767947,-1.51857 z"
         style="opacity:1;fill:#d6d622;fill-opacity:1;stroke:none;stroke-width:2.17794394;stroke-linecap:round;stroke-linejoin:round;stroke-miterlimit:4;stroke-dasharray:none;stroke-opacity:1;paint-order:markers fill stroke" />
      <circle
         r="0.16536458"
         cy="289.75702"
         cx="3.5553386"
         id="path1015"
         style="opacity:1;fill:#7dff7d;fill-opacity:1;stroke:none;stroke-width:2.2219708;stroke-linecap:round;stroke-linejoin:round;stroke-miterlimit:4;stroke-dasharray:none;stroke-opacity:1;paint-order:markers fill stroke" />
      <circle
         r="0.11575521"
         cy="289.07904"
         cx="3.7703125"
         id="path1017"
         style="opacity:1;fill:#7dff7d;fill-opacity:1;stroke:none;stroke-width:2.2219708;stroke-linecap:round;stroke-linejoin:round;stroke-miterlimit:4;stroke-dasharray:none;stroke-opacity:1;paint-order:markers fill stroke" />
      <circle
         r="0.16536458"
         cy="289.75705"
         cx="2.8277345"
         id="path1019"
         style="opacity:1;fill:#7dff7d;fill-opacity:1;stroke:none;stroke-width:2.2219708;stroke-linecap:round;stroke-linejoin:round;stroke-miterlimit:4;stroke-dasharray:none;stroke-opacity:1;paint-order:markers fill stroke" />
      <circle
         r="0.12402344"
         cy="289.16995"
         cx="3.0344398"
         id="path1021"
         style="opacity:1;fill:#7dff7d;fill-opacity:1;stroke:none;stroke-width:2.2219708;stroke-linecap:round;stroke-linejoin:round;stroke-miterlimit:4;stroke-dasharray:none;stroke-opacity:1;paint-order:markers fill stroke" />
      <circle
         r="0.082682289"
         cy="289.12863"
         cx="2.5300779"
         id="path1023"
         style="opacity:1;fill:#7dff7d;fill-opacity:1;stroke:none;stroke-width:2.2219708;stroke-linecap:round;stroke-linejoin:round;stroke-miterlimit:4;stroke-dasharray:none;stroke-opacity:1;paint-order:markers fill stroke" />
      <circle
         r="0.11575521"
         cy="290.45154"
         cx="3.0427084"
         id="path1025"
         style="opacity:1;fill:#7dff7d;fill-opacity:1;stroke:none;stroke-width:2.2219708;stroke-linecap:round;stroke-linejoin:round;stroke-miterlimit:4;stroke-dasharray:none;stroke-opacity:1;paint-order:markers fill stroke" />
      <circle
         r="0.1984375"
         cy="288.66562"
         cx="3.2907548"
         id="path1027"
         style="opacity:1;fill:#7dff7d;fill-opacity:1;stroke:none;stroke-width:2.2219708;stroke-linecap:round;stroke-linejoin:round;stroke-miterlimit:4;stroke-dasharray:none;stroke-opacity:1;paint-order:markers fill stroke" />
      <circle
         r="0.11575521"
         cy="289.87277"
         cx="2.3151042"
         id="path1029"
         style="opacity:1;fill:#7dff7d;fill-opacity:1;stroke:none;stroke-width:2.2219708;stroke-linecap:round;stroke-linejoin:round;stroke-miterlimit:4;stroke-dasharray:none;stroke-opacity:1;paint-order:markers fill stroke" />
      <circle
         r="0.12402344"
         cy="288.55814"
         cx="4.0927734"
         id="path1031"
         style="opacity:1;fill:#7dff7d;fill-opacity:1;stroke:none;stroke-width:2.2219708;stroke-linecap:round;stroke-linejoin:round;stroke-miterlimit:4;stroke-dasharray:none;stroke-opacity:1;paint-order:markers fill stroke" />
      <path
         id="path1035"
         transform="matrix(0.26458333,0,0,0.26458333,0,288.53332)"
         d="m 24.474609,0 v 0.04882812 a 1.7503085,2.0771261 0 0 1 1.38086,2.02929688 1.7503085,2.0771261 0 0 1 -1.38086,2.0273438 v 5.2265624 a 1.7503085,2.0771261 0 0 1 1.38086,2.0273438 1.7503085,2.0771261 0 0 1 -1.38086,2.027344 v 5.226562 a 1.7503085,2.0771261 0 0 1 1.38086,2.027344 1.7503085,2.0771261 0 0 1 -1.38086,2.027344 v 5.226562 a 1.7503085,2.0771261 0 0 1 1.38086,2.029297 1.7503085,2.0771261 0 0 1 -1.38086,2.027344 V 32 h 3.279297 0.441406 v -0.04883 a 2.0771261,2.0771261 0 0 0 1.636719,-2.027344 2.0771261,2.0771261 0 0 0 -1.636719,-2.029297 v -5.226562 a 2.0771261,2.0771261 0 0 0 1.636719,-2.027344 2.0771261,2.0771261 0 0 0 -1.636719,-2.027344 v -5.22656 A 2.0771261,2.0771261 0 0 0 29.832031,11.359375 2.0771261,2.0771261 0 0 0 28.195312,9.3320312 V 4.1054688 A 2.0771261,2.0771261 0 0 0 29.832031,2.078125 2.0771261,2.0771261 0 0 0 28.195312,0.04882812 V 0 h -0.441406 z"
         style="opacity:1;fill:#566883;fill-opacity:1;stroke:none;stroke-width:8.39799976;stroke-linecap:round;stroke-linejoin:round;stroke-miterlimit:4;stroke-dasharray:none;stroke-opacity:1;paint-order:markers fill stroke"
         inkscape:connector-curvature="0" />
    </g>
  </g>
</svg>
