<?xml version="1.0" encoding="UTF-8" standalone="no"?>
<!-- Created with Inkscape (http://www.inkscape.org/) -->

<svg
   xmlns:dc="http://purl.org/dc/elements/1.1/"
   xmlns:cc="http://creativecommons.org/ns#"
   xmlns:rdf="http://www.w3.org/1999/02/22-rdf-syntax-ns#"
   xmlns:svg="http://www.w3.org/2000/svg"
   xmlns="http://www.w3.org/2000/svg"
   xmlns:sodipodi="http://sodipodi.sourceforge.net/DTD/sodipodi-0.dtd"
   xmlns:inkscape="http://www.inkscape.org/namespaces/inkscape"
   width="32"
   height="32"
   viewBox="0 0 8.4666665 8.4666669"
   version="1.1"
   id="svg8"
   inkscape:version="0.92.4 (5da689c313, 2019-01-14)"
   sodipodi:docname="radioactive_waste.svg">
  <defs
     id="defs2" />
  <sodipodi:namedview
     id="base"
     pagecolor="#ffffff"
     bordercolor="#666666"
     borderopacity="1.0"
     inkscape:pageopacity="0.0"
     inkscape:pageshadow="2"
     inkscape:zoom="16"
     inkscape:cx="11.488908"
     inkscape:cy="14.279434"
     inkscape:document-units="px"
     inkscape:current-layer="layer1"
     showgrid="false"
     units="px"
     inkscape:snap-page="true"
     inkscape:snap-bbox="false"
     inkscape:bbox-paths="true"
     inkscape:bbox-nodes="true"
     inkscape:snap-bbox-edge-midpoints="true"
     inkscape:snap-bbox-midpoints="true"
     inkscape:snap-intersection-paths="true"
     inkscape:object-paths="true"
     inkscape:snap-smooth-nodes="true"
     inkscape:snap-midpoints="true"
     inkscape:snap-nodes="false"
     inkscape:snap-object-midpoints="true"
     inkscape:window-width="1920"
     inkscape:window-height="1001"
     inkscape:window-x="-9"
     inkscape:window-y="-9"
     inkscape:window-maximized="1"
     inkscape:snap-others="false" />
  <metadata
     id="metadata5">
    <rdf:RDF>
      <cc:Work
         rdf:about="">
        <dc:format>image/svg+xml</dc:format>
        <dc:type
           rdf:resource="http://purl.org/dc/dcmitype/StillImage" />
        <dc:title></dc:title>
      </cc:Work>
    </rdf:RDF>
  </metadata>
  <g
     inkscape:label="Layer 1"
     inkscape:groupmode="layer"
     id="layer1"
     transform="translate(0,-288.53332)">
    <g
       id="g1088">
      <path
         inkscape:connector-curvature="0"
         style="opacity:1;fill:#7386a3;fill-opacity:1;stroke:none;stroke-width:2.16139388;stroke-linecap:round;stroke-linejoin:round;stroke-miterlimit:4;stroke-dasharray:none;stroke-opacity:1;paint-order:markers fill stroke"
         d="m 1.4010057,288.76414 v 0.0131 a 0.53459013,0.53459013 0 0 0 -0.42073977,0.52178 0.53459013,0.53459013 0 0 0 0.42073977,0.52177 v 1.34517 a 0.53459013,0.53459013 0 0 0 -0.42073977,0.52177 0.53459013,0.53459013 0 0 0 0.42073977,0.52178 v 1.34516 a 0.53459013,0.53459013 0 0 0 -0.42073977,0.52178 0.53459013,0.53459013 0 0 0 0.42073977,0.52178 v 1.34516 a 0.53459013,0.53459013 0 0 0 -0.42073977,0.52228 0.53459013,0.53459013 0 0 0 0.42073977,0.52178 v 0.0126 h 0.1136048 5.4369431 0.1136047 v -0.0126 a 0.53459013,0.53459013 0 0 0 0.4212425,-0.52178 0.53459013,0.53459013 0 0 0 -0.4212425,-0.52228 v -1.34516 a 0.53459013,0.53459013 0 0 0 0.4212425,-0.52178 0.53459013,0.53459013 0 0 0 -0.4212425,-0.52178 v -1.34516 a 0.53459013,0.53459013 0 0 0 0.4212425,-0.52178 0.53459013,0.53459013 0 0 0 -0.4212425,-0.52177 v -1.34517 a 0.53459013,0.53459013 0 0 0 0.4212425,-0.52177 0.53459013,0.53459013 0 0 0 -0.4212425,-0.52228 v -0.0126 H 6.9515536 1.5146105 Z"
         id="path1070" />
      <path
         transform="matrix(0.26458333,0,0,0.26458333,0,288.53332)"
         id="rect934"
         d="M 24.189453 0.87304688 L 24.189453 0.91992188 A 1.7996741 2.0204981 0 0 1 25.607422 2.8945312 A 1.7996741 2.0204981 0 0 1 24.189453 4.8652344 L 24.189453 9.9492188 A 1.7996741 2.0204981 0 0 1 25.607422 11.921875 A 1.7996741 2.0204981 0 0 1 24.189453 13.894531 L 24.189453 18.978516 A 1.7996741 2.0204981 0 0 1 25.607422 20.951172 A 1.7996741 2.0204981 0 0 1 24.189453 22.921875 L 24.189453 28.005859 A 1.7996741 2.0204981 0 0 1 25.607422 29.980469 A 1.7996741 2.0204981 0 0 1 24.189453 31.953125 L 24.189453 32 L 26.273438 32 L 26.703125 32 L 26.703125 31.953125 A 2.0204981 2.0204981 0 0 0 28.294922 29.980469 A 2.0204981 2.0204981 0 0 0 26.703125 28.005859 L 26.703125 22.921875 A 2.0204981 2.0204981 0 0 0 28.294922 20.951172 A 2.0204981 2.0204981 0 0 0 26.703125 18.978516 L 26.703125 13.894531 A 2.0204981 2.0204981 0 0 0 28.294922 11.921875 A 2.0204981 2.0204981 0 0 0 26.703125 9.9492188 L 26.703125 4.8652344 A 2.0204981 2.0204981 0 0 0 28.294922 2.8945312 A 2.0204981 2.0204981 0 0 0 26.703125 0.91992188 L 26.703125 0.87304688 L 26.273438 0.87304688 L 24.189453 0.87304688 z "
         style="opacity:1;fill:#566883;fill-opacity:1;stroke:none;stroke-width:8.16904736;stroke-linecap:round;stroke-linejoin:round;stroke-miterlimit:4;stroke-dasharray:none;stroke-opacity:1;paint-order:markers fill stroke" />
      <path
         sodipodi:nodetypes="cssssc"
         inkscape:connector-curvature="0"
         id="path972"
         d="m 4.7478222,288.76414 c 0,0 -0.2661724,-0.16359 -0.7620425,-0.20385 -1.6917709,-0.13737 -2.1027651,0.2519 -2.1838576,1.12605 -0.041477,0.4471 0.2455459,1.14577 0.9554378,1.1943 0.929785,0.0635 0.9711871,-1.02828 1.1829227,-1.50141 0.2363066,-0.52803 0.8075396,-0.61509 0.8075396,-0.61509 z"
         style="fill:#00ff00;fill-opacity:1;stroke:none;stroke-width:0.25737008px;stroke-linecap:butt;stroke-linejoin:miter;stroke-opacity:1" />
      <path
         inkscape:connector-curvature="0"
         id="path974"
         d="m 4.273736,291.29107 a 1.7057794,1.7057794 0 0 0 -0.8932937,0.22813 l 0.4601966,0.79722 A 0.78599637,0.78599637 0 0 1 4.2333333,292.21 0.78599637,0.78599637 0 0 1 4.6260277,292.31642 L 5.0862243,291.5192 A 1.7057794,1.7057794 0 0 0 4.273736,291.29107 Z m -0.040403,1.15345 a 0.55186985,0.55186985 0 0 0 -0.5518415,0.55184 0.55186985,0.55186985 0 0 0 0.5518415,0.55185 0.55186985,0.55186985 0 0 0 0.5518417,-0.55185 0.55186985,0.55186985 0 0 0 -0.5518417,-0.55184 z m -1.7057819,0.55184 a 1.7057794,1.7057794 0 0 0 0.8528909,1.47717 l 0.4601966,-0.79722 a 0.78599637,0.78599637 0 0 1 -0.3931872,-0.67995 z m 2.4921563,0 a 0.78599637,0.78599637 0 0 1 -0.39368,0.67946 l 0.4601966,0.79771 a 1.7057794,1.7057794 0 0 0 0.852891,-1.47717 z"
         style="opacity:1;fill:#d6d622;fill-opacity:1;stroke:none;stroke-width:2.11856747;stroke-linecap:round;stroke-linejoin:round;stroke-miterlimit:4;stroke-dasharray:none;stroke-opacity:1;paint-order:markers fill stroke" />
      <circle
         r="0.16085631"
         cy="289.95447"
         cx="3.2669389"
         id="path1015"
         style="opacity:1;fill:#7dff7d;fill-opacity:1;stroke:none;stroke-width:2.16139412;stroke-linecap:round;stroke-linejoin:round;stroke-miterlimit:4;stroke-dasharray:none;stroke-opacity:1;paint-order:markers fill stroke" />
      <circle
         r="0.11259942"
         cy="289.29498"
         cx="3.476052"
         id="path1017"
         style="opacity:1;fill:#7dff7d;fill-opacity:1;stroke:none;stroke-width:2.16139412;stroke-linecap:round;stroke-linejoin:round;stroke-miterlimit:4;stroke-dasharray:none;stroke-opacity:1;paint-order:markers fill stroke" />
      <circle
         r="0.16085631"
         cy="289.9545"
         cx="2.5591712"
         id="path1019"
         style="opacity:1;fill:#7dff7d;fill-opacity:1;stroke:none;stroke-width:2.16139412;stroke-linecap:round;stroke-linejoin:round;stroke-miterlimit:4;stroke-dasharray:none;stroke-opacity:1;paint-order:markers fill stroke" />
      <circle
         r="0.12064223"
         cy="289.38342"
         cx="2.7602413"
         id="path1021"
         style="opacity:1;fill:#7dff7d;fill-opacity:1;stroke:none;stroke-width:2.16139412;stroke-linecap:round;stroke-linejoin:round;stroke-miterlimit:4;stroke-dasharray:none;stroke-opacity:1;paint-order:markers fill stroke" />
      <circle
         r="0.080428153"
         cy="289.34323"
         cx="2.2696297"
         id="path1023"
         style="opacity:1;fill:#7dff7d;fill-opacity:1;stroke:none;stroke-width:2.16139412;stroke-linecap:round;stroke-linejoin:round;stroke-miterlimit:4;stroke-dasharray:none;stroke-opacity:1;paint-order:markers fill stroke" />
      <circle
         r="0.11259942"
         cy="290.63007"
         cx="2.7682843"
         id="path1025"
         style="opacity:1;fill:#7dff7d;fill-opacity:1;stroke:none;stroke-width:2.16139412;stroke-linecap:round;stroke-linejoin:round;stroke-miterlimit:4;stroke-dasharray:none;stroke-opacity:1;paint-order:markers fill stroke" />
      <circle
         r="0.19302757"
         cy="288.89282"
         cx="3.0095685"
         id="path1027"
         style="opacity:1;fill:#7dff7d;fill-opacity:1;stroke:none;stroke-width:2.16139412;stroke-linecap:round;stroke-linejoin:round;stroke-miterlimit:4;stroke-dasharray:none;stroke-opacity:1;paint-order:markers fill stroke" />
      <circle
         r="0.11259942"
         cy="290.06708"
         cx="2.0605166"
         id="path1029"
         style="opacity:1;fill:#7dff7d;fill-opacity:1;stroke:none;stroke-width:2.16139412;stroke-linecap:round;stroke-linejoin:round;stroke-miterlimit:4;stroke-dasharray:none;stroke-opacity:1;paint-order:markers fill stroke" />
      <circle
         r="0.12064223"
         cy="288.78827"
         cx="3.789722"
         id="path1031"
         style="opacity:1;fill:#7dff7d;fill-opacity:1;stroke:none;stroke-width:2.16139412;stroke-linecap:round;stroke-linejoin:round;stroke-miterlimit:4;stroke-dasharray:none;stroke-opacity:1;paint-order:markers fill stroke" />
    </g>
  </g>
</svg>
