<?xml version="1.0" encoding="UTF-8" standalone="no"?>
<!-- Created with Inkscape (http://www.inkscape.org/) -->

<svg
   xmlns:dc="http://purl.org/dc/elements/1.1/"
   xmlns:cc="http://creativecommons.org/ns#"
   xmlns:rdf="http://www.w3.org/1999/02/22-rdf-syntax-ns#"
   xmlns:svg="http://www.w3.org/2000/svg"
   xmlns="http://www.w3.org/2000/svg"
   xmlns:sodipodi="http://sodipodi.sourceforge.net/DTD/sodipodi-0.dtd"
   xmlns:inkscape="http://www.inkscape.org/namespaces/inkscape"
   width="32"
   height="32"
   viewBox="0 0 8.4666665 8.4666669"
   version="1.1"
   id="svg8"
   inkscape:version="0.92.4 (5da689c313, 2019-01-14)"
   sodipodi:docname="secret_sauce.svg">
  <defs
     id="defs2" />
  <sodipodi:namedview
     id="base"
     pagecolor="#ffffff"
     bordercolor="#666666"
     borderopacity="1.0"
     inkscape:pageopacity="0.0"
     inkscape:pageshadow="2"
     inkscape:zoom="5.6568545"
     inkscape:cx="-60.596876"
     inkscape:cy="-13.942637"
     inkscape:document-units="px"
     inkscape:current-layer="layer1"
     showgrid="false"
     units="px"
     inkscape:snap-page="true"
     inkscape:snap-bbox="false"
     inkscape:bbox-paths="true"
     inkscape:bbox-nodes="true"
     inkscape:snap-bbox-edge-midpoints="true"
     inkscape:snap-bbox-midpoints="true"
     inkscape:snap-intersection-paths="true"
     inkscape:object-paths="true"
     inkscape:snap-smooth-nodes="true"
     inkscape:snap-midpoints="true"
     inkscape:snap-nodes="false"
     inkscape:snap-object-midpoints="true"
     inkscape:window-width="1920"
     inkscape:window-height="1001"
     inkscape:window-x="-9"
     inkscape:window-y="-9"
     inkscape:window-maximized="1"
     inkscape:snap-others="false"
     inkscape:snap-center="true" />
  <metadata
     id="metadata5">
    <rdf:RDF>
      <cc:Work
         rdf:about="">
        <dc:format>image/svg+xml</dc:format>
        <dc:type
           rdf:resource="http://purl.org/dc/dcmitype/StillImage" />
        <dc:title />
      </cc:Work>
    </rdf:RDF>
  </metadata>
  <g
     inkscape:label="Layer 1"
     inkscape:groupmode="layer"
     id="layer1"
     transform="translate(0,-288.53332)">
    <path
       style="fill:#c99d48;fill-opacity:1;stroke:none;stroke-width:0.26478228px;stroke-linecap:butt;stroke-linejoin:miter;stroke-opacity:1"
       d="m 2.9765625,288.53332 0.4744743,1.76069 h 1.5099006 l 0.4676545,-1.76069 z"
       id="path1882"
       inkscape:connector-curvature="0"
       sodipodi:nodetypes="ccccc" />
    <ellipse
       style="opacity:0.62699998;fill:#faf5ed;fill-opacity:0.43820226;stroke:none;stroke-width:0.90025979;stroke-linecap:round;stroke-linejoin:round;stroke-miterlimit:4;stroke-dasharray:none;stroke-opacity:1;paint-order:markers fill stroke"
       id="path2097-8"
       cx="3.9580946"
       cy="289.13046"
       rx="0.17247234"
       ry="0.17273185" />
    <path
       style="fill:#97773b;fill-opacity:1;stroke:none;stroke-width:0.26478228px;stroke-linecap:butt;stroke-linejoin:miter;stroke-opacity:1"
       d="m 4.6100544,288.53352 -0.173116,1.76068 h 0.523999 l 0.4676717,-1.76068 z"
       id="path1990"
       inkscape:connector-curvature="0" />
    <ellipse
       style="opacity:0.62699998;fill:#faf5ed;fill-opacity:0.43820226;stroke:none;stroke-width:0.90025979;stroke-linecap:round;stroke-linejoin:round;stroke-miterlimit:4;stroke-dasharray:none;stroke-opacity:1;paint-order:markers fill stroke"
       id="path2097-0"
       cx="4.870152"
       cy="289.31198"
       rx="0.17247234"
       ry="0.17273185" />
    <path
       style="opacity:1;fill:#faf5ed;fill-opacity:0.43820226;stroke:none;stroke-width:0.26478228px;stroke-linecap:butt;stroke-linejoin:miter;stroke-opacity:1"
       d="m 3.1739665,289.05158 a 0.17247234,0.17273185 0 0 0 -0.05426,0.0134 l 0.088883,0.3302 a 0.17247234,0.17273185 0 0 0 0.1503783,-0.17131 0.17247234,0.17273185 0 0 0 -0.1725991,-0.17234 0.17247234,0.17273185 0 0 0 -0.012402,0 z"
       id="path2144"
       inkscape:connector-curvature="0" />
    <path
       style="opacity:1;fill:#943d91;fill-opacity:1;stroke:none;stroke-width:2.19361925;stroke-linecap:round;stroke-linejoin:round;stroke-miterlimit:4;stroke-dasharray:none;stroke-opacity:1;paint-order:markers fill stroke"
       d="m 2.6985433,289.26584 c -0.1687666,0 -0.304891,0.13633 -0.304891,0.30535 0,0.16902 0.1361244,0.30483 0.304891,0.30483 h -0.060978 a 0.65467393,0.87719354 0 0 1 0.6547403,0.87724 0.65467393,0.87719354 0 0 1 -0.4196125,0.8172 C 1.2030524,291.89965 5.6589916e-6,292.87823 0,294.58203 c -1.5105535e-6,0.92337 0.48547437,1.60038 1.4758789,1.99978 0.088142,0.24312 0.3322247,0.41818 0.6242513,0.41818 h 2.1332031 2.1332031 c 0.2920267,0 0.5361088,-0.17506 0.6242513,-0.41818 0.9904044,-0.3994 1.4758804,-1.07641 1.4758789,-1.99978 -4.8e-6,-1.40506 -0.7222339,-2.26982 -1.8231445,-2.72744 a 1.2236977,1.2255389 0 0 0 0.5167643,-0.99886 1.2236977,1.2255389 0 0 0 -1.100708,-1.21829 c 0.00503,-0.0221 0.013436,-0.0426 0.013436,-0.0663 0,-0.16902 -0.1361244,-0.30535 -0.304891,-0.30535 z m 3.2380452,0.9088 a 0.67983205,0.68085494 0 0 1 0.6800617,0.68109 0.67983205,0.68085494 0 0 1 -0.6800617,0.68108 0.67983205,0.68085494 0 0 1 -0.6800617,-0.68108 0.67983205,0.68085494 0 0 1 0.6800617,-0.68109 z"
       id="path1876"
       inkscape:connector-curvature="0" />
    <path
       style="opacity:1;fill:#7b3878;fill-opacity:1;stroke:none;stroke-width:2.19361925;stroke-linecap:round;stroke-linejoin:round;stroke-miterlimit:4;stroke-dasharray:none;stroke-opacity:1;paint-order:markers fill stroke"
       d="m 5.753654,289.26584 c 0.022715,0.0428 0.038757,0.0893 0.038757,0.14129 0,0.0236 -0.00841,0.0442 -0.013436,0.0663 0.1012132,0.0102 0.1963565,0.0368 0.2883545,0.0699 -0.014716,-0.15514 -0.140353,-0.2774 -0.2992067,-0.2774 z m -3.3140097,0.45751 c 0.052943,0.0899 0.1467151,0.15267 0.258899,0.15267 h -0.060978 a 0.65467393,0.87719351 0 0 1 0.1100709,0.0135 c -0.088267,-0.0886 -0.1931753,-0.14651 -0.3079917,-0.16613 z m 3.9692667,0.004 c 0.2873568,0.22515 0.4704445,0.57473 0.4707723,0.96418 -4.831e-4,0.39714 -0.3259484,0.76943 -0.5167643,0.99885 0.6490147,0.45763 1.0748671,1.3224 1.0748698,2.72745 1e-6,0.92337 -0.2863625,1.60038 -0.870231,1.99978 -0.051962,0.24312 -0.1895978,0.41818 -0.4816245,0.41818 H 3.9527302 1.8195272 c -0.068911,0 -0.1347345,-0.0104 -0.1968872,-0.0285 0.1196022,0.11809 0.2880866,0.19253 0.4774902,0.19253 h 2.1332031 2.1332031 c 0.2920267,0 0.5361088,-0.17506 0.6242513,-0.41818 0.9904044,-0.3994 1.4758804,-1.07641 1.4758789,-1.99978 -4.8e-6,-1.40506 -0.7222339,-2.26982 -1.8231445,-2.72744 a 1.2236977,1.2255389 0 0 0 0.5167643,-0.99886 1.2236977,1.2255389 0 0 0 -0.7513754,-1.12824 z m -0.7529256,0.28309 c -0.3756395,-1.3e-4 -0.6801879,0.30488 -0.6800617,0.68109 -1.032e-4,0.30745 0.2048319,0.56434 0.4842081,0.649 a 0.67983205,0.68085494 0 0 1 -0.203605,-0.48494 0.67983205,0.68085494 0 0 1 0.6800617,-0.68109 0.67983205,0.68085494 0 0 1 0.1912027,0.0279 c -0.1223357,-0.11826 -0.2883366,-0.19207 -0.4718058,-0.19201 z m -4.73511137,6.27882 c 0.0911626,0.0604 0.18857717,0.11739 0.29352217,0.17027 -0.00633,-0.014 -0.013875,-0.0275 -0.01912,-0.0419 -0.097697,-0.0394 -0.1865127,-0.0836 -0.27440187,-0.12835 z"
       id="path1979"
       inkscape:connector-curvature="0" />
    <path
       style="opacity:1;fill:#6b006e;fill-opacity:1;stroke:none;stroke-width:2.22364163;stroke-linecap:round;stroke-linejoin:round;stroke-miterlimit:4;stroke-dasharray:none;stroke-opacity:1;paint-order:markers fill stroke"
       d="M 5.1676432e-4,294.56547 C 4.9015991e-4,294.57112 1.8820372e-8,294.57636 0,294.58203 c -1.5105535e-6,0.92337 0.4854744,1.60038 1.4758789,1.99978 0.088142,0.24312 0.3322247,0.41818 0.6242513,0.41818 h 2.1332031 2.1332031 c 0.2920267,0 0.5361088,-0.17506 0.6242513,-0.41818 0.9904044,-0.3994 1.4758804,-1.07641 1.4758789,-1.99978 0,-0.006 -4.935e-4,-0.0109 -5.168e-4,-0.0166 z"
       id="rect1900"
       inkscape:connector-curvature="0" />
    <path
       style="font-style:normal;font-variant:normal;font-weight:normal;font-stretch:normal;font-size:4.03488064px;line-height:1.25;font-family:sans-serif;-inkscape-font-specification:sans-serif;letter-spacing:0px;word-spacing:0px;fill:#ff45ff;fill-opacity:1;stroke:none;stroke-width:0.27822509;stroke-linejoin:round;stroke-miterlimit:4;stroke-dasharray:none;stroke-opacity:1"
       d="m 4.326695,292.94127 c -0.1127959,0 -0.2302209,0.0131 -0.3531348,0.0381 -0.1185805,0.0234 -0.2207286,0.051 -0.3057986,0.0839 -0.053011,0.0207 -0.088031,0.0718 -0.088388,0.1288 v 0.3264 c -2.574e-4,0.0771 0.06209,0.13973 0.1390754,0.13971 h 0.015919 c 0.026296,3.3e-4 0.052151,-0.007 0.074565,-0.0206 0.046518,-0.029 0.1192041,-0.0645 0.2153157,-0.0986 v 0.001 c 0.088038,-0.0309 0.1800967,-0.0549 0.2802456,-0.0474 0.1943686,0.0143 0.3337965,0.12376 0.2660002,0.37716 -0.012903,0.0482 -0.063196,0.0893 -0.115617,0.13635 l -0.00167,0.001 c -0.0409,0.0384 -0.098468,0.0809 -0.1725877,0.12377 l -0.00167,0.001 c -0.079401,0.0467 -0.153,0.0892 -0.2215993,0.12838 -0.04297,0.0249 -0.069471,0.0707 -0.069538,0.12041 v 0.48833 c 6.434e-4,0.0759 0.061975,0.13738 0.1378187,0.13803 h 0.2865236 c 0.076333,4e-5 0.1384151,-0.0616 0.1390756,-0.13803 v -0.28359 c 0.063864,-0.0384 0.1278809,-0.0771 0.1868303,-0.11748 0.084354,-0.0578 0.160056,-0.1209 0.2266262,-0.18879 0.071545,-0.0742 0.1372047,-0.15753 0.1738444,-0.25508 0.1317276,-0.3507 0.073035,-0.65404 -0.180128,-0.88353 -0.1576034,-0.14287 -0.3801491,-0.20138 -0.6317045,-0.20138 z"
       id="path1909"
       inkscape:connector-curvature="0"
       sodipodi:nodetypes="ccccccccccsscccccccccccccsssc" />
    <ellipse
       style="opacity:1;fill:#ff45ff;fill-opacity:1;stroke:none;stroke-width:0.72977346;stroke-linecap:round;stroke-linejoin:round;stroke-miterlimit:4;stroke-dasharray:none;stroke-opacity:1;paint-order:markers fill stroke"
       id="path1912"
       cx="4.2666888"
       cy="295.54849"
       rx="0.34123233"
       ry="0.34174576" />
    <path
       style="font-style:normal;font-variant:normal;font-weight:normal;font-stretch:normal;font-size:4.03488064px;line-height:1.25;font-family:sans-serif;-inkscape-font-specification:sans-serif;letter-spacing:0px;word-spacing:0px;fill:#ff45ff;fill-opacity:1;stroke:none;stroke-width:0.1819685;stroke-linejoin:round;stroke-miterlimit:4;stroke-dasharray:none;stroke-opacity:1"
       d="m 6.2438689,293.74077 c -0.067082,-0.0308 -0.1404591,-0.055 -0.2203724,-0.0735 -0.076864,-0.0184 -0.1451354,-0.0298 -0.2046672,-0.0335 -0.037159,-0.002 -0.071851,0.0187 -0.087562,0.0526 l -0.088699,0.19413 c -0.0211,0.0458 -0.00105,0.1 0.044746,0.12098 l 0.00947,0.005 c 0.015544,0.007 0.032702,0.0103 0.049911,0.008 0.035558,-0.005 0.0884,-0.006 0.1548354,7e-5 l -3.373e-4,7.3e-4 c 0.060757,0.006 0.1220165,0.0165 0.1795534,0.0482 0.1117159,0.0615 0.164886,0.1646 0.055704,0.29681 -0.020761,0.0251 -0.061835,0.036 -0.10581,0.0496 l -0.00133,2.9e-4 c -0.034746,0.0117 -0.08052,0.0212 -0.1362714,0.0265 l -0.00133,3e-4 c -0.059905,0.007 -0.115245,0.0114 -0.1666745,0.0159 -0.032302,0.003 -0.060543,0.0231 -0.074075,0.0527 L 5.5182587,294.796 c -0.02026,0.0453 -4.723e-4,0.0986 0.044454,0.11966 l 0.1704034,0.0781 c 0.04539,0.0207 0.099049,8.1e-4 0.1202201,-0.0442 l 0.077068,-0.16867 c 0.048404,-0.006 0.097001,-0.0115 0.1430215,-0.0189 0.065886,-0.0115 0.1280428,-0.0283 0.1860811,-0.0505 0.062721,-0.0246 0.1244065,-0.0562 0.1727062,-0.10433 0.173638,-0.17267 0.2211637,-0.36906 0.1329644,-0.57455 -0.054906,-0.12792 -0.1713611,-0.22338 -0.3209665,-0.29194 z"
       id="path1909-2"
       inkscape:connector-curvature="0"
       sodipodi:nodetypes="ccccccccccsscccccccccccccsssc" />
    <ellipse
       style="opacity:1;fill:#ff45ff;fill-opacity:1;stroke:none;stroke-width:0.47729623;stroke-linecap:round;stroke-linejoin:round;stroke-miterlimit:4;stroke-dasharray:none;stroke-opacity:1;paint-order:markers fill stroke"
       id="path1912-0"
       cx="127.71674"
       cy="266.13647"
       transform="matrix(0.90907692,0.41662831,-0.41559372,0.90955036,0,0)"
       rx="0.22323549"
       ry="0.22345503" />
    <path
       style="font-style:normal;font-variant:normal;font-weight:normal;font-stretch:normal;font-size:4.03488064px;line-height:1.25;font-family:sans-serif;-inkscape-font-specification:sans-serif;letter-spacing:0px;word-spacing:0px;fill:#ff45ff;fill-opacity:1;stroke:none;stroke-width:0.1819685;stroke-linejoin:round;stroke-miterlimit:4;stroke-dasharray:none;stroke-opacity:1"
       d="m 2.5206992,293.65966 c -0.069158,0.0257 -0.1381253,0.0606 -0.2077586,0.10399 -0.067362,0.0415 -0.1236627,0.0817 -0.1683372,0.12128 -0.027996,0.0246 -0.037623,0.064 -0.02483,0.0992 l 0.074344,0.20009 c 0.017409,0.0473 0.069885,0.0715 0.1170644,0.0538 l 0.00956,-0.005 c 0.016151,-0.006 0.030577,-0.0157 0.041024,-0.0296 0.021704,-0.0288 0.058496,-0.0666 0.1095308,-0.1096 l 2.834e-4,7.7e-4 c 0.046974,-0.0391 0.097915,-0.0748 0.1609539,-0.0931 0.1223862,-0.0356 0.2327964,-3.9e-4 0.2489504,0.17043 0.00309,0.0325 -0.018389,0.0692 -0.039797,0.11006 l -7.395e-4,8.1e-4 c -0.016316,0.0329 -0.041975,0.072 -0.077616,0.11528 l -7.394e-4,8e-4 c -0.037773,0.0471 -0.073465,0.0897 -0.1066219,0.1293 -0.020548,0.0251 -0.026473,0.0592 -0.015178,0.0897 l 0.1112166,0.29934 c 0.017715,0.0465 0.069275,0.0701 0.115918,0.0531 l 0.175635,-0.0654 c 0.04677,-0.0174 0.070611,-0.0695 0.053826,-0.11637 l -0.064592,-0.17384 c 0.030215,-0.0384 0.060852,-0.0765 0.087776,-0.11465 0.038564,-0.0548 0.070593,-0.11063 0.095927,-0.16749 0.026925,-0.0618 0.048246,-0.12789 0.048466,-0.19608 8.754e-4,-0.24505 -0.1041895,-0.41759 -0.3116383,-0.50044 -0.1291434,-0.0515 -0.2788806,-0.0367 -0.43308,0.0208 z"
       id="path1909-2-6"
       inkscape:connector-curvature="0"
       sodipodi:nodetypes="ccccccccccsscccccccccccccsssc" />
    <ellipse
       style="opacity:1;fill:#ff45ff;fill-opacity:1;stroke:none;stroke-width:0.47729626;stroke-linecap:round;stroke-linejoin:round;stroke-miterlimit:4;stroke-dasharray:none;stroke-opacity:1;paint-order:markers fill stroke"
       id="path1912-0-4"
       cx="-99.954239"
       cy="277.75766"
       transform="matrix(0.93704522,-0.34920804,0.34828691,0.93738798,0,0)"
       rx="0.2232182"
       ry="0.2234723" />
    <path
       style="opacity:1;fill:#400042;fill-opacity:1;stroke:none;stroke-width:2.19361925;stroke-linecap:round;stroke-linejoin:round;stroke-miterlimit:4;stroke-dasharray:none;stroke-opacity:1;paint-order:markers fill stroke"
       d="m 7.4321045,294.56547 c -0.029828,0.8468 -0.3128251,1.47487 -0.8645467,1.85228 -0.051962,0.24312 -0.1895978,0.41818 -0.4816245,0.41818 H 3.9527302 1.8195272 c -0.068911,0 -0.1347345,-0.0104 -0.1968872,-0.0285 0.0299,0.0295 0.062611,0.0561 0.098185,0.0797 0.03189,0.0211 0.066536,0.0392 0.1023193,0.0549 0.00973,0.004 0.019985,0.008 0.029972,0.0114 0.029213,0.0111 0.059742,0.0203 0.09095,0.0274 0.0095,0.002 0.018757,0.005 0.028422,0.007 0.041362,0.008 0.083675,0.0124 0.1276408,0.0124 h 2.1332031 2.1332031 c 0.036503,0 0.072176,-0.002 0.1069702,-0.008 0.243559,-0.0368 0.4401564,-0.19768 0.5172811,-0.41041 0.9904044,-0.3994 1.4758804,-1.07641 1.4758789,-1.99978 0,-0.006 -4.935e-4,-0.0109 -5.168e-4,-0.0166 z m -6.51123047,1.72393 c 0.0910424,0.0603 0.18821847,0.11745 0.29300537,0.17027 1.366e-4,7e-5 3.801e-4,-7e-5 5.168e-4,0 -0.00633,-0.014 -0.013875,-0.0275 -0.01912,-0.0419 -0.097697,-0.0394 -0.1865127,-0.0836 -0.27440187,-0.12835 z"
       id="path1985"
       inkscape:connector-curvature="0" />
    <ellipse
       style="opacity:0.62699998;fill:#faf5ed;fill-opacity:0.43820226;stroke:none;stroke-width:0.90025985;stroke-linecap:round;stroke-linejoin:round;stroke-miterlimit:4;stroke-dasharray:none;stroke-opacity:1;paint-order:markers fill stroke"
       id="path2097"
       cx="3.4874496"
       cy="288.81134"
       rx="0.17247236"
       ry="0.17273186" />
    <ellipse
       style="opacity:0.62699998;fill:#faf5ed;fill-opacity:0.43820226;stroke:none;stroke-width:0.90025979;stroke-linecap:round;stroke-linejoin:round;stroke-miterlimit:4;stroke-dasharray:none;stroke-opacity:1;paint-order:markers fill stroke"
       id="path2097-3"
       cx="4.443356"
       cy="288.8201"
       rx="0.17247234"
       ry="0.17273185" />
    <path
       style="opacity:0.62699998;fill:#faf5ed;fill-opacity:0.43820226;stroke:none;stroke-width:0.90025979;stroke-linecap:round;stroke-linejoin:round;stroke-miterlimit:4;stroke-dasharray:none;stroke-opacity:1;paint-order:markers fill stroke"
       d="m 5.3609131,288.69447 a 0.17247234,0.17273185 0 0 0 -0.160197,0.17235 0.17247234,0.17273185 0 0 0 0.098185,0.15578 l 0.086816,-0.32761 a 0.17247234,0.17273185 0 0 0 -0.012919,-5.2e-4 0.17247234,0.17273185 0 0 0 -0.011886,0 z"
       id="path2097-86"
       inkscape:connector-curvature="0" />
    <path
       style="opacity:0.62699998;fill:#faf5ed;fill-opacity:0.43820226;stroke:none;stroke-width:0.90025979;stroke-linecap:round;stroke-linejoin:round;stroke-miterlimit:4;stroke-dasharray:none;stroke-opacity:1;paint-order:markers fill stroke"
       d="m 4.7645669,288.53352 a 0.17247234,0.17273185 0 0 0 -0.00827,0.0523 0.17247234,0.17273185 0 0 0 0.1720827,0.17286 0.17247234,0.17273185 0 0 0 0.1725993,-0.17286 0.17247234,0.17273185 0 0 0 -0.00827,-0.0523 z"
       id="path2097-6"
       inkscape:connector-curvature="0" />
  </g>
</svg>
