<?xml version="1.0" encoding="UTF-8" standalone="no"?>
<!-- Created with Inkscape (http://www.inkscape.org/) -->

<svg
   xmlns:dc="http://purl.org/dc/elements/1.1/"
   xmlns:cc="http://creativecommons.org/ns#"
   xmlns:rdf="http://www.w3.org/1999/02/22-rdf-syntax-ns#"
   xmlns:svg="http://www.w3.org/2000/svg"
   xmlns="http://www.w3.org/2000/svg"
   xmlns:sodipodi="http://sodipodi.sourceforge.net/DTD/sodipodi-0.dtd"
   xmlns:inkscape="http://www.inkscape.org/namespaces/inkscape"
   width="32"
   height="32"
   viewBox="0 0 8.4666665 8.4666669"
   version="1.1"
   id="svg8"
   inkscape:version="0.92.4 (5da689c313, 2019-01-14)"
   sodipodi:docname="secret_sauce.svg">
  <defs
     id="defs2" />
  <sodipodi:namedview
     id="base"
     pagecolor="#ffffff"
     bordercolor="#666666"
     borderopacity="1.0"
     inkscape:pageopacity="0.0"
     inkscape:pageshadow="2"
     inkscape:zoom="11.313709"
     inkscape:cx="7.5201002"
     inkscape:cy="7.1347319"
     inkscape:document-units="px"
     inkscape:current-layer="layer1"
     showgrid="false"
     units="px"
     inkscape:snap-page="true"
     inkscape:snap-bbox="true"
     inkscape:bbox-paths="true"
     inkscape:bbox-nodes="true"
     inkscape:snap-bbox-edge-midpoints="true"
     inkscape:snap-bbox-midpoints="true"
     inkscape:snap-intersection-paths="true"
     inkscape:object-paths="true"
     inkscape:snap-smooth-nodes="true"
     inkscape:snap-midpoints="true"
     inkscape:snap-nodes="true"
     inkscape:snap-object-midpoints="true"
     inkscape:window-width="1920"
     inkscape:window-height="1001"
     inkscape:window-x="-9"
     inkscape:window-y="-9"
     inkscape:window-maximized="1"
     inkscape:snap-others="true"
     inkscape:snap-center="true" />
  <metadata
     id="metadata5">
    <rdf:RDF>
      <cc:Work
         rdf:about="">
        <dc:format>image/svg+xml</dc:format>
        <dc:type
           rdf:resource="http://purl.org/dc/dcmitype/StillImage" />
        <dc:title></dc:title>
      </cc:Work>
    </rdf:RDF>
  </metadata>
  <g
     inkscape:label="Layer 1"
     inkscape:groupmode="layer"
     id="layer1"
     transform="translate(0,-288.53332)">
    <path
       style="fill:#c99d48;fill-opacity:1;stroke:none;stroke-width:0.26478228px;stroke-linecap:butt;stroke-linejoin:miter;stroke-opacity:1"
       d="m 2.9765625,288.53332 0.4744743,1.76069 h 1.5099006 l 0.4676545,-1.76069 z"
       id="path1882"
       inkscape:connector-curvature="0"
       sodipodi:nodetypes="ccccc" />
    <ellipse
       style="opacity:0.62699998;fill:#ffffff;fill-opacity:0.23529412;stroke:none;stroke-width:0.90025979;stroke-linecap:round;stroke-linejoin:round;stroke-miterlimit:4;stroke-dasharray:none;stroke-opacity:1;paint-order:markers fill stroke"
       id="path2097-8"
       cx="3.9580946"
       cy="289.13046"
       rx="0.17247234"
       ry="0.17273185" />
    <path
       style="fill:#97773b;fill-opacity:1;stroke:none;stroke-width:0.26478228px;stroke-linecap:butt;stroke-linejoin:miter;stroke-opacity:1"
       d="m 4.6100544,288.53352 -0.173116,1.76068 h 0.523999 l 0.4676717,-1.76068 z"
       id="path1990"
       inkscape:connector-curvature="0" />
    <ellipse
       style="opacity:0.62699998;fill:#ffffff;fill-opacity:0.23529412;stroke:none;stroke-width:0.90025979;stroke-linecap:round;stroke-linejoin:round;stroke-miterlimit:4;stroke-dasharray:none;stroke-opacity:1;paint-order:markers fill stroke"
       id="path2097-0"
       cx="4.870152"
       cy="289.31198"
       rx="0.17247234"
       ry="0.17273185" />
    <path
       style="opacity:1;fill:#ffffff;fill-opacity:0.23529412;stroke:none;stroke-width:0.26478228px;stroke-linecap:butt;stroke-linejoin:miter;stroke-opacity:1"
       d="m 3.1739665,289.05158 a 0.17247234,0.17273185 0 0 0 -0.05426,0.0134 l 0.088883,0.3302 a 0.17247234,0.17273185 0 0 0 0.1503783,-0.17131 0.17247234,0.17273185 0 0 0 -0.1725991,-0.17234 0.17247234,0.17273185 0 0 0 -0.012402,0 z"
       id="path2144"
       inkscape:connector-curvature="0" />
    <path
       style="opacity:1;fill:#943d91;fill-opacity:1;stroke:none;stroke-width:2.19361925;stroke-linecap:round;stroke-linejoin:round;stroke-miterlimit:4;stroke-dasharray:none;stroke-opacity:1;paint-order:markers fill stroke"
       d="m 2.6985433,289.26584 c -0.1687666,0 -0.304891,0.13633 -0.304891,0.30535 0,0.16902 0.1361244,0.30483 0.304891,0.30483 h -0.060978 a 0.65467393,0.87719354 0 0 1 0.6547403,0.87724 0.65467393,0.87719354 0 0 1 -0.4196125,0.8172 C 1.2030524,291.89965 5.6589916e-6,292.87823 0,294.58203 c -1.5105535e-6,0.92337 0.48547437,1.60038 1.4758789,1.99978 0.088142,0.24312 0.3322247,0.41818 0.6242513,0.41818 h 2.1332031 2.1332031 c 0.2920267,0 0.5361088,-0.17506 0.6242513,-0.41818 0.9904044,-0.3994 1.4758804,-1.07641 1.4758789,-1.99978 -4.8e-6,-1.40506 -0.7222339,-2.26982 -1.8231445,-2.72744 a 1.2236977,1.2255389 0 0 0 0.5167643,-0.99886 1.2236977,1.2255389 0 0 0 -1.100708,-1.21829 c 0.00503,-0.0221 0.013436,-0.0426 0.013436,-0.0663 0,-0.16902 -0.1361244,-0.30535 -0.304891,-0.30535 z m 3.2380452,0.9088 a 0.67983205,0.68085494 0 0 1 0.6800617,0.68109 0.67983205,0.68085494 0 0 1 -0.6800617,0.68108 0.67983205,0.68085494 0 0 1 -0.6800617,-0.68108 0.67983205,0.68085494 0 0 1 0.6800617,-0.68109 z"
       id="path1876"
       inkscape:connector-curvature="0" />
    <path
       style="opacity:1;fill:#7b3878;fill-opacity:1;stroke:none;stroke-width:2.19361925;stroke-linecap:round;stroke-linejoin:round;stroke-miterlimit:4;stroke-dasharray:none;stroke-opacity:1;paint-order:markers fill stroke"
       d="m 5.753654,289.26584 c 0.022715,0.0428 0.038757,0.0893 0.038757,0.14129 0,0.0236 -0.00841,0.0442 -0.013436,0.0663 0.1012132,0.0102 0.1963565,0.0368 0.2883545,0.0699 -0.014716,-0.15514 -0.140353,-0.2774 -0.2992067,-0.2774 z m -3.3140097,0.45751 c 0.052943,0.0899 0.1467151,0.15267 0.258899,0.15267 h -0.060978 a 0.65467393,0.87719351 0 0 1 0.1100709,0.0135 c -0.088267,-0.0886 -0.1931753,-0.14651 -0.3079917,-0.16613 z m 3.9692667,0.004 c 0.2873568,0.22515 0.4704445,0.57473 0.4707723,0.96418 -4.831e-4,0.39714 -0.3259484,0.76943 -0.5167643,0.99885 0.6490147,0.45763 1.0748671,1.3224 1.0748698,2.72745 1e-6,0.92337 -0.2863625,1.60038 -0.870231,1.99978 -0.051962,0.24312 -0.1895978,0.41818 -0.4816245,0.41818 H 3.9527302 1.8195272 c -0.068911,0 -0.1347345,-0.0104 -0.1968872,-0.0285 0.1196022,0.11809 0.2880866,0.19253 0.4774902,0.19253 h 2.1332031 2.1332031 c 0.2920267,0 0.5361088,-0.17506 0.6242513,-0.41818 0.9904044,-0.3994 1.4758804,-1.07641 1.4758789,-1.99978 -4.8e-6,-1.40506 -0.7222339,-2.26982 -1.8231445,-2.72744 a 1.2236977,1.2255389 0 0 0 0.5167643,-0.99886 1.2236977,1.2255389 0 0 0 -0.7513754,-1.12824 z m -0.7529256,0.28309 c -0.3756395,-1.3e-4 -0.6801879,0.30488 -0.6800617,0.68109 -1.032e-4,0.30745 0.2048319,0.56434 0.4842081,0.649 a 0.67983205,0.68085494 0 0 1 -0.203605,-0.48494 0.67983205,0.68085494 0 0 1 0.6800617,-0.68109 0.67983205,0.68085494 0 0 1 0.1912027,0.0279 c -0.1223357,-0.11826 -0.2883366,-0.19207 -0.4718058,-0.19201 z m -4.73511137,6.27882 c 0.0911626,0.0604 0.18857717,0.11739 0.29352217,0.17027 -0.00633,-0.014 -0.013875,-0.0275 -0.01912,-0.0419 -0.097697,-0.0394 -0.1865127,-0.0836 -0.27440187,-0.12835 z"
       id="path1979"
       inkscape:connector-curvature="0" />
    <path
       style="opacity:1;fill:#6b006e;fill-opacity:1;stroke:none;stroke-width:2.22364163;stroke-linecap:round;stroke-linejoin:round;stroke-miterlimit:4;stroke-dasharray:none;stroke-opacity:1;paint-order:markers fill stroke"
       d="M 5.1676432e-4,294.56547 C 4.9015991e-4,294.57112 1.8820372e-8,294.57636 0,294.58203 c -1.5105535e-6,0.92337 0.4854744,1.60038 1.4758789,1.99978 0.088142,0.24312 0.3322247,0.41818 0.6242513,0.41818 h 2.1332031 2.1332031 c 0.2920267,0 0.5361088,-0.17506 0.6242513,-0.41818 0.9904044,-0.3994 1.4758804,-1.07641 1.4758789,-1.99978 0,-0.006 -4.935e-4,-0.0109 -5.168e-4,-0.0166 z"
       id="rect1900"
       inkscape:connector-curvature="0" />
    <path
       style="font-style:normal;font-variant:normal;font-weight:normal;font-stretch:normal;font-size:4.03488064px;line-height:1.25;font-family:sans-serif;-inkscape-font-specification:sans-serif;letter-spacing:0px;word-spacing:0px;fill:#ff45ff;fill-opacity:1;stroke:none;stroke-width:0.3432228;stroke-linejoin:round;stroke-miterlimit:4;stroke-dasharray:none;stroke-opacity:1"
       d="m 4.3185995,292.59674 c -0.1391462,0 -0.284004,0.0161 -0.4356325,0.0471 -0.1462828,0.0288 -0.2722943,0.0629 -0.3772379,0.10351 -0.065396,0.0256 -0.1085969,0.0886 -0.1090371,0.15888 v 0.40265 c -3.175e-4,0.0951 0.076595,0.17238 0.1715656,0.17234 h 0.019637 c 0.032439,4.2e-4 0.064335,-0.008 0.091984,-0.0254 0.057386,-0.0358 0.147052,-0.0796 0.2656168,-0.12162 v 0.002 c 0.1086051,-0.0382 0.2221701,-0.0676 0.3457154,-0.0585 0.239776,0.0177 0.4117764,0.15268 0.3281419,0.46527 -0.015917,0.0595 -0.077959,0.11014 -0.1426269,0.1682 l -0.00206,0.002 c -0.050455,0.0474 -0.121471,0.0997 -0.2129068,0.15268 l -0.00206,0.002 c -0.097951,0.0576 -0.1887432,0.11012 -0.2733683,0.15837 -0.053009,0.0306 -0.0857,0.0872 -0.085783,0.14854 v 0.60241 c 7.937e-4,0.0937 0.076454,0.16947 0.1700154,0.17028 H 4.424023 c 0.094166,4e-5 0.170751,-0.076 0.1715659,-0.17028 v -0.34985 c 0.078783,-0.0474 0.1577559,-0.095 0.2304767,-0.14492 0.1040611,-0.0714 0.1974476,-0.14914 0.2795696,-0.23289 0.088259,-0.0915 0.1692579,-0.19433 0.2144572,-0.31467 0.1625012,-0.43263 0.090096,-0.80684 -0.2222087,-1.08994 -0.194422,-0.17624 -0.4689579,-0.24842 -0.7792805,-0.24842 z"
       id="path1909"
       inkscape:connector-curvature="0"
       sodipodi:nodetypes="ccccccccccsscccccccccccccsssc" />
    <ellipse
       style="opacity:1;fill:#ff45ff;fill-opacity:1;stroke:none;stroke-width:0.90025985;stroke-linecap:round;stroke-linejoin:round;stroke-miterlimit:4;stroke-dasharray:none;stroke-opacity:1;paint-order:markers fill stroke"
       id="path1912"
       cx="4.2445745"
       cy="295.81305"
       rx="0.42094952"
       ry="0.42158288" />
    <path
       style="font-style:normal;font-variant:normal;font-weight:normal;font-stretch:normal;font-size:4.03488064px;line-height:1.25;font-family:sans-serif;-inkscape-font-specification:sans-serif;letter-spacing:0px;word-spacing:0px;fill:#ff45ff;fill-opacity:1;stroke:none;stroke-width:0.22447915;stroke-linejoin:round;stroke-miterlimit:4;stroke-dasharray:none;stroke-opacity:1"
       d="m 6.683655,293.58301 c -0.082753,-0.038 -0.1732725,-0.0678 -0.2718547,-0.0907 -0.094821,-0.0227 -0.1790414,-0.0368 -0.2524806,-0.0413 -0.045841,-0.003 -0.088636,0.023 -0.1080183,0.0648 l -0.1094205,0.23948 c -0.026029,0.0565 -0.00129,0.12339 0.0552,0.14925 l 0.011678,0.005 c 0.019176,0.009 0.040342,0.013 0.061571,0.01 0.043865,-0.006 0.1090512,-0.007 0.1910073,8e-5 l -4.161e-4,9.1e-4 c 0.074951,0.007 0.1505215,0.0203 0.2214998,0.0594 0.1378147,0.0758 0.203406,0.20304 0.068718,0.36615 -0.025611,0.031 -0.076282,0.0443 -0.1305292,0.0612 l -0.00164,3.5e-4 c -0.042864,0.0144 -0.09933,0.0261 -0.1681065,0.0327 l -0.00164,3.6e-4 c -0.073899,0.008 -0.1421681,0.014 -0.2056122,0.0196 -0.039848,0.004 -0.074686,0.0285 -0.09138,0.065 l -0.1637022,0.35827 c -0.024994,0.056 -5.826e-4,0.12162 0.05484,0.14761 l 0.2102122,0.0964 c 0.055994,0.0256 0.1221883,0.001 0.1483054,-0.0545 l 0.095073,-0.20808 c 0.059712,-0.007 0.1196614,-0.0135 0.1764335,-0.0233 0.081278,-0.014 0.1579557,-0.0349 0.2295525,-0.0623 0.077373,-0.0304 0.1534699,-0.0694 0.2130531,-0.12869 0.2142026,-0.213 0.272831,-0.45528 0.164027,-0.70877 -0.067733,-0.15781 -0.2113937,-0.27556 -0.3959493,-0.36015 z"
       id="path1909-2"
       inkscape:connector-curvature="0"
       sodipodi:nodetypes="ccccccccccsscccccccccccccsssc" />
    <ellipse
       style="opacity:1;fill:#ff45ff;fill-opacity:1;stroke:none;stroke-width:0.58880007;stroke-linecap:round;stroke-linejoin:round;stroke-miterlimit:4;stroke-dasharray:none;stroke-opacity:1;paint-order:markers fill stroke"
       id="path1912-0"
       cx="128.04202"
       cy="266.2081"
       transform="matrix(0.90907692,0.41662831,-0.41559372,0.90955036,0,0)"
       rx="0.27538678"
       ry="0.27565759" />
    <path
       style="font-style:normal;font-variant:normal;font-weight:normal;font-stretch:normal;font-size:4.03488064px;line-height:1.25;font-family:sans-serif;-inkscape-font-specification:sans-serif;letter-spacing:0px;word-spacing:0px;fill:#ff45ff;fill-opacity:1;stroke:none;stroke-width:0.22447915;stroke-linejoin:round;stroke-miterlimit:4;stroke-dasharray:none;stroke-opacity:1"
       d="m 2.0906949,293.48296 c -0.085314,0.0317 -0.1703933,0.0748 -0.2562941,0.12835 -0.0831,0.0511 -0.1525522,0.10081 -0.2076635,0.14962 -0.034536,0.0303 -0.046412,0.079 -0.030631,0.12232 l 0.091711,0.24683 c 0.021476,0.0584 0.086211,0.0881 0.1444124,0.0664 l 0.011793,-0.005 c 0.019924,-0.007 0.037719,-0.0193 0.050608,-0.0365 0.026775,-0.0354 0.072161,-0.0822 0.1351191,-0.13522 l 3.497e-4,9.4e-4 c 0.057947,-0.0482 0.1207887,-0.0922 0.1985551,-0.11486 0.1509776,-0.044 0.2871814,-4.8e-4 0.3071092,0.21024 0.00381,0.0401 -0.022685,0.0853 -0.049094,0.13571 l -9.122e-4,10e-4 c -0.020127,0.0406 -0.051781,0.0888 -0.095747,0.14221 l -9.121e-4,0.001 c -0.046598,0.058 -0.090628,0.11059 -0.1315302,0.15949 -0.025348,0.031 -0.032658,0.0731 -0.018724,0.11067 l 0.1371984,0.36927 c 0.021854,0.0573 0.085459,0.0864 0.1429982,0.0655 l 0.2166661,-0.0807 c 0.057696,-0.0215 0.087107,-0.0858 0.066401,-0.14355 l -0.079682,-0.21446 c 0.037273,-0.0473 0.075068,-0.0943 0.1082817,-0.14144 0.047573,-0.0675 0.087084,-0.13651 0.1183361,-0.20662 0.033215,-0.0763 0.059517,-0.15776 0.059788,-0.24188 0.00108,-0.3023 -0.1285301,-0.51514 -0.3844419,-0.61734 -0.1593133,-0.0636 -0.3440313,-0.0452 -0.5342541,0.0257 z"
       id="path1909-2-6"
       inkscape:connector-curvature="0"
       sodipodi:nodetypes="ccccccccccsscccccccccccccsssc" />
    <ellipse
       style="opacity:1;fill:#ff45ff;fill-opacity:1;stroke:none;stroke-width:0.58880007;stroke-linecap:round;stroke-linejoin:round;stroke-miterlimit:4;stroke-dasharray:none;stroke-opacity:1;paint-order:markers fill stroke"
       id="path1912-0-4"
       cx="-100.30495"
       cy="277.84018"
       transform="matrix(0.93704522,-0.34920804,0.34828691,0.93738798,0,0)"
       rx="0.27536544"
       ry="0.2756789" />
    <path
       style="opacity:1;fill:#400042;fill-opacity:1;stroke:none;stroke-width:2.19361925;stroke-linecap:round;stroke-linejoin:round;stroke-miterlimit:4;stroke-dasharray:none;stroke-opacity:1;paint-order:markers fill stroke"
       d="m 7.4321045,294.56547 c -0.029828,0.8468 -0.3128251,1.47487 -0.8645467,1.85228 -0.051962,0.24312 -0.1895978,0.41818 -0.4816245,0.41818 H 3.9527302 1.8195272 c -0.068911,0 -0.1347345,-0.0104 -0.1968872,-0.0285 0.0299,0.0295 0.062611,0.0561 0.098185,0.0797 0.03189,0.0211 0.066536,0.0392 0.1023193,0.0549 0.00973,0.004 0.019985,0.008 0.029972,0.0114 0.029213,0.0111 0.059742,0.0203 0.09095,0.0274 0.0095,0.002 0.018757,0.005 0.028422,0.007 0.041362,0.008 0.083675,0.0124 0.1276408,0.0124 h 2.1332031 2.1332031 c 0.036503,0 0.072176,-0.002 0.1069702,-0.008 0.243559,-0.0368 0.4401564,-0.19768 0.5172811,-0.41041 0.9904044,-0.3994 1.4758804,-1.07641 1.4758789,-1.99978 0,-0.006 -4.935e-4,-0.0109 -5.168e-4,-0.0166 z m -6.51123047,1.72393 c 0.0910424,0.0603 0.18821847,0.11745 0.29300537,0.17027 1.366e-4,7e-5 3.801e-4,-7e-5 5.168e-4,0 -0.00633,-0.014 -0.013875,-0.0275 -0.01912,-0.0419 -0.097697,-0.0394 -0.1865127,-0.0836 -0.27440187,-0.12835 z"
       id="path1985"
       inkscape:connector-curvature="0" />
    <ellipse
       style="opacity:0.62699998;fill:#d9ba7f;fill-opacity:1;stroke:none;stroke-width:0.90025985;stroke-linecap:round;stroke-linejoin:round;stroke-miterlimit:4;stroke-dasharray:none;stroke-opacity:1;paint-order:markers fill stroke"
       id="path2097"
       cx="3.4874496"
       cy="288.81134"
       rx="0.17247236"
       ry="0.17273186" />
    <ellipse
       style="opacity:0.62699998;fill:#ffffff;fill-opacity:0.23529412;stroke:none;stroke-width:0.90025979;stroke-linecap:round;stroke-linejoin:round;stroke-miterlimit:4;stroke-dasharray:none;stroke-opacity:1;paint-order:markers fill stroke"
       id="path2097-3"
       cx="4.443356"
       cy="288.8201"
       rx="0.17247234"
       ry="0.17273185" />
    <path
       style="opacity:0.62699998;fill:#ffffff;fill-opacity:0.23529412;stroke:none;stroke-width:0.90025979;stroke-linecap:round;stroke-linejoin:round;stroke-miterlimit:4;stroke-dasharray:none;stroke-opacity:1;paint-order:markers fill stroke"
       d="m 5.3609131,288.69447 a 0.17247234,0.17273185 0 0 0 -0.160197,0.17235 0.17247234,0.17273185 0 0 0 0.098185,0.15578 l 0.086816,-0.32761 a 0.17247234,0.17273185 0 0 0 -0.012919,-5.2e-4 0.17247234,0.17273185 0 0 0 -0.011886,0 z"
       id="path2097-86"
       inkscape:connector-curvature="0" />
    <path
       style="opacity:0.62699998;fill:#ffffff;fill-opacity:0.23529412;stroke:none;stroke-width:0.90025979;stroke-linecap:round;stroke-linejoin:round;stroke-miterlimit:4;stroke-dasharray:none;stroke-opacity:1;paint-order:markers fill stroke"
       d="m 4.7645669,288.53352 a 0.17247234,0.17273185 0 0 0 -0.00827,0.0523 0.17247234,0.17273185 0 0 0 0.1720827,0.17286 0.17247234,0.17273185 0 0 0 0.1725993,-0.17286 0.17247234,0.17273185 0 0 0 -0.00827,-0.0523 z"
       id="path2097-6"
       inkscape:connector-curvature="0" />
  </g>
</svg>
