<?xml version="1.0" encoding="UTF-8" standalone="no"?>
<!-- Created with Inkscape (http://www.inkscape.org/) -->

<svg
   xmlns:dc="http://purl.org/dc/elements/1.1/"
   xmlns:cc="http://creativecommons.org/ns#"
   xmlns:rdf="http://www.w3.org/1999/02/22-rdf-syntax-ns#"
   xmlns:svg="http://www.w3.org/2000/svg"
   xmlns="http://www.w3.org/2000/svg"
   xmlns:sodipodi="http://sodipodi.sourceforge.net/DTD/sodipodi-0.dtd"
   xmlns:inkscape="http://www.inkscape.org/namespaces/inkscape"
   width="32"
   height="32"
   viewBox="0 0 8.4666665 8.4666669"
   version="1.1"
   id="svg8"
   inkscape:version="0.92.4 (5da689c313, 2019-01-14)"
   sodipodi:docname="the_meats.svg">
  <defs
     id="defs2" />
  <sodipodi:namedview
     id="base"
     pagecolor="#ffffff"
     bordercolor="#666666"
     borderopacity="1.0"
     inkscape:pageopacity="0.0"
     inkscape:pageshadow="2"
     inkscape:zoom="16"
     inkscape:cx="9.1342756"
     inkscape:cy="14.301953"
     inkscape:document-units="px"
     inkscape:current-layer="layer1"
     showgrid="false"
     units="px"
     inkscape:snap-page="true"
     inkscape:snap-bbox="false"
     inkscape:bbox-paths="true"
     inkscape:bbox-nodes="true"
     inkscape:snap-bbox-edge-midpoints="true"
     inkscape:snap-bbox-midpoints="true"
     inkscape:snap-intersection-paths="true"
     inkscape:object-paths="true"
     inkscape:snap-smooth-nodes="true"
     inkscape:snap-midpoints="true"
     inkscape:snap-nodes="false"
     inkscape:snap-object-midpoints="true"
     inkscape:window-width="1920"
     inkscape:window-height="1001"
     inkscape:window-x="-9"
     inkscape:window-y="-9"
     inkscape:window-maximized="1"
     inkscape:snap-others="false" />
  <metadata
     id="metadata5">
    <rdf:RDF>
      <cc:Work
         rdf:about="">
        <dc:format>image/svg+xml</dc:format>
        <dc:type
           rdf:resource="http://purl.org/dc/dcmitype/StillImage" />
        <dc:title></dc:title>
      </cc:Work>
    </rdf:RDF>
  </metadata>
  <g
     inkscape:label="Layer 1"
     inkscape:groupmode="layer"
     id="layer1"
     transform="translate(0,-288.53332)">
    <path
       style="opacity:1;fill:#b8c89d;fill-opacity:1;stroke:none;stroke-width:1.86800182;stroke-linecap:round;stroke-linejoin:round;stroke-miterlimit:4;stroke-dasharray:none;stroke-opacity:1;paint-order:markers fill stroke"
       d="m 1.6443268,289.45947 c 0.3669295,0 0.6277184,0.11314 0.9946163,0.11796 0.6006762,0.008 1.2694101,-0.22401 1.8695125,-0.1966 0.3649698,0.0166 0.6495615,0.15542 1.014277,0.17694 0.4919161,0.029 1.0267984,-0.0361 1.5156219,-0.0982 0.3056025,-0.0389 0.5560852,0.24801 0.5560852,0.55609 0,0.19 -0.039321,0.34065 -0.039321,0.53065 0,0.19 0.088473,0.40949 0.088473,0.59949 0,0.19 -0.098303,0.42914 -0.098303,0.61914 0,0.19 0.049151,0.34067 0.049151,0.53066 0,0.30808 -0.248014,0.5561 -0.5560852,0.5561 -0.1521505,0 -0.2179927,-0.0648 -0.3695144,-0.0786 -0.2701358,-0.0246 -0.5898699,0.0662 -0.8610291,0.059 -0.2807884,-0.008 -0.6097346,-0.0415 -0.8905198,-0.0492 -0.4671696,-0.0127 -0.8459238,0.0919 -1.3132225,0.0982 -0.4176047,0.005 -0.9703753,-0.16992 -1.3878282,-0.15729 -0.2446631,0.008 -0.3321244,0.0786 -0.5719137,0.1278 -0.3017964,0.0619 -0.5560853,-0.24802 -0.5560853,-0.55608 0,-0.19 0.049151,-0.58645 0.049151,-0.77644 0,-0.18999 -0.078642,-0.36033 -0.078642,-0.55033 0,-0.18999 0.1277938,-0.22271 0.1277938,-0.41269 0,-0.19 -0.098303,-0.3505 -0.098303,-0.5405 0,-0.30808 0.248014,-0.55608 0.5560853,-0.55608 z"
       id="rect1090-0"
       inkscape:connector-curvature="0"
       sodipodi:nodetypes="sssssssssssssssssssssss" />
    <path
       style="opacity:1;fill:#91a078;fill-opacity:1;stroke:none;stroke-width:1.86800182;stroke-linecap:round;stroke-linejoin:round;stroke-miterlimit:4;stroke-dasharray:none;stroke-opacity:1;paint-order:markers fill stroke"
       d="m 7.0383552,289.45934 c -0.025969,0.003 -0.053288,0.007 -0.079503,0.01 0.05484,0.0875 0.087323,0.19109 0.087323,0.29801 0,0.18042 -0.037796,0.32355 -0.037796,0.50397 0,0.18038 0.084717,0.38872 0.084717,0.5691 0,0.18042 -0.093839,0.40785 -0.093839,0.58824 0,0.1804 0.04692,0.32313 0.04692,0.50352 0,0.29251 -0.2370481,0.52827 -0.5313219,0.52827 -0.1453364,0 -0.2080311,-0.0616 -0.3527668,-0.0747 -0.2580373,-0.0233 -0.5633832,0.0629 -0.8223979,0.056 -0.2682132,-0.008 -0.5824269,-0.0396 -0.8506369,-0.0469 -0.446247,-0.012 -0.8082974,0.0874 -1.2546675,0.0934 -0.3989018,0.005 -0.9267249,-0.16101 -1.3254816,-0.14901 -0.2337056,0.008 -0.3174774,0.0745 -0.5465277,0.1212 -0.094904,0.0194 -0.1835141,-0.002 -0.2615338,-0.0469 0.053802,0.26372 0.2803117,0.49231 0.5434864,0.43835 0.2397894,-0.0492 0.3270622,-0.12016 0.5717253,-0.12772 0.4174528,-0.0127 0.9704366,0.16315 1.3880412,0.15726 0.4672986,-0.007 0.8461476,-0.11088 1.3133172,-0.0981 0.2807852,0.008 0.6098169,0.0415 0.8906052,0.0491 0.2711593,0.008 0.5904933,-0.0837 0.8606291,-0.0591 0.1515217,0.0138 0.2175595,0.0786 0.3697098,0.0786 0.3080713,0 0.5560853,-0.24802 0.5560853,-0.5561 0,-0.18999 -0.049092,-0.34044 -0.049092,-0.53044 0,-0.19 0.098184,-0.42909 0.098184,-0.61908 0,-0.18999 -0.088626,-0.40954 -0.088626,-0.59954 0,-0.18999 0.039534,-0.34088 0.039534,-0.53088 0,-0.30808 -0.2504825,-0.59501 -0.5560853,-0.55609 z"
       id="path1095-2"
       inkscape:connector-curvature="0" />
    <path
       style="opacity:1;fill:#91a078;fill-opacity:1;stroke:none;stroke-width:1.86800182;stroke-linecap:round;stroke-linejoin:round;stroke-miterlimit:4;stroke-dasharray:none;stroke-opacity:1;paint-order:markers fill stroke"
       d="m 5.0463013,289.7541 a 0.48168427,0.48168427 0 0 1 0.048598,0.20947 0.48168427,0.48168427 0 0 1 -0.4815107,0.48207 0.48168427,0.48168427 0 0 1 -0.1753994,-0.0335 0.48168427,0.48168427 0 0 0 0.4334713,0.27203 0.48168427,0.48168427 0 0 0 0.4815107,-0.48151 0.48168427,0.48168427 0 0 0 -0.3066699,-0.44855 z m -2.8879468,0.13015 a 0.33914329,0.33914329 0 0 1 0.034633,0.14803 0.33914329,0.33914329 0 0 1 -0.339627,0.33906 0.33914329,0.33914329 0 0 1 -0.1228913,-0.0234 0.33914329,0.33914329 0 0 0 0.304994,0.19105 0.33914329,0.33914329 0 0 0 0.3390684,-0.33908 0.33914329,0.33914329 0 0 0 -0.216177,-0.3156 z m 1.007709,1.0915 a 0.48168427,0.48168427 0 0 1 0.048598,0.20947 0.48168427,0.48168427 0 0 1 -0.4820694,0.48207 0.48168427,0.48168427 0 0 1 -0.1748408,-0.0335 0.48168427,0.48168427 0 0 0 0.4329128,0.27203 0.48168427,0.48168427 0 0 0 0.4820693,-0.48207 0.48168427,0.48168427 0 0 0 -0.3066699,-0.44799 z m 2.42487,0.15473 a 0.31089801,0.31089801 0 0 1 0.03184,0.13518 0.31089801,0.31089801 0 0 1 -0.3111386,0.31114 0.31089801,0.31089801 0 0 1 -0.1128366,-0.0217 0.31089801,0.31089801 0 0 0 0.2792987,0.17539 0.31089801,0.31089801 0 0 0 0.3111384,-0.31057 0.31089801,0.31089801 0 0 0 -0.1983019,-0.28936 z"
       id="path1099-1-7"
       inkscape:connector-curvature="0" />
    <g
       id="g1826"
       transform="matrix(1.0809513,0,0,1.0809513,-0.33857453,-24.01382)">
      <path
         sodipodi:nodetypes="sssssssssssssssssssssss"
         inkscape:connector-curvature="0"
         id="rect1090"
         d="m 1.0097566,292.90322 c 0.4364593,0 0.7466652,0.13459 1.1830869,0.14032 0.7144986,0.009 1.5099513,-0.26646 2.2237676,-0.23386 0.4341283,0.0198 0.7726474,0.18487 1.206473,0.21047 0.5851297,0.0345 1.2213671,-0.0429 1.8028181,-0.11693 0.3635114,-0.0463 0.6614583,0.29501 0.6614583,0.66146 0,0.226 -0.046772,0.40522 -0.046772,0.63122 0,0.226 0.1052374,0.48708 0.1052374,0.71308 0,0.226 -0.1169304,0.51046 -0.1169304,0.73646 0,0.226 0.058465,0.40522 0.058465,0.63122 0,0.36645 -0.2950104,0.66146 -0.6614583,0.66146 -0.1809814,0 -0.2593002,-0.0771 -0.4395339,-0.0935 -0.321324,-0.0293 -0.7016448,0.0788 -1.024186,0.0702 -0.3339953,-0.009 -0.7252737,-0.0494 -1.0592651,-0.0585 -0.5556938,-0.0151 -1.0062185,0.10932 -1.5620659,0.11693 -0.4967368,0.007 -1.1542524,-0.20211 -1.6508086,-0.18709 -0.2910245,0.009 -0.3950589,0.0935 -0.6802861,0.15201 -0.35898402,0.0736 -0.66145834,-0.29501 -0.66145834,-0.66146 0,-0.226 0.0584652,-0.69755 0.0584652,-0.92355 0,-0.226 -0.0935443,-0.42861 -0.0935443,-0.65461 0,-0.226 0.15200955,-0.26491 0.15200955,-0.4909 0,-0.226 -0.11693042,-0.41692 -0.11693042,-0.64292 0,-0.36645 0.29501041,-0.66146 0.66145831,-0.66146 z"
         style="opacity:1;fill:#d19499;fill-opacity:1;stroke:none;stroke-width:2.2219708;stroke-linecap:round;stroke-linejoin:round;stroke-miterlimit:4;stroke-dasharray:none;stroke-opacity:1;paint-order:markers fill stroke" />
      <path
         id="path1095"
         transform="matrix(0.26458333,0,0,0.26458333,0,288.53332)"
         d="m 28.066406,16.515625 c -0.116747,0.01486 -0.239565,0.0281 -0.357422,0.04297 0.246546,0.393106 0.392578,0.859087 0.392578,1.339844 0,0.811048 -0.169921,1.454576 -0.169921,2.265624 0,0.811012 0.380859,1.747583 0.380859,2.558594 0,0.811049 -0.421875,1.83352 -0.421875,2.644532 0,0.811011 0.210938,1.45266 0.210937,2.263671 0,1.315049 -1.0657,2.375 -2.388671,2.375 -0.65339,0 -0.935248,-0.276976 -1.585938,-0.335937 -1.160062,-0.105071 -2.532809,0.282567 -3.697265,0.251953 -1.205809,-0.03402 -2.618424,-0.178434 -3.824219,-0.210937 -2.006198,-0.05405 -3.633873,0.392633 -5.640625,0.419921 -1.7933479,0.02646 -4.1662889,-0.723855 -5.9589846,-0.669921 -1.0506735,0.03402 -1.4272875,0.335044 -2.4570313,0.544921 -0.4266552,0.08697 -0.8250272,-0.01082 -1.1757812,-0.210937 0.2418779,1.185602 1.260201,2.213278 2.4433593,1.970703 1.0780241,-0.22114 1.4703774,-0.540203 2.5703126,-0.574219 1.8767478,-0.05677 4.3628042,0.733488 6.2402342,0.707032 2.100841,-0.02876 3.804037,-0.498478 5.904297,-0.441407 1.26233,0.03439 2.741562,0.186688 4.003906,0.220703 1.219054,0.0325 2.654688,-0.376365 3.869141,-0.265625 0.681198,0.06198 0.978085,0.353516 1.662109,0.353516 1.385,0 2.5,-1.114992 2.5,-2.5 0,-0.854173 -0.220703,-1.530592 -0.220703,-2.384766 0,-0.854173 0.441406,-1.92903 0.441406,-2.783203 0,-0.854173 -0.398437,-1.841139 -0.398437,-2.695312 0,-0.854173 0.177734,-1.532546 0.177734,-2.386719 0,-1.385008 -1.126098,-2.674992 -2.5,-2.500001 z"
         style="opacity:1;fill:#b67278;fill-opacity:1;stroke:none;stroke-width:8.39799976;stroke-linecap:round;stroke-linejoin:round;stroke-miterlimit:4;stroke-dasharray:none;stroke-opacity:1;paint-order:markers fill stroke"
         inkscape:connector-curvature="0" />
      <path
         inkscape:connector-curvature="0"
         id="path1099"
         d="m 1.7431694,293.35628 a 0.60323598,0.60323598 0 0 1 0.060936,0.26278 0.60323598,0.60323598 0 0 1 -0.6033755,0.60338 0.60323598,0.60323598 0 0 1 -0.21926105,-0.0419 0.60323598,0.60323598 0 0 0 0.54243975,0.34058 0.60323598,0.60323598 0 0 0 0.6033757,-0.60337 0.60323598,0.60323598 0 0 0 -0.3841149,-0.56149 z"
         style="opacity:1;fill:#b67278;fill-opacity:1;stroke:none;stroke-width:2.33938694;stroke-linecap:round;stroke-linejoin:round;stroke-miterlimit:4;stroke-dasharray:none;stroke-opacity:1;paint-order:markers fill stroke" />
      <path
         inkscape:connector-curvature="0"
         id="path1099-1"
         d="m 3.7340014,294.72792 a 0.57295897,0.57295897 0 0 1 0.057878,0.2496 0.57295897,0.57295897 0 0 1 -0.5730915,0.57309 0.57295897,0.57295897 0 0 1 -0.2082561,-0.0398 0.57295897,0.57295897 0 0 0 0.5152141,0.32349 0.57295897,0.57295897 0 0 0 0.5730917,-0.57309 0.57295897,0.57295897 0 0 0 -0.3648358,-0.5333 z"
         style="opacity:1;fill:#b67278;fill-opacity:1;stroke:none;stroke-width:2.2219708;stroke-linecap:round;stroke-linejoin:round;stroke-miterlimit:4;stroke-dasharray:none;stroke-opacity:1;paint-order:markers fill stroke" />
      <path
         inkscape:connector-curvature="0"
         id="path1099-7"
         d="m 6.3422829,293.99767 a 0.36981028,0.36981028 0 0 1 0.037357,0.1611 0.36981028,0.36981028 0 0 1 -0.3698958,0.3699 0.36981028,0.36981028 0 0 1 -0.1344167,-0.0257 0.36981028,0.36981028 0 0 0 0.3325395,0.20879 0.36981028,0.36981028 0 0 0 0.3698959,-0.36989 0.36981028,0.36981028 0 0 0 -0.2354794,-0.34422 z"
         style="opacity:1;fill:#b67278;fill-opacity:1;stroke:none;stroke-width:1.43414748;stroke-linecap:round;stroke-linejoin:round;stroke-miterlimit:4;stroke-dasharray:none;stroke-opacity:1;paint-order:markers fill stroke" />
      <path
         inkscape:connector-curvature="0"
         id="path1099-12"
         d="m 1.5788659,295.30088 a 0.40340779,0.40340779 0 0 1 0.040751,0.17574 0.40340779,0.40340779 0 0 1 -0.4035011,0.4035 0.40340779,0.40340779 0 0 1 -0.1466285,-0.028 0.40340779,0.40340779 0 0 0 0.3627509,0.22776 0.40340779,0.40340779 0 0 0 0.4035012,-0.4035 0.40340779,0.40340779 0 0 0 -0.2568728,-0.37548 z"
         style="opacity:1;fill:#b67278;fill-opacity:1;stroke:none;stroke-width:1.56444073;stroke-linecap:round;stroke-linejoin:round;stroke-miterlimit:4;stroke-dasharray:none;stroke-opacity:1;paint-order:markers fill stroke" />
      <path
         inkscape:connector-curvature="0"
         id="path1099-0"
         d="m 5.2856559,295.1054 a 0.46830662,0.46830662 0 0 1 0.047307,0.20401 0.46830662,0.46830662 0 0 1 -0.4684149,0.46842 0.46830662,0.46830662 0 0 1 -0.1702176,-0.0325 0.46830662,0.46830662 0 0 0 0.421109,0.2644 0.46830662,0.46830662 0 0 0 0.4684151,-0.46841 0.46830662,0.46830662 0 0 0 -0.2981977,-0.4359 z"
         style="opacity:1;fill:#b67278;fill-opacity:1;stroke:none;stroke-width:1.81612241;stroke-linecap:round;stroke-linejoin:round;stroke-miterlimit:4;stroke-dasharray:none;stroke-opacity:1;paint-order:markers fill stroke" />
      <path
         inkscape:connector-curvature="0"
         id="path1099-5"
         d="m 4.0146344,293.12597 a 0.57295897,0.57295897 0 0 1 0.057878,0.2496 0.57295897,0.57295897 0 0 1 -0.5730915,0.57309 0.57295897,0.57295897 0 0 1 -0.2082561,-0.0398 0.57295897,0.57295897 0 0 0 0.5152141,0.32349 0.57295897,0.57295897 0 0 0 0.5730917,-0.57309 0.57295897,0.57295897 0 0 0 -0.3648358,-0.5333 z"
         style="opacity:1;fill:#b67278;fill-opacity:1;stroke:none;stroke-width:2.2219708;stroke-linecap:round;stroke-linejoin:round;stroke-miterlimit:4;stroke-dasharray:none;stroke-opacity:1;paint-order:markers fill stroke" />
    </g>
    <path
       style="opacity:1;fill:#ffffff;fill-opacity:1;stroke:none;stroke-width:0.08970149;stroke-linecap:round;stroke-linejoin:round;stroke-miterlimit:4;stroke-dasharray:none;stroke-opacity:1;paint-order:markers fill stroke"
       d="m 2.5555171,292.01362 a 0.43876065,0.42630762 70.509453 0 0 -0.064798,0.002 0.43876065,0.42630762 70.509453 0 0 -0.042454,0.007 0.43876065,0.42630762 70.509453 0 0 -0.040778,0.0112 l 5.578e-4,0.004 a 0.43876065,0.42630762 70.509453 0 0 -0.1133953,0.0592 0.43876065,0.42630762 70.509453 0 0 -0.032957,0.0268 0.43876065,0.42630762 70.509453 0 0 -5.576e-4,5.7e-4 0.43876065,0.42630762 70.509453 0 0 -0.029606,0.0301 0.43876065,0.42630762 70.509453 0 0 -0.040219,0.052 0.43876065,0.42630762 70.509453 0 0 -0.010614,0.0168 0.43876065,0.42630762 70.509453 0 0 -0.02011,0.0391 0.43876065,0.42630762 70.509453 0 0 -0.032398,0.10111 0.43876065,0.42630762 70.509453 0 0 -0.00558,0.043 0.43876065,0.42630762 70.509453 0 0 0.018992,0.17317 0.43876065,0.42630762 70.509453 0 0 0.034075,0.0804 0.43876065,0.42630762 70.509453 0 0 -0.18713,0.0971 0.43876065,0.42630762 70.509453 0 0 -0.081555,0.0994 0.43876065,0.42630762 70.509453 0 0 -0.01955,0.0385 0.43876065,0.42630762 70.509453 0 0 -0.01173,0.028 0.43876065,0.42630762 70.509453 0 0 -0.00447,0.0145 0.43876065,0.42630762 70.509453 0 0 -0.00893,0.0268 0.43876065,0.42630762 70.509453 0 0 0,5.7e-4 0.43876065,0.42630762 70.509453 0 0 -0.00893,0.0419 0.43876065,0.42630762 70.509453 0 0 0,5.7e-4 0.43876065,0.42630762 70.509453 0 0 -0.00503,0.043 0.43876065,0.42630762 70.509453 0 0 0.010054,0.12513 0.43876065,0.42630762 70.509453 0 0 5.578e-4,0.005 0.43876065,0.42630762 70.509453 0 0 0,5.8e-4 0.43876065,0.42630762 70.509453 0 0 5.577e-4,0.002 0.43876065,0.42630762 70.509453 0 0 0.027371,0.0804 0.43876065,0.42630762 70.509453 0 0 0.04357,0.076 0.43876065,0.42630762 70.509453 0 0 0,5.8e-4 0.43876065,0.42630762 70.509453 0 0 0.026813,0.0335 0.43876065,0.42630762 70.509453 0 0 0,5.7e-4 0.43876065,0.42630762 70.509453 0 0 0.06368,0.0592 0.43876065,0.42630762 70.509453 0 0 0,5.6e-4 0.43876065,0.42630762 70.509453 0 0 0.073176,0.0459 0.43876065,0.42630762 70.509453 0 0 0.045247,0.019 0.43876065,0.42630762 70.509453 0 0 0.041336,0.0128 0.43876065,0.42630762 70.509453 0 0 0.041895,0.007 0.43876065,0.42630762 70.509453 0 0 0.1284773,-0.002 0.43876065,0.42630762 70.509453 0 0 0.1200984,-0.0396 0.43876065,0.42630762 70.509453 0 0 5.577e-4,0 0.43876065,0.42630762 70.509453 0 0 0.070942,-0.0458 0.43876065,0.42630762 70.509453 0 0 0.1089264,-0.13238 l 0.8630324,0.42732 a 0.61934075,0.61934075 0 0 0 0.5463079,-0.5625 l -1.1132917,-0.551 a 0.43876065,0.42630762 70.509453 0 0 -0.2195287,-0.55524 0.43876065,0.42630762 70.509453 0 0 -0.1726063,-0.0436 z"
       id="path1807"
       inkscape:connector-curvature="0" />
    <path
       style="opacity:1;fill:#cccccc;fill-opacity:1;stroke:none;stroke-width:0.08970148;stroke-linecap:round;stroke-linejoin:round;stroke-miterlimit:4;stroke-dasharray:none;stroke-opacity:1;paint-order:markers fill stroke"
       d="m 2.5555171,292.01474 a 0.43876065,0.42630765 70.509452 0 0 -0.013965,5.6e-4 c 0.029875,0.007 0.059381,0.0154 0.087141,0.029 0.1784084,0.0885 0.2623902,0.3007 0.192716,0.48766 l 0.1312701,0.0653 a 0.43876065,0.42630765 70.509452 0 0 -0.2239973,-0.53904 0.43876065,0.42630765 70.509452 0 0 -0.1731649,-0.0436 z m -0.4211824,0.53849 a 0.43876065,0.42630765 70.509452 0 0 0.00503,0.0196 c 0.00102,-2.3e-4 0.00233,-8.9e-4 0.00335,-9.9e-4 -0.0032,-0.005 -0.00548,-0.0124 -0.00838,-0.0184 z M 1.859505,292.9772 a 0.43876065,0.42630765 70.509452 0 0 -0.0067,0.0291 0.43876065,0.42630765 70.509452 0 0 5.586e-4,5.6e-4 0.43876065,0.42630765 70.509452 0 0 -0.00503,0.0436 0.43876065,0.42630765 70.509452 0 0 0.010054,0.12512 0.43876065,0.42630765 70.509452 0 0 0,0.006 0.43876065,0.42630765 70.509452 0 0 5.586e-4,0 0.43876065,0.42630765 70.509452 0 0 5.586e-4,0.002 0.43876065,0.42630765 70.509452 0 0 0.02793,0.081 0.43876065,0.42630765 70.509452 0 0 0.043012,0.0754 0.43876065,0.42630765 70.509452 0 0 0,5.6e-4 0.43876065,0.42630765 70.509452 0 0 0.026813,0.0341 0.43876065,0.42630765 70.509452 0 0 0,5.6e-4 0.43876065,0.42630765 70.509452 0 0 0.06368,0.0592 0.43876065,0.42630765 70.509452 0 0 0,5.6e-4 0.43876065,0.42630765 70.509452 0 0 0.073176,0.0458 0.43876065,0.42630765 70.509452 0 0 0.044688,0.019 0.43876065,0.42630765 70.509452 0 0 0.041894,0.0128 0.43876065,0.42630765 70.509452 0 0 0.042454,0.007 0.43876065,0.42630765 70.509452 0 0 0.1279187,-9.9e-4 0.43876065,0.42630765 70.509452 0 0 0.1200984,-0.0396 0.43876065,0.42630765 70.509452 0 0 5.586e-4,0 0.43876065,0.42630765 70.509452 0 0 0.0715,-0.0463 0.43876065,0.42630765 70.509452 0 0 0.1083678,-0.13183 l 0.8596811,0.42565 a 0.61934075,0.61934075 0 0 0 0.1642273,-0.0408 l -1.1138424,-0.55133 c -0.023813,0.0451 -0.056217,0.0839 -0.09552,0.11563 -0.019409,0.0155 -0.040458,0.0294 -0.062562,0.0408 l -5.585e-4,5.7e-4 c -0.033359,0.017 -0.069189,0.0288 -0.1061335,0.0346 -0.037149,0.005 -0.075376,0.006 -0.1128366,5.6e-4 -0.012455,-9.9e-4 -0.025127,-0.003 -0.037426,-0.005 -0.012292,-0.003 -0.023803,-0.008 -0.035751,-0.0112 -0.013447,-0.004 -0.026799,-0.0108 -0.03966,-0.0168 -0.022722,-0.0112 -0.044053,-0.0246 -0.064238,-0.0402 l -5.587e-4,-5.5e-4 c -0.020188,-0.0155 -0.03843,-0.0333 -0.055301,-0.0525 h -5.586e-4 c -0.00832,-0.01 -0.016093,-0.0199 -0.023461,-0.0301 -0.014838,-0.021 -0.027997,-0.0437 -0.038543,-0.067 -0.010258,-0.0229 -0.018258,-0.0466 -0.02402,-0.071 -1.778e-4,-9.7e-4 1.814e-4,-9.9e-4 0,-0.002 h -5.587e-4 c -1.653e-4,-9.6e-4 -4.069e-4,-0.003 -5.585e-4,-0.005 -0.0035,-0.0158 -0.00235,-0.032 -0.00391,-0.048 z"
       id="path1815"
       inkscape:connector-curvature="0" />
  </g>
</svg>
