<?xml version="1.0" encoding="UTF-8" standalone="no"?>
<!-- Created with Inkscape (http://www.inkscape.org/) -->

<svg
   xmlns:dc="http://purl.org/dc/elements/1.1/"
   xmlns:cc="http://creativecommons.org/ns#"
   xmlns:rdf="http://www.w3.org/1999/02/22-rdf-syntax-ns#"
   xmlns:svg="http://www.w3.org/2000/svg"
   xmlns="http://www.w3.org/2000/svg"
   xmlns:sodipodi="http://sodipodi.sourceforge.net/DTD/sodipodi-0.dtd"
   xmlns:inkscape="http://www.inkscape.org/namespaces/inkscape"
   width="47.625mm"
   height="8.4666405mm"
   viewBox="0 0 47.625 8.4666405"
   version="1.1"
   id="svg1051"
   inkscape:version="0.92.4 (5da689c313, 2019-01-14)"
   sodipodi:docname="ingredient_viewer_background.svg">
  <defs
     id="defs1045" />
  <sodipodi:namedview
     id="base"
     pagecolor="#ffffff"
     bordercolor="#666666"
     borderopacity="1.0"
     inkscape:pageopacity="0.0"
     inkscape:pageshadow="2"
     inkscape:zoom="2.8"
     inkscape:cx="94.91549"
     inkscape:cy="-50.667523"
     inkscape:document-units="mm"
     inkscape:current-layer="layer1"
     showgrid="false"
     inkscape:window-width="1920"
     inkscape:window-height="1001"
     inkscape:window-x="-9"
     inkscape:window-y="-9"
     inkscape:window-maximized="1"
     fit-margin-top="0"
     fit-margin-left="0"
     fit-margin-right="0"
     fit-margin-bottom="0"
     inkscape:snap-bbox="true"
     inkscape:bbox-paths="true"
     inkscape:bbox-nodes="true"
     inkscape:snap-bbox-edge-midpoints="true"
     inkscape:snap-bbox-midpoints="true"
     inkscape:object-paths="true"
     inkscape:snap-intersection-paths="true"
     inkscape:snap-smooth-nodes="true"
     inkscape:snap-midpoints="true" />
  <metadata
     id="metadata1048">
    <rdf:RDF>
      <cc:Work
         rdf:about="">
        <dc:format>image/svg+xml</dc:format>
        <dc:type
           rdf:resource="http://purl.org/dc/dcmitype/StillImage" />
        <dc:title />
      </cc:Work>
    </rdf:RDF>
  </metadata>
  <g
     inkscape:label="Layer 1"
     inkscape:groupmode="layer"
     id="layer1"
     transform="translate(-38.931548,-101.05717)">
    <path
       inkscape:connector-curvature="0"
       style="opacity:1;fill:#d9d9d9;fill-opacity:1;stroke:none;stroke-width:1.26499999;stroke-linecap:round;stroke-linejoin:round;stroke-miterlimit:4;stroke-dasharray:none;stroke-opacity:1;paint-order:markers fill stroke"
       d="m 42.606259,101.05717 c -2.035927,0 -3.674711,1.63878 -3.674711,3.67471 v 1.11722 c 0,2.03593 1.638784,3.67471 3.674711,3.67471 h 40.275578 c 2.035927,0 3.674711,-1.63878 3.674711,-3.67471 v -1.11722 c 0,-2.03593 -1.638784,-3.67471 -3.674711,-3.67471 z"
       id="path849"
       sodipodi:nodetypes="sssssssss" />
    <path
       style="opacity:1;fill:#ff0000;fill-opacity:1;stroke:none;stroke-width:1.26499999;stroke-linecap:round;stroke-linejoin:round;stroke-miterlimit:4;stroke-dasharray:none;stroke-opacity:1;paint-order:markers fill stroke"
       d="m 78.969479,101.05735 c -0.02973,0.003 -0.05974,0.005 -0.0894,0.006 -0.107116,0.0109 -0.213305,0.0281 -0.318844,0.0486 -0.10552,0.0218 -0.209774,0.0472 -0.312642,0.0801 -0.102885,0.0318 -0.204131,0.0691 -0.303341,0.1111 -0.09924,0.0426 -0.196905,0.0891 -0.291455,0.14056 -0.09443,0.0516 -0.185622,0.10776 -0.274402,0.16846 -0.08894,0.061 -0.174888,0.12543 -0.257348,0.19483 -0.0823,0.0694 -0.160735,0.14335 -0.235645,0.22065 -0.07502,0.0772 -0.14702,0.15787 -0.21394,0.24237 -0.06697,0.0844 -0.129426,0.17181 -0.187586,0.26251 -0.05814,0.0907 -0.111884,0.18367 -0.160713,0.27957 -0.04891,0.096 -0.0922,0.19478 -0.131259,0.29507 -0.03896,0.10058 -0.0736,0.2024 -0.102319,0.30593 -0.02874,0.1042 -0.05195,0.209 -0.07028,0.31522 -0.01829,0.10622 -0.03096,0.21347 -0.03876,0.32092 -0.0045,0.076 -0.0077,0.15231 -0.0078,0.22841 l -10e-4,2.01848 c 0,0.0762 -0.0022,0.15241 -0.0078,0.22841 -0.0076,0.10751 -0.02043,0.21365 -0.03876,0.31987 -0.0182,0.10653 -0.04155,0.21169 -0.07028,0.31523 -0.02885,0.10392 -0.06326,0.20666 -0.102319,0.30696 -0.03903,0.10025 -0.08243,0.19814 -0.131259,0.29404 -0.04882,0.0959 -0.102563,0.1897 -0.160713,0.2806 -0.05821,0.0903 -0.120664,0.17802 -0.187586,0.26252 -0.06694,0.0844 -0.13892,0.16506 -0.21394,0.24236 -0.07506,0.0772 -0.1533,0.15032 -0.235645,0.21962 -0.08234,0.0699 -0.168454,0.13516 -0.257348,0.19586 -0.08889,0.0608 -0.180883,0.11696 -0.275436,0.16846 -0.09446,0.0513 -0.191318,0.099 -0.290421,0.14056 -0.09919,0.0424 -0.200465,0.0782 -0.303341,0.11111 -0.102866,0.0314 -0.207101,0.0591 -0.312642,0.0796 -0.105596,0.0212 -0.212152,0.0374 -0.319361,0.0475 -0.03327,0.005 -0.06686,0.006 -0.100252,0.007 0.0309,6.1e-4 0.07402,0.007 0.08527,0.008 h 5.831169 3.999756 c 2.035927,0 3.674711,-1.63878 3.674711,-3.67471 v -1.11725 c 0,-2.03593 -1.638784,-3.67471 -3.674711,-3.67471 h -3.889104 z"
       id="path1984"
       inkscape:connector-curvature="0" />
    <path
       style="color:#000000;font-style:normal;font-variant:normal;font-weight:normal;font-stretch:normal;font-size:medium;line-height:normal;font-family:sans-serif;font-variant-ligatures:normal;font-variant-position:normal;font-variant-caps:normal;font-variant-numeric:normal;font-variant-alternates:normal;font-feature-settings:normal;text-indent:0;text-align:start;text-decoration:none;text-decoration-line:none;text-decoration-style:solid;text-decoration-color:#000000;letter-spacing:normal;word-spacing:normal;text-transform:none;writing-mode:lr-tb;direction:ltr;text-orientation:mixed;dominant-baseline:auto;baseline-shift:baseline;text-anchor:start;white-space:normal;shape-padding:0;clip-rule:nonzero;display:inline;overflow:visible;visibility:visible;opacity:1;isolation:auto;mix-blend-mode:normal;color-interpolation:sRGB;color-interpolation-filters:linearRGB;solid-color:#000000;solid-opacity:1;vector-effect:none;fill:#f1f1f1;fill-opacity:1;fill-rule:nonzero;stroke:none;stroke-width:1.28511643;stroke-linecap:round;stroke-linejoin:miter;stroke-miterlimit:4;stroke-dasharray:none;stroke-dashoffset:0;stroke-opacity:1;color-rendering:auto;image-rendering:auto;shape-rendering:auto;text-rendering:auto;enable-background:accumulate"
       d="m 79.710683,103.14466 a 0.64262249,0.64262249 0 0 0 -0.447685,1.1033 l 1.060866,1.06001 -1.045165,1.04559 a 0.64262249,0.64262249 0 1 0 0.908101,0.90811 l 1.04559,-1.04517 1.046014,1.04517 a 0.64262249,0.64262249 0 1 0 0.907678,-0.90811 l -1.045166,-1.04559 1.060866,-1.06001 a 0.64262249,0.64262249 0 0 0 -0.447261,-1.1033 0.64262249,0.64262249 0 0 0 -0.462113,0.19392 l -1.060018,1.06044 -1.060017,-1.06044 a 0.64262249,0.64262249 0 0 0 -0.46169,-0.19392 z"
       id="path1987"
       inkscape:connector-curvature="0" />
  </g>
</svg>
